%TF.GenerationSoftware,KiCad,Pcbnew,8.0.2*%
%TF.CreationDate,2026-04-23T08:15:25-04:00*%
%TF.ProjectId,ch32m030,63683332-6d30-4333-902e-6b696361645f,rev?*%
%TF.SameCoordinates,Original*%
%TF.FileFunction,Legend,Bot*%
%TF.FilePolarity,Positive*%
%FSLAX46Y46*%
G04 Gerber Fmt 4.6, Leading zero omitted, Abs format (unit mm)*
G04 Created by KiCad (PCBNEW 8.0.2) date 2026-04-23 08:15:25*
%MOMM*%
%LPD*%
G01*
G04 APERTURE LIST*
G04 Aperture macros list*
%AMRoundRect*
0 Rectangle with rounded corners*
0 $1 Rounding radius*
0 $2 $3 $4 $5 $6 $7 $8 $9 X,Y pos of 4 corners*
0 Add a 4 corners polygon primitive as box body*
4,1,4,$2,$3,$4,$5,$6,$7,$8,$9,$2,$3,0*
0 Add four circle primitives for the rounded corners*
1,1,$1+$1,$2,$3*
1,1,$1+$1,$4,$5*
1,1,$1+$1,$6,$7*
1,1,$1+$1,$8,$9*
0 Add four rect primitives between the rounded corners*
20,1,$1+$1,$2,$3,$4,$5,0*
20,1,$1+$1,$4,$5,$6,$7,0*
20,1,$1+$1,$6,$7,$8,$9,0*
20,1,$1+$1,$8,$9,$2,$3,0*%
%AMFreePoly0*
4,1,6,1.000000,0.000000,0.500000,-0.750000,-0.500000,-0.750000,-0.500000,0.750000,0.500000,0.750000,1.000000,0.000000,1.000000,0.000000,$1*%
%AMFreePoly1*
4,1,6,0.500000,-0.750000,-0.650000,-0.750000,-0.150000,0.000000,-0.650000,0.750000,0.500000,0.750000,0.500000,-0.750000,0.500000,-0.750000,$1*%
G04 Aperture macros list end*
%ADD10C,0.150000*%
%ADD11C,0.120000*%
%ADD12C,0.508000*%
%ADD13FreePoly0,0.000000*%
%ADD14FreePoly1,0.000000*%
%ADD15R,3.550000X0.810000*%
%ADD16R,6.810000X6.350000*%
%ADD17C,2.604000*%
%ADD18RoundRect,0.102000X-0.900000X0.900000X-0.900000X-0.900000X0.900000X-0.900000X0.900000X0.900000X0*%
%ADD19C,2.004000*%
%ADD20O,1.300000X2.100000*%
%ADD21O,1.300000X2.300000*%
%ADD22C,0.500000*%
%ADD23C,0.600000*%
G04 APERTURE END LIST*
D10*
X172433333Y-72454819D02*
X172433333Y-73169104D01*
X172433333Y-73169104D02*
X172480952Y-73311961D01*
X172480952Y-73311961D02*
X172576190Y-73407200D01*
X172576190Y-73407200D02*
X172719047Y-73454819D01*
X172719047Y-73454819D02*
X172814285Y-73454819D01*
X171957142Y-73454819D02*
X171957142Y-72454819D01*
X171957142Y-72454819D02*
X171576190Y-72454819D01*
X171576190Y-72454819D02*
X171480952Y-72502438D01*
X171480952Y-72502438D02*
X171433333Y-72550057D01*
X171433333Y-72550057D02*
X171385714Y-72645295D01*
X171385714Y-72645295D02*
X171385714Y-72788152D01*
X171385714Y-72788152D02*
X171433333Y-72883390D01*
X171433333Y-72883390D02*
X171480952Y-72931009D01*
X171480952Y-72931009D02*
X171576190Y-72978628D01*
X171576190Y-72978628D02*
X171957142Y-72978628D01*
X171052380Y-72454819D02*
X170385714Y-72454819D01*
X170385714Y-72454819D02*
X170814285Y-73454819D01*
X172433333Y-68654819D02*
X172433333Y-69369104D01*
X172433333Y-69369104D02*
X172480952Y-69511961D01*
X172480952Y-69511961D02*
X172576190Y-69607200D01*
X172576190Y-69607200D02*
X172719047Y-69654819D01*
X172719047Y-69654819D02*
X172814285Y-69654819D01*
X171957142Y-69654819D02*
X171957142Y-68654819D01*
X171957142Y-68654819D02*
X171576190Y-68654819D01*
X171576190Y-68654819D02*
X171480952Y-68702438D01*
X171480952Y-68702438D02*
X171433333Y-68750057D01*
X171433333Y-68750057D02*
X171385714Y-68845295D01*
X171385714Y-68845295D02*
X171385714Y-68988152D01*
X171385714Y-68988152D02*
X171433333Y-69083390D01*
X171433333Y-69083390D02*
X171480952Y-69131009D01*
X171480952Y-69131009D02*
X171576190Y-69178628D01*
X171576190Y-69178628D02*
X171957142Y-69178628D01*
X170528571Y-68654819D02*
X170719047Y-68654819D01*
X170719047Y-68654819D02*
X170814285Y-68702438D01*
X170814285Y-68702438D02*
X170861904Y-68750057D01*
X170861904Y-68750057D02*
X170957142Y-68892914D01*
X170957142Y-68892914D02*
X171004761Y-69083390D01*
X171004761Y-69083390D02*
X171004761Y-69464342D01*
X171004761Y-69464342D02*
X170957142Y-69559580D01*
X170957142Y-69559580D02*
X170909523Y-69607200D01*
X170909523Y-69607200D02*
X170814285Y-69654819D01*
X170814285Y-69654819D02*
X170623809Y-69654819D01*
X170623809Y-69654819D02*
X170528571Y-69607200D01*
X170528571Y-69607200D02*
X170480952Y-69559580D01*
X170480952Y-69559580D02*
X170433333Y-69464342D01*
X170433333Y-69464342D02*
X170433333Y-69226247D01*
X170433333Y-69226247D02*
X170480952Y-69131009D01*
X170480952Y-69131009D02*
X170528571Y-69083390D01*
X170528571Y-69083390D02*
X170623809Y-69035771D01*
X170623809Y-69035771D02*
X170814285Y-69035771D01*
X170814285Y-69035771D02*
X170909523Y-69083390D01*
X170909523Y-69083390D02*
X170957142Y-69131009D01*
X170957142Y-69131009D02*
X171004761Y-69226247D01*
X172433333Y-65054819D02*
X172433333Y-65769104D01*
X172433333Y-65769104D02*
X172480952Y-65911961D01*
X172480952Y-65911961D02*
X172576190Y-66007200D01*
X172576190Y-66007200D02*
X172719047Y-66054819D01*
X172719047Y-66054819D02*
X172814285Y-66054819D01*
X171957142Y-66054819D02*
X171957142Y-65054819D01*
X171957142Y-65054819D02*
X171576190Y-65054819D01*
X171576190Y-65054819D02*
X171480952Y-65102438D01*
X171480952Y-65102438D02*
X171433333Y-65150057D01*
X171433333Y-65150057D02*
X171385714Y-65245295D01*
X171385714Y-65245295D02*
X171385714Y-65388152D01*
X171385714Y-65388152D02*
X171433333Y-65483390D01*
X171433333Y-65483390D02*
X171480952Y-65531009D01*
X171480952Y-65531009D02*
X171576190Y-65578628D01*
X171576190Y-65578628D02*
X171957142Y-65578628D01*
X170480952Y-65054819D02*
X170957142Y-65054819D01*
X170957142Y-65054819D02*
X171004761Y-65531009D01*
X171004761Y-65531009D02*
X170957142Y-65483390D01*
X170957142Y-65483390D02*
X170861904Y-65435771D01*
X170861904Y-65435771D02*
X170623809Y-65435771D01*
X170623809Y-65435771D02*
X170528571Y-65483390D01*
X170528571Y-65483390D02*
X170480952Y-65531009D01*
X170480952Y-65531009D02*
X170433333Y-65626247D01*
X170433333Y-65626247D02*
X170433333Y-65864342D01*
X170433333Y-65864342D02*
X170480952Y-65959580D01*
X170480952Y-65959580D02*
X170528571Y-66007200D01*
X170528571Y-66007200D02*
X170623809Y-66054819D01*
X170623809Y-66054819D02*
X170861904Y-66054819D01*
X170861904Y-66054819D02*
X170957142Y-66007200D01*
X170957142Y-66007200D02*
X171004761Y-65959580D01*
X172433333Y-61254819D02*
X172433333Y-61969104D01*
X172433333Y-61969104D02*
X172480952Y-62111961D01*
X172480952Y-62111961D02*
X172576190Y-62207200D01*
X172576190Y-62207200D02*
X172719047Y-62254819D01*
X172719047Y-62254819D02*
X172814285Y-62254819D01*
X171957142Y-62254819D02*
X171957142Y-61254819D01*
X171957142Y-61254819D02*
X171576190Y-61254819D01*
X171576190Y-61254819D02*
X171480952Y-61302438D01*
X171480952Y-61302438D02*
X171433333Y-61350057D01*
X171433333Y-61350057D02*
X171385714Y-61445295D01*
X171385714Y-61445295D02*
X171385714Y-61588152D01*
X171385714Y-61588152D02*
X171433333Y-61683390D01*
X171433333Y-61683390D02*
X171480952Y-61731009D01*
X171480952Y-61731009D02*
X171576190Y-61778628D01*
X171576190Y-61778628D02*
X171957142Y-61778628D01*
X170528571Y-61588152D02*
X170528571Y-62254819D01*
X170766666Y-61207200D02*
X171004761Y-61921485D01*
X171004761Y-61921485D02*
X170385714Y-61921485D01*
X172358333Y-57454819D02*
X172358333Y-58169104D01*
X172358333Y-58169104D02*
X172405952Y-58311961D01*
X172405952Y-58311961D02*
X172501190Y-58407200D01*
X172501190Y-58407200D02*
X172644047Y-58454819D01*
X172644047Y-58454819D02*
X172739285Y-58454819D01*
X171882142Y-58454819D02*
X171882142Y-57454819D01*
X171882142Y-57454819D02*
X171501190Y-57454819D01*
X171501190Y-57454819D02*
X171405952Y-57502438D01*
X171405952Y-57502438D02*
X171358333Y-57550057D01*
X171358333Y-57550057D02*
X171310714Y-57645295D01*
X171310714Y-57645295D02*
X171310714Y-57788152D01*
X171310714Y-57788152D02*
X171358333Y-57883390D01*
X171358333Y-57883390D02*
X171405952Y-57931009D01*
X171405952Y-57931009D02*
X171501190Y-57978628D01*
X171501190Y-57978628D02*
X171882142Y-57978628D01*
X170977380Y-57454819D02*
X170358333Y-57454819D01*
X170358333Y-57454819D02*
X170691666Y-57835771D01*
X170691666Y-57835771D02*
X170548809Y-57835771D01*
X170548809Y-57835771D02*
X170453571Y-57883390D01*
X170453571Y-57883390D02*
X170405952Y-57931009D01*
X170405952Y-57931009D02*
X170358333Y-58026247D01*
X170358333Y-58026247D02*
X170358333Y-58264342D01*
X170358333Y-58264342D02*
X170405952Y-58359580D01*
X170405952Y-58359580D02*
X170453571Y-58407200D01*
X170453571Y-58407200D02*
X170548809Y-58454819D01*
X170548809Y-58454819D02*
X170834523Y-58454819D01*
X170834523Y-58454819D02*
X170929761Y-58407200D01*
X170929761Y-58407200D02*
X170977380Y-58359580D01*
X172358333Y-53654819D02*
X172358333Y-54369104D01*
X172358333Y-54369104D02*
X172405952Y-54511961D01*
X172405952Y-54511961D02*
X172501190Y-54607200D01*
X172501190Y-54607200D02*
X172644047Y-54654819D01*
X172644047Y-54654819D02*
X172739285Y-54654819D01*
X171882142Y-54654819D02*
X171882142Y-53654819D01*
X171882142Y-53654819D02*
X171501190Y-53654819D01*
X171501190Y-53654819D02*
X171405952Y-53702438D01*
X171405952Y-53702438D02*
X171358333Y-53750057D01*
X171358333Y-53750057D02*
X171310714Y-53845295D01*
X171310714Y-53845295D02*
X171310714Y-53988152D01*
X171310714Y-53988152D02*
X171358333Y-54083390D01*
X171358333Y-54083390D02*
X171405952Y-54131009D01*
X171405952Y-54131009D02*
X171501190Y-54178628D01*
X171501190Y-54178628D02*
X171882142Y-54178628D01*
X170929761Y-53750057D02*
X170882142Y-53702438D01*
X170882142Y-53702438D02*
X170786904Y-53654819D01*
X170786904Y-53654819D02*
X170548809Y-53654819D01*
X170548809Y-53654819D02*
X170453571Y-53702438D01*
X170453571Y-53702438D02*
X170405952Y-53750057D01*
X170405952Y-53750057D02*
X170358333Y-53845295D01*
X170358333Y-53845295D02*
X170358333Y-53940533D01*
X170358333Y-53940533D02*
X170405952Y-54083390D01*
X170405952Y-54083390D02*
X170977380Y-54654819D01*
X170977380Y-54654819D02*
X170358333Y-54654819D01*
X172433333Y-49854819D02*
X172433333Y-50569104D01*
X172433333Y-50569104D02*
X172480952Y-50711961D01*
X172480952Y-50711961D02*
X172576190Y-50807200D01*
X172576190Y-50807200D02*
X172719047Y-50854819D01*
X172719047Y-50854819D02*
X172814285Y-50854819D01*
X171957142Y-50854819D02*
X171957142Y-49854819D01*
X171957142Y-49854819D02*
X171576190Y-49854819D01*
X171576190Y-49854819D02*
X171480952Y-49902438D01*
X171480952Y-49902438D02*
X171433333Y-49950057D01*
X171433333Y-49950057D02*
X171385714Y-50045295D01*
X171385714Y-50045295D02*
X171385714Y-50188152D01*
X171385714Y-50188152D02*
X171433333Y-50283390D01*
X171433333Y-50283390D02*
X171480952Y-50331009D01*
X171480952Y-50331009D02*
X171576190Y-50378628D01*
X171576190Y-50378628D02*
X171957142Y-50378628D01*
X170433333Y-50854819D02*
X171004761Y-50854819D01*
X170719047Y-50854819D02*
X170719047Y-49854819D01*
X170719047Y-49854819D02*
X170814285Y-49997676D01*
X170814285Y-49997676D02*
X170909523Y-50092914D01*
X170909523Y-50092914D02*
X171004761Y-50140533D01*
D11*
%TO.C,JP7*%
X173000000Y-72200000D02*
X170200000Y-72200000D01*
X170200000Y-72200000D02*
X170200000Y-70200000D01*
X173000000Y-70200000D02*
X173000000Y-72200000D01*
X170200000Y-70200000D02*
X173000000Y-70200000D01*
%TO.C,JP6*%
X173000000Y-68400000D02*
X170200000Y-68400000D01*
X170200000Y-68400000D02*
X170200000Y-66400000D01*
X173000000Y-66400000D02*
X173000000Y-68400000D01*
X170200000Y-66400000D02*
X173000000Y-66400000D01*
%TO.C,JP5*%
X173000000Y-64800000D02*
X170200000Y-64800000D01*
X170200000Y-64800000D02*
X170200000Y-62800000D01*
X173000000Y-62800000D02*
X173000000Y-64800000D01*
X170200000Y-62800000D02*
X173000000Y-62800000D01*
%TO.C,JP4*%
X173000000Y-61000000D02*
X170200000Y-61000000D01*
X170200000Y-61000000D02*
X170200000Y-59000000D01*
X173000000Y-59000000D02*
X173000000Y-61000000D01*
X170200000Y-59000000D02*
X173000000Y-59000000D01*
%TO.C,JP3*%
X172925000Y-57200000D02*
X170125000Y-57200000D01*
X170125000Y-57200000D02*
X170125000Y-55200000D01*
X172925000Y-55200000D02*
X172925000Y-57200000D01*
X170125000Y-55200000D02*
X172925000Y-55200000D01*
%TO.C,JP2*%
X172925000Y-53400000D02*
X170125000Y-53400000D01*
X170125000Y-53400000D02*
X170125000Y-51400000D01*
X172925000Y-51400000D02*
X172925000Y-53400000D01*
X170125000Y-51400000D02*
X172925000Y-51400000D01*
%TO.C,JP1*%
X173000000Y-49600000D02*
X170200000Y-49600000D01*
X170200000Y-49600000D02*
X170200000Y-47600000D01*
X173000000Y-47600000D02*
X173000000Y-49600000D01*
X170200000Y-47600000D02*
X173000000Y-47600000D01*
D12*
%TO.C,J4*%
X166343500Y-51506701D02*
G75*
G02*
X165581500Y-51506701I-381000J0D01*
G01*
X165581500Y-51506701D02*
G75*
G02*
X166343500Y-51506701I381000J0D01*
G01*
%TD*%
%LPC*%
D13*
%TO.C,JP7*%
X170875000Y-71200000D03*
D14*
X172325000Y-71200000D03*
%TD*%
D13*
%TO.C,JP6*%
X170875000Y-67400000D03*
D14*
X172325000Y-67400000D03*
%TD*%
D13*
%TO.C,JP5*%
X170875000Y-63800000D03*
D14*
X172325000Y-63800000D03*
%TD*%
D13*
%TO.C,JP4*%
X170875000Y-60000000D03*
D14*
X172325000Y-60000000D03*
%TD*%
D13*
%TO.C,JP3*%
X170800000Y-56200000D03*
D14*
X172250000Y-56200000D03*
%TD*%
D13*
%TO.C,JP2*%
X170800000Y-52400000D03*
D14*
X172250000Y-52400000D03*
%TD*%
D13*
%TO.C,JP1*%
X170875000Y-48600000D03*
D14*
X172325000Y-48600000D03*
%TD*%
D15*
%TO.C,P1*%
X183563201Y-50198511D03*
X183563201Y-51468511D03*
X183563201Y-52738511D03*
X183563201Y-54008511D03*
X183563201Y-55278511D03*
X183563201Y-56548511D03*
X183563201Y-57818511D03*
X183563201Y-59088511D03*
X183563201Y-60358511D03*
X183563201Y-61628511D03*
X183563201Y-62898511D03*
X183563201Y-64168511D03*
X183563201Y-65438511D03*
X183563201Y-66708511D03*
X183563201Y-67978511D03*
X183563201Y-69248511D03*
X183563201Y-70518511D03*
X183563201Y-71788511D03*
D16*
X179613201Y-78193511D03*
X179588201Y-85793511D03*
%TD*%
D17*
%TO.C,J3*%
X127400000Y-88960000D03*
X127400000Y-99120000D03*
X127400000Y-109280000D03*
X127400000Y-119440000D03*
X127400000Y-129600000D03*
X127400000Y-139760000D03*
X117240000Y-88960000D03*
X117240000Y-99120000D03*
X117240000Y-109280000D03*
X117240000Y-119440000D03*
X117240000Y-129600000D03*
X117240000Y-139760000D03*
%TD*%
D18*
%TO.C,J1*%
X120400000Y-49700000D03*
D19*
X115400000Y-53200000D03*
X120400000Y-56700000D03*
X115400000Y-60200000D03*
X120400000Y-63700000D03*
X115400000Y-67200000D03*
X120400000Y-70700000D03*
X115400000Y-74200000D03*
X120400000Y-77700000D03*
X115400000Y-81200000D03*
%TD*%
D20*
%TO.C,J2*%
X133070000Y-47820000D03*
D21*
X133070000Y-52020000D03*
D22*
X135400000Y-47200000D03*
X135400000Y-49200000D03*
X139400000Y-47200000D03*
X139400000Y-49200000D03*
D20*
X141730000Y-47820000D03*
D21*
X141730000Y-52020000D03*
D23*
X134510000Y-51500000D03*
X140290000Y-51500000D03*
%TD*%
%LPD*%
M02*
