%TF.GenerationSoftware,KiCad,Pcbnew,8.0.2*%
%TF.CreationDate,2026-04-23T08:15:24-04:00*%
%TF.ProjectId,ch32m030,63683332-6d30-4333-902e-6b696361645f,rev?*%
%TF.SameCoordinates,Original*%
%TF.FileFunction,Copper,L3,Inr*%
%TF.FilePolarity,Positive*%
%FSLAX46Y46*%
G04 Gerber Fmt 4.6, Leading zero omitted, Abs format (unit mm)*
G04 Created by KiCad (PCBNEW 8.0.2) date 2026-04-23 08:15:24*
%MOMM*%
%LPD*%
G01*
G04 APERTURE LIST*
%TA.AperFunction,ComponentPad*%
%ADD10C,0.500000*%
%TD*%
%TA.AperFunction,ComponentPad*%
%ADD11C,2.400000*%
%TD*%
%TA.AperFunction,ComponentPad*%
%ADD12R,1.800000X1.800000*%
%TD*%
%TA.AperFunction,ComponentPad*%
%ADD13C,1.800000*%
%TD*%
%TA.AperFunction,ComponentPad*%
%ADD14O,1.300000X2.100000*%
%TD*%
%TA.AperFunction,ComponentPad*%
%ADD15O,1.300000X2.300000*%
%TD*%
%TA.AperFunction,ViaPad*%
%ADD16C,0.600000*%
%TD*%
G04 APERTURE END LIST*
D10*
%TO.N,Net-(JP8-B)*%
%TO.C,U2*%
X127280000Y-77200000D03*
X126280000Y-77200000D03*
%TD*%
D11*
%TO.N,/SW0*%
%TO.C,J3*%
X127400000Y-88960000D03*
%TO.N,/SW1*%
X127400000Y-99120000D03*
%TO.N,/SW2*%
X127400000Y-109280000D03*
%TO.N,/SW3*%
X127400000Y-119440000D03*
%TO.N,+24V*%
X127400000Y-129600000D03*
%TO.N,GNDPWR*%
X127400000Y-139760000D03*
%TO.N,/SW0*%
X117240000Y-88960000D03*
%TO.N,/SW1*%
X117240000Y-99120000D03*
%TO.N,/SW2*%
X117240000Y-109280000D03*
%TO.N,/SW3*%
X117240000Y-119440000D03*
%TO.N,+24V*%
X117240000Y-129600000D03*
%TO.N,GNDPWR*%
X117240000Y-139760000D03*
%TD*%
D12*
%TO.N,Net-(J1-Pad1)*%
%TO.C,J1*%
X120400000Y-49700000D03*
D13*
%TO.N,Net-(J1-Pad2)*%
X115400000Y-53200000D03*
%TO.N,Net-(J1-Pad3)*%
X120400000Y-56700000D03*
%TO.N,Net-(J1-Pad4)*%
X115400000Y-60200000D03*
%TO.N,Net-(J1-Pad5)*%
X120400000Y-63700000D03*
%TO.N,Net-(J1-Pad6)*%
X115400000Y-67200000D03*
%TO.N,Net-(J1-Pad7)*%
X120400000Y-70700000D03*
%TO.N,Net-(J1-Pad8)*%
X115400000Y-74200000D03*
%TO.N,GND*%
X120400000Y-77700000D03*
%TO.N,/HV_IO*%
X115400000Y-81200000D03*
%TD*%
D14*
%TO.N,GNDPWR*%
%TO.C,J2*%
X133070000Y-47820000D03*
D15*
X133070000Y-52020000D03*
D10*
X135400000Y-47200000D03*
X135400000Y-49200000D03*
X139400000Y-47200000D03*
X139400000Y-49200000D03*
D14*
X141730000Y-47820000D03*
D15*
X141730000Y-52020000D03*
%TD*%
D16*
%TO.N,GNDPWR*%
X151000000Y-97200000D03*
%TO.N,+24V*%
X139600000Y-90600000D03*
X137060000Y-90600000D03*
X137060000Y-88060000D03*
X139600000Y-88060000D03*
X139600000Y-106000000D03*
X137060000Y-106000000D03*
X137060000Y-103460000D03*
X139600000Y-103460000D03*
X139800000Y-136000000D03*
X137260000Y-136000000D03*
X137260000Y-133460000D03*
X139800000Y-133460000D03*
X133400000Y-121170000D03*
X135800000Y-121170000D03*
X134600000Y-122440000D03*
X134620000Y-93980000D03*
X135890000Y-91440000D03*
X133350000Y-91440000D03*
X134620000Y-100330000D03*
X133350000Y-102870000D03*
X135890000Y-102870000D03*
X142240000Y-100330000D03*
X142240000Y-99060000D03*
X142240000Y-97790000D03*
X142240000Y-95250000D03*
X135030000Y-130060000D03*
X133760000Y-132600000D03*
X136300000Y-132600000D03*
X142650000Y-128790000D03*
X142650000Y-127520000D03*
X142650000Y-124980000D03*
X142650000Y-123710000D03*
X137570000Y-118630000D03*
X140110000Y-118630000D03*
X137570000Y-116090000D03*
X140110000Y-116090000D03*
%TO.N,Net-(C17-Pad2)*%
X165510000Y-122440000D03*
X165510000Y-124980000D03*
X165510000Y-127520000D03*
X165510000Y-130060000D03*
X162970000Y-130060000D03*
X162970000Y-127520000D03*
X162970000Y-124980000D03*
X162970000Y-122440000D03*
X160430000Y-127520000D03*
X160430000Y-124980000D03*
X160430000Y-122440000D03*
X165510000Y-132600000D03*
X165510000Y-133870000D03*
X164240000Y-132600000D03*
X164240000Y-133870000D03*
X164240000Y-135140000D03*
X164240000Y-136410000D03*
X162970000Y-137680000D03*
X162970000Y-136410000D03*
X162970000Y-135140000D03*
X162970000Y-133870000D03*
X161700000Y-133870000D03*
X162970000Y-132600000D03*
X161700000Y-132600000D03*
X161700000Y-133870000D03*
X161700000Y-135140000D03*
X161700000Y-136410000D03*
X161700000Y-137680000D03*
X160430000Y-137680000D03*
X160430000Y-136410000D03*
X160430000Y-135140000D03*
X160430000Y-133870000D03*
X160430000Y-132600000D03*
X164240000Y-114820000D03*
X164240000Y-116090000D03*
X164240000Y-117360000D03*
X164240000Y-118630000D03*
X164240000Y-119900000D03*
X162970000Y-119900000D03*
X162970000Y-118630000D03*
X162970000Y-116090000D03*
X162970000Y-117360000D03*
X162970000Y-114820000D03*
X161700000Y-114820000D03*
X161700000Y-116090000D03*
X161700000Y-117360000D03*
X161700000Y-118630000D03*
X161700000Y-119900000D03*
X160430000Y-119900000D03*
X160430000Y-118630000D03*
X160430000Y-117360000D03*
X160430000Y-116090000D03*
X160430000Y-114820000D03*
%TO.N,Net-(C11-Pad2)*%
X161290000Y-101600000D03*
X163830000Y-101600000D03*
X163830000Y-93980000D03*
X163830000Y-96520000D03*
X163830000Y-99060000D03*
X161290000Y-99060000D03*
X161290000Y-96520000D03*
X161290000Y-93980000D03*
X163830000Y-104140000D03*
X163830000Y-102870000D03*
X163830000Y-105410000D03*
X163830000Y-106680000D03*
X163830000Y-107950000D03*
X162560000Y-109220000D03*
X162560000Y-107950000D03*
X162560000Y-106680000D03*
X162560000Y-104140000D03*
X162560000Y-105410000D03*
X162560000Y-102870000D03*
X161290000Y-102870000D03*
X161290000Y-104140000D03*
X161290000Y-105410000D03*
X161290000Y-106680000D03*
X161290000Y-107950000D03*
X161290000Y-109220000D03*
X161290000Y-110490000D03*
X160020000Y-110490000D03*
X160020000Y-109220000D03*
X160020000Y-107950000D03*
X160020000Y-106680000D03*
X160020000Y-105410000D03*
X160020000Y-104140000D03*
X160020000Y-102870000D03*
X163830000Y-91440000D03*
X163830000Y-90170000D03*
X163830000Y-88900000D03*
X163830000Y-87630000D03*
X162560000Y-87630000D03*
X162560000Y-88900000D03*
X162560000Y-90170000D03*
X162560000Y-91440000D03*
X161290000Y-91440000D03*
X161290000Y-90170000D03*
X161290000Y-88900000D03*
X161290000Y-87630000D03*
X160020000Y-91440000D03*
X160020000Y-90170000D03*
X160020000Y-88900000D03*
X160020000Y-87630000D03*
%TO.N,/SW3*%
X156230000Y-137520000D03*
X154960000Y-137520000D03*
X153690000Y-137520000D03*
X152420000Y-137520000D03*
X151150000Y-137520000D03*
X149880000Y-137520000D03*
X148610000Y-137520000D03*
X156230000Y-136250000D03*
X154960000Y-136250000D03*
X153690000Y-136250000D03*
X152420000Y-136250000D03*
X151150000Y-136250000D03*
X149880000Y-136250000D03*
X148610000Y-136250000D03*
X156230000Y-134980000D03*
X154960000Y-134980000D03*
X153690000Y-134980000D03*
X152420000Y-134980000D03*
X151150000Y-134980000D03*
X149880000Y-134980000D03*
X148610000Y-134980000D03*
X156230000Y-133710000D03*
X154960000Y-133710000D03*
X153690000Y-133710000D03*
X152420000Y-133710000D03*
X151150000Y-133710000D03*
X149880000Y-133710000D03*
X148610000Y-133710000D03*
X156230000Y-132440000D03*
X154960000Y-132440000D03*
X153690000Y-132440000D03*
X152420000Y-132440000D03*
X151150000Y-132440000D03*
X149880000Y-132440000D03*
X148610000Y-132440000D03*
%TO.N,/SW2*%
X156630000Y-120120000D03*
X155360000Y-120120000D03*
X154090000Y-120120000D03*
X152820000Y-120120000D03*
X151550000Y-120120000D03*
X150280000Y-120120000D03*
X149010000Y-120120000D03*
X156630000Y-118850000D03*
X155360000Y-118850000D03*
X154090000Y-118850000D03*
X152820000Y-118850000D03*
X151550000Y-118850000D03*
X150280000Y-118850000D03*
X149010000Y-118850000D03*
X156630000Y-117580000D03*
X155360000Y-117580000D03*
X154090000Y-117580000D03*
X152820000Y-117580000D03*
X151550000Y-117580000D03*
X150280000Y-117580000D03*
X149010000Y-117580000D03*
X156630000Y-116310000D03*
X155360000Y-116310000D03*
X154090000Y-116310000D03*
X152820000Y-116310000D03*
X151550000Y-116310000D03*
X150280000Y-116310000D03*
X149010000Y-116310000D03*
X156630000Y-115040000D03*
X155360000Y-115040000D03*
X154090000Y-115040000D03*
X152820000Y-115040000D03*
X151550000Y-115040000D03*
X150280000Y-115040000D03*
X149010000Y-115040000D03*
%TO.N,/SW1*%
X156020000Y-107880000D03*
X154750000Y-107880000D03*
X153480000Y-107880000D03*
X152210000Y-107880000D03*
X150940000Y-107880000D03*
X149670000Y-107880000D03*
X148400000Y-107880000D03*
X156020000Y-106610000D03*
X154750000Y-106610000D03*
X153480000Y-106610000D03*
X152210000Y-106610000D03*
X150940000Y-106610000D03*
X149670000Y-106610000D03*
X148400000Y-106610000D03*
X156020000Y-105340000D03*
X154750000Y-105340000D03*
X153480000Y-105340000D03*
X152210000Y-105340000D03*
X150940000Y-105340000D03*
X149670000Y-105340000D03*
X148400000Y-105340000D03*
X156020000Y-104070000D03*
X154750000Y-104070000D03*
X153480000Y-104070000D03*
X152210000Y-104070000D03*
X150940000Y-104070000D03*
X149670000Y-104070000D03*
X148400000Y-104070000D03*
X156020000Y-102800000D03*
X154750000Y-102800000D03*
X153480000Y-102800000D03*
X152210000Y-102800000D03*
X150940000Y-102800000D03*
X149670000Y-102800000D03*
X148400000Y-102800000D03*
%TO.N,/SW0*%
X156420000Y-92280000D03*
X155150000Y-92280000D03*
X153880000Y-92280000D03*
X152610000Y-92280000D03*
X151340000Y-92280000D03*
X150070000Y-92280000D03*
X148800000Y-92280000D03*
X156420000Y-91010000D03*
X155150000Y-91010000D03*
X153880000Y-91010000D03*
X152610000Y-91010000D03*
X151340000Y-91010000D03*
X150070000Y-91010000D03*
X148800000Y-91010000D03*
X156420000Y-89740000D03*
X155150000Y-89740000D03*
X153880000Y-89740000D03*
X152610000Y-89740000D03*
X151340000Y-89740000D03*
X150070000Y-89740000D03*
X148800000Y-89740000D03*
X156420000Y-88470000D03*
X155150000Y-88470000D03*
X153880000Y-88470000D03*
X152610000Y-88470000D03*
X151340000Y-88470000D03*
X150070000Y-88470000D03*
X148800000Y-88470000D03*
X156420000Y-87200000D03*
X155150000Y-87200000D03*
X153880000Y-87200000D03*
X152610000Y-87200000D03*
X151340000Y-87200000D03*
X150070000Y-87200000D03*
X148800000Y-87200000D03*
%TD*%
%TA.AperFunction,Conductor*%
%TO.N,GND*%
G36*
X132338916Y-46320185D02*
G01*
X132384671Y-46372989D01*
X132394615Y-46442147D01*
X132365590Y-46505703D01*
X132344762Y-46524818D01*
X132320505Y-46542441D01*
X132320500Y-46542445D01*
X132192445Y-46670500D01*
X132192441Y-46670505D01*
X132086006Y-46817002D01*
X132003788Y-46978360D01*
X132003787Y-46978363D01*
X131947829Y-47150589D01*
X131919500Y-47329448D01*
X131919500Y-48310551D01*
X131947829Y-48489410D01*
X132003787Y-48661636D01*
X132003788Y-48661639D01*
X132086006Y-48822997D01*
X132192441Y-48969494D01*
X132192445Y-48969499D01*
X132320500Y-49097554D01*
X132320505Y-49097558D01*
X132448162Y-49190305D01*
X132467006Y-49203996D01*
X132572484Y-49257740D01*
X132628360Y-49286211D01*
X132628363Y-49286212D01*
X132714476Y-49314191D01*
X132800591Y-49342171D01*
X132883429Y-49355291D01*
X132979449Y-49370500D01*
X132979454Y-49370500D01*
X133160551Y-49370500D01*
X133247259Y-49356765D01*
X133339409Y-49342171D01*
X133511639Y-49286211D01*
X133672994Y-49203996D01*
X133678498Y-49199997D01*
X134644751Y-49199997D01*
X134644751Y-49200002D01*
X134663685Y-49368056D01*
X134719545Y-49527694D01*
X134719547Y-49527697D01*
X134809518Y-49670884D01*
X134809523Y-49670890D01*
X134929109Y-49790476D01*
X134929115Y-49790481D01*
X135072302Y-49880452D01*
X135072305Y-49880454D01*
X135072309Y-49880455D01*
X135072310Y-49880456D01*
X135144913Y-49905860D01*
X135231943Y-49936314D01*
X135399997Y-49955249D01*
X135400000Y-49955249D01*
X135400003Y-49955249D01*
X135568056Y-49936314D01*
X135568059Y-49936313D01*
X135727690Y-49880456D01*
X135727692Y-49880454D01*
X135727694Y-49880454D01*
X135727697Y-49880452D01*
X135870884Y-49790481D01*
X135870885Y-49790480D01*
X135870890Y-49790477D01*
X135990477Y-49670890D01*
X135990481Y-49670884D01*
X136080452Y-49527697D01*
X136080454Y-49527694D01*
X136080454Y-49527692D01*
X136080456Y-49527690D01*
X136136313Y-49368059D01*
X136136313Y-49368058D01*
X136136314Y-49368056D01*
X136155249Y-49200002D01*
X136155249Y-49199997D01*
X138644751Y-49199997D01*
X138644751Y-49200002D01*
X138663685Y-49368056D01*
X138719545Y-49527694D01*
X138719547Y-49527697D01*
X138809518Y-49670884D01*
X138809523Y-49670890D01*
X138929109Y-49790476D01*
X138929115Y-49790481D01*
X139072302Y-49880452D01*
X139072305Y-49880454D01*
X139072309Y-49880455D01*
X139072310Y-49880456D01*
X139144913Y-49905860D01*
X139231943Y-49936314D01*
X139399997Y-49955249D01*
X139400000Y-49955249D01*
X139400003Y-49955249D01*
X139568056Y-49936314D01*
X139568059Y-49936313D01*
X139727690Y-49880456D01*
X139727692Y-49880454D01*
X139727694Y-49880454D01*
X139727697Y-49880452D01*
X139870884Y-49790481D01*
X139870885Y-49790480D01*
X139870890Y-49790477D01*
X139990477Y-49670890D01*
X139990481Y-49670884D01*
X140080452Y-49527697D01*
X140080454Y-49527694D01*
X140080454Y-49527692D01*
X140080456Y-49527690D01*
X140136313Y-49368059D01*
X140136313Y-49368058D01*
X140136314Y-49368056D01*
X140155249Y-49200002D01*
X140155249Y-49199997D01*
X140136314Y-49031943D01*
X140105195Y-48943011D01*
X140080456Y-48872310D01*
X140080455Y-48872309D01*
X140080454Y-48872305D01*
X140080452Y-48872302D01*
X139990481Y-48729115D01*
X139990476Y-48729109D01*
X139870890Y-48609523D01*
X139870884Y-48609518D01*
X139727697Y-48519547D01*
X139727694Y-48519545D01*
X139568056Y-48463685D01*
X139400003Y-48444751D01*
X139399997Y-48444751D01*
X139231943Y-48463685D01*
X139072305Y-48519545D01*
X139072302Y-48519547D01*
X138929115Y-48609518D01*
X138929109Y-48609523D01*
X138809523Y-48729109D01*
X138809518Y-48729115D01*
X138719547Y-48872302D01*
X138719545Y-48872305D01*
X138663685Y-49031943D01*
X138644751Y-49199997D01*
X136155249Y-49199997D01*
X136136314Y-49031943D01*
X136105195Y-48943011D01*
X136080456Y-48872310D01*
X136080455Y-48872309D01*
X136080454Y-48872305D01*
X136080452Y-48872302D01*
X135990481Y-48729115D01*
X135990476Y-48729109D01*
X135870890Y-48609523D01*
X135870884Y-48609518D01*
X135727697Y-48519547D01*
X135727694Y-48519545D01*
X135568056Y-48463685D01*
X135400003Y-48444751D01*
X135399997Y-48444751D01*
X135231943Y-48463685D01*
X135072305Y-48519545D01*
X135072302Y-48519547D01*
X134929115Y-48609518D01*
X134929109Y-48609523D01*
X134809523Y-48729109D01*
X134809518Y-48729115D01*
X134719547Y-48872302D01*
X134719545Y-48872305D01*
X134663685Y-49031943D01*
X134644751Y-49199997D01*
X133678498Y-49199997D01*
X133819501Y-49097553D01*
X133947553Y-48969501D01*
X134053996Y-48822994D01*
X134136211Y-48661639D01*
X134192171Y-48489409D01*
X134206765Y-48397259D01*
X134220500Y-48310551D01*
X134220500Y-47329448D01*
X134199997Y-47200002D01*
X134192171Y-47150591D01*
X134136211Y-46978361D01*
X134136211Y-46978360D01*
X134082172Y-46872305D01*
X134053996Y-46817006D01*
X133990140Y-46729115D01*
X133947558Y-46670505D01*
X133947554Y-46670500D01*
X133819499Y-46542445D01*
X133819494Y-46542441D01*
X133795238Y-46524818D01*
X133752572Y-46469489D01*
X133746593Y-46399875D01*
X133779198Y-46338080D01*
X133840037Y-46303723D01*
X133868123Y-46300500D01*
X134990502Y-46300500D01*
X135057541Y-46320185D01*
X135103296Y-46372989D01*
X135113240Y-46442147D01*
X135084215Y-46505703D01*
X135056475Y-46529493D01*
X134929111Y-46609521D01*
X134809523Y-46729109D01*
X134809518Y-46729115D01*
X134719547Y-46872302D01*
X134719545Y-46872305D01*
X134663685Y-47031943D01*
X134644751Y-47199997D01*
X134644751Y-47200002D01*
X134663685Y-47368056D01*
X134719545Y-47527694D01*
X134719547Y-47527697D01*
X134809518Y-47670884D01*
X134809523Y-47670890D01*
X134929109Y-47790476D01*
X134929115Y-47790481D01*
X135072302Y-47880452D01*
X135072305Y-47880454D01*
X135072309Y-47880455D01*
X135072310Y-47880456D01*
X135144913Y-47905860D01*
X135231943Y-47936314D01*
X135399997Y-47955249D01*
X135400000Y-47955249D01*
X135400003Y-47955249D01*
X135568056Y-47936314D01*
X135568059Y-47936313D01*
X135727690Y-47880456D01*
X135727692Y-47880454D01*
X135727694Y-47880454D01*
X135727697Y-47880452D01*
X135870884Y-47790481D01*
X135870885Y-47790480D01*
X135870890Y-47790477D01*
X135990477Y-47670890D01*
X136080452Y-47527697D01*
X136080454Y-47527694D01*
X136080454Y-47527692D01*
X136080456Y-47527690D01*
X136136313Y-47368059D01*
X136136313Y-47368058D01*
X136136314Y-47368056D01*
X136155249Y-47200002D01*
X136155249Y-47199997D01*
X136136314Y-47031943D01*
X136080454Y-46872305D01*
X136080452Y-46872302D01*
X135990481Y-46729115D01*
X135990476Y-46729109D01*
X135870888Y-46609521D01*
X135743525Y-46529493D01*
X135697235Y-46477159D01*
X135686587Y-46408105D01*
X135714962Y-46344257D01*
X135773352Y-46305885D01*
X135809498Y-46300500D01*
X138990502Y-46300500D01*
X139057541Y-46320185D01*
X139103296Y-46372989D01*
X139113240Y-46442147D01*
X139084215Y-46505703D01*
X139056475Y-46529493D01*
X138929111Y-46609521D01*
X138809523Y-46729109D01*
X138809518Y-46729115D01*
X138719547Y-46872302D01*
X138719545Y-46872305D01*
X138663685Y-47031943D01*
X138644751Y-47199997D01*
X138644751Y-47200002D01*
X138663685Y-47368056D01*
X138719545Y-47527694D01*
X138719547Y-47527697D01*
X138809518Y-47670884D01*
X138809523Y-47670890D01*
X138929109Y-47790476D01*
X138929115Y-47790481D01*
X139072302Y-47880452D01*
X139072305Y-47880454D01*
X139072309Y-47880455D01*
X139072310Y-47880456D01*
X139144913Y-47905860D01*
X139231943Y-47936314D01*
X139399997Y-47955249D01*
X139400000Y-47955249D01*
X139400003Y-47955249D01*
X139568056Y-47936314D01*
X139568059Y-47936313D01*
X139727690Y-47880456D01*
X139727692Y-47880454D01*
X139727694Y-47880454D01*
X139727697Y-47880452D01*
X139870884Y-47790481D01*
X139870885Y-47790480D01*
X139870890Y-47790477D01*
X139990477Y-47670890D01*
X140080452Y-47527697D01*
X140080454Y-47527694D01*
X140080454Y-47527692D01*
X140080456Y-47527690D01*
X140136313Y-47368059D01*
X140136313Y-47368058D01*
X140136314Y-47368056D01*
X140155249Y-47200002D01*
X140155249Y-47199997D01*
X140136314Y-47031943D01*
X140080454Y-46872305D01*
X140080452Y-46872302D01*
X139990481Y-46729115D01*
X139990476Y-46729109D01*
X139870888Y-46609521D01*
X139743525Y-46529493D01*
X139697235Y-46477159D01*
X139686587Y-46408105D01*
X139714962Y-46344257D01*
X139773352Y-46305885D01*
X139809498Y-46300500D01*
X140931877Y-46300500D01*
X140998916Y-46320185D01*
X141044671Y-46372989D01*
X141054615Y-46442147D01*
X141025590Y-46505703D01*
X141004762Y-46524818D01*
X140980505Y-46542441D01*
X140980500Y-46542445D01*
X140852445Y-46670500D01*
X140852441Y-46670505D01*
X140746006Y-46817002D01*
X140663788Y-46978360D01*
X140663787Y-46978363D01*
X140607829Y-47150589D01*
X140579500Y-47329448D01*
X140579500Y-48310551D01*
X140607829Y-48489410D01*
X140663787Y-48661636D01*
X140663788Y-48661639D01*
X140746006Y-48822997D01*
X140852441Y-48969494D01*
X140852445Y-48969499D01*
X140980500Y-49097554D01*
X140980505Y-49097558D01*
X141108162Y-49190305D01*
X141127006Y-49203996D01*
X141232484Y-49257740D01*
X141288360Y-49286211D01*
X141288363Y-49286212D01*
X141374476Y-49314191D01*
X141460591Y-49342171D01*
X141543429Y-49355291D01*
X141639449Y-49370500D01*
X141639454Y-49370500D01*
X141820551Y-49370500D01*
X141907259Y-49356765D01*
X141999409Y-49342171D01*
X142171639Y-49286211D01*
X142332994Y-49203996D01*
X142479501Y-49097553D01*
X142607553Y-48969501D01*
X142713996Y-48822994D01*
X142796211Y-48661639D01*
X142852171Y-48489409D01*
X142866765Y-48397259D01*
X142880500Y-48310551D01*
X142880500Y-47329448D01*
X142859997Y-47200002D01*
X142852171Y-47150591D01*
X142796211Y-46978361D01*
X142796211Y-46978360D01*
X142742172Y-46872305D01*
X142713996Y-46817006D01*
X142650140Y-46729115D01*
X142607558Y-46670505D01*
X142607554Y-46670500D01*
X142479499Y-46542445D01*
X142479494Y-46542441D01*
X142455238Y-46524818D01*
X142412572Y-46469489D01*
X142406593Y-46399875D01*
X142439198Y-46338080D01*
X142500037Y-46303723D01*
X142528123Y-46300500D01*
X174438701Y-46300500D01*
X174505740Y-46320185D01*
X174551495Y-46372989D01*
X174562701Y-46424500D01*
X174562701Y-49409402D01*
X174596809Y-49536698D01*
X174629755Y-49593761D01*
X174662701Y-49650825D01*
X174755887Y-49744011D01*
X174870015Y-49809903D01*
X174997309Y-49844011D01*
X175129093Y-49844011D01*
X183476000Y-49844011D01*
X183543039Y-49863696D01*
X183588794Y-49916500D01*
X183600000Y-49968011D01*
X183600000Y-72369011D01*
X183580315Y-72436050D01*
X183527511Y-72481805D01*
X183476000Y-72493011D01*
X175114586Y-72493011D01*
X175114511Y-72492989D01*
X175063202Y-72492989D01*
X174958170Y-72492989D01*
X174958167Y-72492989D01*
X174751299Y-72529464D01*
X174553907Y-72601310D01*
X174553900Y-72601313D01*
X174371987Y-72706341D01*
X174371984Y-72706343D01*
X174211074Y-72841360D01*
X174211066Y-72841368D01*
X174076044Y-73002281D01*
X174076042Y-73002285D01*
X173971013Y-73184199D01*
X173971012Y-73184201D01*
X173956768Y-73223334D01*
X173915340Y-73279597D01*
X173850070Y-73304530D01*
X173822602Y-73303658D01*
X173758903Y-73294500D01*
X173758900Y-73294500D01*
X170051362Y-73294500D01*
X170051360Y-73294500D01*
X169997311Y-73297397D01*
X169997310Y-73297397D01*
X169970977Y-73300229D01*
X169970950Y-73300232D01*
X169917554Y-73308885D01*
X169917552Y-73308885D01*
X169782747Y-73359166D01*
X169721422Y-73392651D01*
X169606244Y-73478873D01*
X169606228Y-73478886D01*
X169603050Y-73482065D01*
X169541725Y-73515545D01*
X169472033Y-73510555D01*
X169434175Y-73488091D01*
X169326090Y-73394433D01*
X169326087Y-73394431D01*
X169326085Y-73394430D01*
X169195219Y-73334664D01*
X169195214Y-73334662D01*
X169195213Y-73334662D01*
X169128174Y-73314977D01*
X169128176Y-73314977D01*
X169128171Y-73314976D01*
X169049450Y-73303658D01*
X168985754Y-73294500D01*
X136451362Y-73294500D01*
X136451360Y-73294500D01*
X136397311Y-73297397D01*
X136397310Y-73297397D01*
X136370977Y-73300229D01*
X136370950Y-73300232D01*
X136317554Y-73308885D01*
X136317552Y-73308885D01*
X136182747Y-73359166D01*
X136121422Y-73392651D01*
X136006240Y-73478876D01*
X136006228Y-73478886D01*
X126739761Y-82745353D01*
X126727225Y-82758344D01*
X126721210Y-82764803D01*
X126709115Y-82778267D01*
X126631330Y-82899304D01*
X126631320Y-82899322D01*
X126602573Y-82962272D01*
X126602308Y-82962846D01*
X126596740Y-82981809D01*
X126565445Y-83034554D01*
X126443632Y-83156367D01*
X126321817Y-83278182D01*
X126260497Y-83311666D01*
X126234138Y-83314500D01*
X110224500Y-83314500D01*
X110157461Y-83294815D01*
X110111706Y-83242011D01*
X110100500Y-83190500D01*
X110100500Y-81199993D01*
X113994700Y-81199993D01*
X113994700Y-81200006D01*
X114013864Y-81431297D01*
X114013866Y-81431308D01*
X114070842Y-81656300D01*
X114164075Y-81868848D01*
X114291016Y-82063147D01*
X114291019Y-82063151D01*
X114291021Y-82063153D01*
X114448216Y-82233913D01*
X114448219Y-82233915D01*
X114448222Y-82233918D01*
X114631365Y-82376464D01*
X114631371Y-82376468D01*
X114631374Y-82376470D01*
X114835497Y-82486936D01*
X114949487Y-82526068D01*
X115055015Y-82562297D01*
X115055017Y-82562297D01*
X115055019Y-82562298D01*
X115283951Y-82600500D01*
X115283952Y-82600500D01*
X115516048Y-82600500D01*
X115516049Y-82600500D01*
X115744981Y-82562298D01*
X115964503Y-82486936D01*
X116168626Y-82376470D01*
X116351784Y-82233913D01*
X116508979Y-82063153D01*
X116635924Y-81868849D01*
X116729157Y-81656300D01*
X116786134Y-81431305D01*
X116805300Y-81200000D01*
X116805300Y-81199993D01*
X116786135Y-80968702D01*
X116786133Y-80968691D01*
X116729157Y-80743699D01*
X116635924Y-80531151D01*
X116508983Y-80336852D01*
X116508980Y-80336849D01*
X116508979Y-80336847D01*
X116351784Y-80166087D01*
X116351779Y-80166083D01*
X116351777Y-80166081D01*
X116168634Y-80023535D01*
X116168628Y-80023531D01*
X115964504Y-79913064D01*
X115964495Y-79913061D01*
X115744984Y-79837702D01*
X115573282Y-79809050D01*
X115516049Y-79799500D01*
X115283951Y-79799500D01*
X115238164Y-79807140D01*
X115055015Y-79837702D01*
X114835504Y-79913061D01*
X114835495Y-79913064D01*
X114631371Y-80023531D01*
X114631365Y-80023535D01*
X114448222Y-80166081D01*
X114448219Y-80166084D01*
X114291016Y-80336852D01*
X114164075Y-80531151D01*
X114070842Y-80743699D01*
X114013866Y-80968691D01*
X114013864Y-80968702D01*
X113994700Y-81199993D01*
X110100500Y-81199993D01*
X110100500Y-77699994D01*
X118995202Y-77699994D01*
X118995202Y-77700005D01*
X119014361Y-77931218D01*
X119071317Y-78156135D01*
X119164515Y-78368606D01*
X119248812Y-78497633D01*
X119835387Y-77911058D01*
X119840889Y-77931591D01*
X119919881Y-78068408D01*
X120031592Y-78180119D01*
X120168409Y-78259111D01*
X120188940Y-78264612D01*
X119601201Y-78852351D01*
X119631649Y-78876050D01*
X119835697Y-78986476D01*
X119835706Y-78986479D01*
X120055139Y-79061811D01*
X120283993Y-79100000D01*
X120516007Y-79100000D01*
X120744860Y-79061811D01*
X120964293Y-78986479D01*
X120964301Y-78986476D01*
X121168355Y-78876047D01*
X121198797Y-78852351D01*
X121198798Y-78852350D01*
X120611060Y-78264612D01*
X120631591Y-78259111D01*
X120768408Y-78180119D01*
X120880119Y-78068408D01*
X120959111Y-77931591D01*
X120964612Y-77911059D01*
X121551186Y-78497633D01*
X121635482Y-78368611D01*
X121728682Y-78156135D01*
X121785638Y-77931218D01*
X121804798Y-77700005D01*
X121804798Y-77699994D01*
X121785638Y-77468781D01*
X121728682Y-77243864D01*
X121709440Y-77199997D01*
X125524751Y-77199997D01*
X125524751Y-77200002D01*
X125543685Y-77368056D01*
X125599545Y-77527694D01*
X125599547Y-77527697D01*
X125689518Y-77670884D01*
X125689523Y-77670890D01*
X125809109Y-77790476D01*
X125809115Y-77790481D01*
X125952302Y-77880452D01*
X125952305Y-77880454D01*
X125952309Y-77880455D01*
X125952310Y-77880456D01*
X126024913Y-77905860D01*
X126111943Y-77936314D01*
X126279997Y-77955249D01*
X126280000Y-77955249D01*
X126280003Y-77955249D01*
X126448056Y-77936314D01*
X126448059Y-77936313D01*
X126607690Y-77880456D01*
X126714028Y-77813638D01*
X126781263Y-77794638D01*
X126845970Y-77813638D01*
X126906589Y-77851727D01*
X126952306Y-77880454D01*
X126952307Y-77880454D01*
X126952310Y-77880456D01*
X127058730Y-77917694D01*
X127111943Y-77936314D01*
X127279997Y-77955249D01*
X127280000Y-77955249D01*
X127280003Y-77955249D01*
X127448056Y-77936314D01*
X127448059Y-77936313D01*
X127607690Y-77880456D01*
X127607692Y-77880454D01*
X127607694Y-77880454D01*
X127607697Y-77880452D01*
X127750884Y-77790481D01*
X127750885Y-77790480D01*
X127750890Y-77790477D01*
X127870477Y-77670890D01*
X127870481Y-77670884D01*
X127960452Y-77527697D01*
X127960454Y-77527694D01*
X127960454Y-77527692D01*
X127960456Y-77527690D01*
X128016313Y-77368059D01*
X128016313Y-77368058D01*
X128016314Y-77368056D01*
X128035249Y-77200002D01*
X128035249Y-77199997D01*
X128016314Y-77031943D01*
X127985860Y-76944913D01*
X127960456Y-76872310D01*
X127960455Y-76872309D01*
X127960454Y-76872305D01*
X127960452Y-76872302D01*
X127870481Y-76729115D01*
X127870476Y-76729109D01*
X127750890Y-76609523D01*
X127750884Y-76609518D01*
X127607697Y-76519547D01*
X127607694Y-76519545D01*
X127448056Y-76463685D01*
X127280003Y-76444751D01*
X127279997Y-76444751D01*
X127111943Y-76463685D01*
X126952307Y-76519545D01*
X126845972Y-76586361D01*
X126778736Y-76605361D01*
X126714028Y-76586361D01*
X126607692Y-76519545D01*
X126607691Y-76519544D01*
X126607690Y-76519544D01*
X126569370Y-76506135D01*
X126448056Y-76463685D01*
X126280003Y-76444751D01*
X126279997Y-76444751D01*
X126111943Y-76463685D01*
X125952305Y-76519545D01*
X125952302Y-76519547D01*
X125809115Y-76609518D01*
X125809109Y-76609523D01*
X125689523Y-76729109D01*
X125689518Y-76729115D01*
X125599547Y-76872302D01*
X125599545Y-76872305D01*
X125543685Y-77031943D01*
X125524751Y-77199997D01*
X121709440Y-77199997D01*
X121635484Y-77031393D01*
X121551186Y-76902365D01*
X120964612Y-77488939D01*
X120959111Y-77468409D01*
X120880119Y-77331592D01*
X120768408Y-77219881D01*
X120631591Y-77140889D01*
X120611058Y-77135387D01*
X121198797Y-76547647D01*
X121198797Y-76547645D01*
X121168360Y-76523955D01*
X121168354Y-76523951D01*
X120964302Y-76413523D01*
X120964293Y-76413520D01*
X120744860Y-76338188D01*
X120516007Y-76300000D01*
X120283993Y-76300000D01*
X120055139Y-76338188D01*
X119835706Y-76413520D01*
X119835697Y-76413523D01*
X119631650Y-76523949D01*
X119601200Y-76547647D01*
X120188941Y-77135387D01*
X120168409Y-77140889D01*
X120031592Y-77219881D01*
X119919881Y-77331592D01*
X119840889Y-77468409D01*
X119835387Y-77488941D01*
X119248811Y-76902365D01*
X119164516Y-77031390D01*
X119071317Y-77243864D01*
X119014361Y-77468781D01*
X118995202Y-77699994D01*
X110100500Y-77699994D01*
X110100500Y-74199993D01*
X113994700Y-74199993D01*
X113994700Y-74200006D01*
X114013864Y-74431297D01*
X114013866Y-74431308D01*
X114070842Y-74656300D01*
X114164075Y-74868848D01*
X114291016Y-75063147D01*
X114291019Y-75063151D01*
X114291021Y-75063153D01*
X114448216Y-75233913D01*
X114448219Y-75233915D01*
X114448222Y-75233918D01*
X114631365Y-75376464D01*
X114631371Y-75376468D01*
X114631374Y-75376470D01*
X114835497Y-75486936D01*
X114949487Y-75526068D01*
X115055015Y-75562297D01*
X115055017Y-75562297D01*
X115055019Y-75562298D01*
X115283951Y-75600500D01*
X115283952Y-75600500D01*
X115516048Y-75600500D01*
X115516049Y-75600500D01*
X115744981Y-75562298D01*
X115964503Y-75486936D01*
X116168626Y-75376470D01*
X116351784Y-75233913D01*
X116508979Y-75063153D01*
X116635924Y-74868849D01*
X116729157Y-74656300D01*
X116786134Y-74431305D01*
X116786135Y-74431297D01*
X116805300Y-74200006D01*
X116805300Y-74199993D01*
X116786135Y-73968702D01*
X116786133Y-73968691D01*
X116729157Y-73743699D01*
X116635924Y-73531151D01*
X116508983Y-73336852D01*
X116508980Y-73336849D01*
X116508979Y-73336847D01*
X116351784Y-73166087D01*
X116351779Y-73166083D01*
X116351777Y-73166081D01*
X116168634Y-73023535D01*
X116168628Y-73023531D01*
X115964504Y-72913064D01*
X115964495Y-72913061D01*
X115744984Y-72837702D01*
X115573282Y-72809050D01*
X115516049Y-72799500D01*
X115283951Y-72799500D01*
X115238164Y-72807140D01*
X115055015Y-72837702D01*
X114835504Y-72913061D01*
X114835495Y-72913064D01*
X114631371Y-73023531D01*
X114631365Y-73023535D01*
X114448222Y-73166081D01*
X114448219Y-73166084D01*
X114291016Y-73336852D01*
X114164075Y-73531151D01*
X114070842Y-73743699D01*
X114013866Y-73968691D01*
X114013864Y-73968702D01*
X113994700Y-74199993D01*
X110100500Y-74199993D01*
X110100500Y-70699993D01*
X118994700Y-70699993D01*
X118994700Y-70700006D01*
X119013864Y-70931297D01*
X119013866Y-70931308D01*
X119070842Y-71156300D01*
X119164075Y-71368848D01*
X119291016Y-71563147D01*
X119291019Y-71563151D01*
X119291021Y-71563153D01*
X119448216Y-71733913D01*
X119448219Y-71733915D01*
X119448222Y-71733918D01*
X119631365Y-71876464D01*
X119631371Y-71876468D01*
X119631374Y-71876470D01*
X119835497Y-71986936D01*
X119949487Y-72026068D01*
X120055015Y-72062297D01*
X120055017Y-72062297D01*
X120055019Y-72062298D01*
X120283951Y-72100500D01*
X120283952Y-72100500D01*
X120516048Y-72100500D01*
X120516049Y-72100500D01*
X120744981Y-72062298D01*
X120964503Y-71986936D01*
X121168626Y-71876470D01*
X121351784Y-71733913D01*
X121508979Y-71563153D01*
X121635924Y-71368849D01*
X121729157Y-71156300D01*
X121786134Y-70931305D01*
X121805300Y-70700000D01*
X121805300Y-70699993D01*
X121786135Y-70468702D01*
X121786133Y-70468691D01*
X121729157Y-70243699D01*
X121635924Y-70031151D01*
X121508983Y-69836852D01*
X121508980Y-69836849D01*
X121508979Y-69836847D01*
X121351784Y-69666087D01*
X121351779Y-69666083D01*
X121351777Y-69666081D01*
X121168634Y-69523535D01*
X121168628Y-69523531D01*
X120964504Y-69413064D01*
X120964495Y-69413061D01*
X120744984Y-69337702D01*
X120573282Y-69309050D01*
X120516049Y-69299500D01*
X120283951Y-69299500D01*
X120238164Y-69307140D01*
X120055015Y-69337702D01*
X119835504Y-69413061D01*
X119835495Y-69413064D01*
X119631371Y-69523531D01*
X119631365Y-69523535D01*
X119448222Y-69666081D01*
X119448219Y-69666084D01*
X119291016Y-69836852D01*
X119164075Y-70031151D01*
X119070842Y-70243699D01*
X119013866Y-70468691D01*
X119013864Y-70468702D01*
X118994700Y-70699993D01*
X110100500Y-70699993D01*
X110100500Y-67199993D01*
X113994700Y-67199993D01*
X113994700Y-67200006D01*
X114013864Y-67431297D01*
X114013866Y-67431308D01*
X114070842Y-67656300D01*
X114164075Y-67868848D01*
X114291016Y-68063147D01*
X114291019Y-68063151D01*
X114291021Y-68063153D01*
X114448216Y-68233913D01*
X114448219Y-68233915D01*
X114448222Y-68233918D01*
X114631365Y-68376464D01*
X114631371Y-68376468D01*
X114631374Y-68376470D01*
X114835497Y-68486936D01*
X114949487Y-68526068D01*
X115055015Y-68562297D01*
X115055017Y-68562297D01*
X115055019Y-68562298D01*
X115283951Y-68600500D01*
X115283952Y-68600500D01*
X115516048Y-68600500D01*
X115516049Y-68600500D01*
X115744981Y-68562298D01*
X115964503Y-68486936D01*
X116168626Y-68376470D01*
X116351784Y-68233913D01*
X116508979Y-68063153D01*
X116635924Y-67868849D01*
X116729157Y-67656300D01*
X116786134Y-67431305D01*
X116805300Y-67200000D01*
X116805300Y-67199993D01*
X116786135Y-66968702D01*
X116786133Y-66968691D01*
X116729157Y-66743699D01*
X116635924Y-66531151D01*
X116508983Y-66336852D01*
X116508980Y-66336849D01*
X116508979Y-66336847D01*
X116351784Y-66166087D01*
X116351779Y-66166083D01*
X116351777Y-66166081D01*
X116168634Y-66023535D01*
X116168628Y-66023531D01*
X115964504Y-65913064D01*
X115964495Y-65913061D01*
X115744984Y-65837702D01*
X115573282Y-65809050D01*
X115516049Y-65799500D01*
X115283951Y-65799500D01*
X115238164Y-65807140D01*
X115055015Y-65837702D01*
X114835504Y-65913061D01*
X114835495Y-65913064D01*
X114631371Y-66023531D01*
X114631365Y-66023535D01*
X114448222Y-66166081D01*
X114448219Y-66166084D01*
X114291016Y-66336852D01*
X114164075Y-66531151D01*
X114070842Y-66743699D01*
X114013866Y-66968691D01*
X114013864Y-66968702D01*
X113994700Y-67199993D01*
X110100500Y-67199993D01*
X110100500Y-63699993D01*
X118994700Y-63699993D01*
X118994700Y-63700006D01*
X119013864Y-63931297D01*
X119013866Y-63931308D01*
X119070842Y-64156300D01*
X119164075Y-64368848D01*
X119291016Y-64563147D01*
X119291019Y-64563151D01*
X119291021Y-64563153D01*
X119448216Y-64733913D01*
X119448219Y-64733915D01*
X119448222Y-64733918D01*
X119631365Y-64876464D01*
X119631371Y-64876468D01*
X119631374Y-64876470D01*
X119835497Y-64986936D01*
X119949487Y-65026068D01*
X120055015Y-65062297D01*
X120055017Y-65062297D01*
X120055019Y-65062298D01*
X120283951Y-65100500D01*
X120283952Y-65100500D01*
X120516048Y-65100500D01*
X120516049Y-65100500D01*
X120744981Y-65062298D01*
X120964503Y-64986936D01*
X121168626Y-64876470D01*
X121351784Y-64733913D01*
X121508979Y-64563153D01*
X121635924Y-64368849D01*
X121729157Y-64156300D01*
X121786134Y-63931305D01*
X121805300Y-63700000D01*
X121805300Y-63699993D01*
X121786135Y-63468702D01*
X121786133Y-63468691D01*
X121729157Y-63243699D01*
X121635924Y-63031151D01*
X121508983Y-62836852D01*
X121508980Y-62836849D01*
X121508979Y-62836847D01*
X121351784Y-62666087D01*
X121351779Y-62666083D01*
X121351777Y-62666081D01*
X121168634Y-62523535D01*
X121168628Y-62523531D01*
X120964504Y-62413064D01*
X120964495Y-62413061D01*
X120744984Y-62337702D01*
X120573282Y-62309050D01*
X120516049Y-62299500D01*
X120283951Y-62299500D01*
X120238164Y-62307140D01*
X120055015Y-62337702D01*
X119835504Y-62413061D01*
X119835495Y-62413064D01*
X119631371Y-62523531D01*
X119631365Y-62523535D01*
X119448222Y-62666081D01*
X119448219Y-62666084D01*
X119291016Y-62836852D01*
X119164075Y-63031151D01*
X119070842Y-63243699D01*
X119013866Y-63468691D01*
X119013864Y-63468702D01*
X118994700Y-63699993D01*
X110100500Y-63699993D01*
X110100500Y-60199993D01*
X113994700Y-60199993D01*
X113994700Y-60200006D01*
X114013864Y-60431297D01*
X114013866Y-60431308D01*
X114070842Y-60656300D01*
X114164075Y-60868848D01*
X114291016Y-61063147D01*
X114291019Y-61063151D01*
X114291021Y-61063153D01*
X114448216Y-61233913D01*
X114448219Y-61233915D01*
X114448222Y-61233918D01*
X114631365Y-61376464D01*
X114631371Y-61376468D01*
X114631374Y-61376470D01*
X114835497Y-61486936D01*
X114949487Y-61526068D01*
X115055015Y-61562297D01*
X115055017Y-61562297D01*
X115055019Y-61562298D01*
X115283951Y-61600500D01*
X115283952Y-61600500D01*
X115516048Y-61600500D01*
X115516049Y-61600500D01*
X115744981Y-61562298D01*
X115964503Y-61486936D01*
X116168626Y-61376470D01*
X116351784Y-61233913D01*
X116508979Y-61063153D01*
X116635924Y-60868849D01*
X116729157Y-60656300D01*
X116786134Y-60431305D01*
X116805300Y-60200000D01*
X116805300Y-60199993D01*
X116786135Y-59968702D01*
X116786133Y-59968691D01*
X116729157Y-59743699D01*
X116635924Y-59531151D01*
X116508983Y-59336852D01*
X116508980Y-59336849D01*
X116508979Y-59336847D01*
X116351784Y-59166087D01*
X116351779Y-59166083D01*
X116351777Y-59166081D01*
X116168634Y-59023535D01*
X116168628Y-59023531D01*
X115964504Y-58913064D01*
X115964495Y-58913061D01*
X115744984Y-58837702D01*
X115573282Y-58809050D01*
X115516049Y-58799500D01*
X115283951Y-58799500D01*
X115238164Y-58807140D01*
X115055015Y-58837702D01*
X114835504Y-58913061D01*
X114835495Y-58913064D01*
X114631371Y-59023531D01*
X114631365Y-59023535D01*
X114448222Y-59166081D01*
X114448219Y-59166084D01*
X114291016Y-59336852D01*
X114164075Y-59531151D01*
X114070842Y-59743699D01*
X114013866Y-59968691D01*
X114013864Y-59968702D01*
X113994700Y-60199993D01*
X110100500Y-60199993D01*
X110100500Y-56699993D01*
X118994700Y-56699993D01*
X118994700Y-56700006D01*
X119013864Y-56931297D01*
X119013866Y-56931308D01*
X119070842Y-57156300D01*
X119164075Y-57368848D01*
X119291016Y-57563147D01*
X119291019Y-57563151D01*
X119291021Y-57563153D01*
X119448216Y-57733913D01*
X119448219Y-57733915D01*
X119448222Y-57733918D01*
X119631365Y-57876464D01*
X119631371Y-57876468D01*
X119631374Y-57876470D01*
X119835497Y-57986936D01*
X119949487Y-58026068D01*
X120055015Y-58062297D01*
X120055017Y-58062297D01*
X120055019Y-58062298D01*
X120283951Y-58100500D01*
X120283952Y-58100500D01*
X120516048Y-58100500D01*
X120516049Y-58100500D01*
X120744981Y-58062298D01*
X120964503Y-57986936D01*
X121168626Y-57876470D01*
X121351784Y-57733913D01*
X121508979Y-57563153D01*
X121635924Y-57368849D01*
X121729157Y-57156300D01*
X121786134Y-56931305D01*
X121805300Y-56700000D01*
X121805300Y-56699993D01*
X121786135Y-56468702D01*
X121786133Y-56468691D01*
X121729157Y-56243699D01*
X121635924Y-56031151D01*
X121508983Y-55836852D01*
X121508980Y-55836849D01*
X121508979Y-55836847D01*
X121351784Y-55666087D01*
X121351779Y-55666083D01*
X121351777Y-55666081D01*
X121168634Y-55523535D01*
X121168628Y-55523531D01*
X120964504Y-55413064D01*
X120964495Y-55413061D01*
X120744984Y-55337702D01*
X120573282Y-55309050D01*
X120516049Y-55299500D01*
X120283951Y-55299500D01*
X120238164Y-55307140D01*
X120055015Y-55337702D01*
X119835504Y-55413061D01*
X119835495Y-55413064D01*
X119631371Y-55523531D01*
X119631365Y-55523535D01*
X119448222Y-55666081D01*
X119448219Y-55666084D01*
X119291016Y-55836852D01*
X119164075Y-56031151D01*
X119070842Y-56243699D01*
X119013866Y-56468691D01*
X119013864Y-56468702D01*
X118994700Y-56699993D01*
X110100500Y-56699993D01*
X110100500Y-53199993D01*
X113994700Y-53199993D01*
X113994700Y-53200006D01*
X114013864Y-53431297D01*
X114013866Y-53431308D01*
X114070842Y-53656300D01*
X114164075Y-53868848D01*
X114291016Y-54063147D01*
X114291019Y-54063151D01*
X114291021Y-54063153D01*
X114448216Y-54233913D01*
X114448219Y-54233915D01*
X114448222Y-54233918D01*
X114631365Y-54376464D01*
X114631371Y-54376468D01*
X114631374Y-54376470D01*
X114835497Y-54486936D01*
X114949487Y-54526068D01*
X115055015Y-54562297D01*
X115055017Y-54562297D01*
X115055019Y-54562298D01*
X115283951Y-54600500D01*
X115283952Y-54600500D01*
X115516048Y-54600500D01*
X115516049Y-54600500D01*
X115744981Y-54562298D01*
X115964503Y-54486936D01*
X116168626Y-54376470D01*
X116351784Y-54233913D01*
X116508979Y-54063153D01*
X116635924Y-53868849D01*
X116729157Y-53656300D01*
X116786134Y-53431305D01*
X116786135Y-53431297D01*
X116805300Y-53200006D01*
X116805300Y-53199993D01*
X116786135Y-52968702D01*
X116786133Y-52968691D01*
X116729157Y-52743699D01*
X116635924Y-52531151D01*
X116508983Y-52336852D01*
X116508980Y-52336849D01*
X116508979Y-52336847D01*
X116351784Y-52166087D01*
X116351779Y-52166083D01*
X116351777Y-52166081D01*
X116168634Y-52023535D01*
X116168628Y-52023531D01*
X115964504Y-51913064D01*
X115964495Y-51913061D01*
X115744984Y-51837702D01*
X115573282Y-51809050D01*
X115516049Y-51799500D01*
X115283951Y-51799500D01*
X115238164Y-51807140D01*
X115055015Y-51837702D01*
X114835504Y-51913061D01*
X114835495Y-51913064D01*
X114631371Y-52023531D01*
X114631365Y-52023535D01*
X114448222Y-52166081D01*
X114448219Y-52166084D01*
X114291016Y-52336852D01*
X114164075Y-52531151D01*
X114070842Y-52743699D01*
X114013866Y-52968691D01*
X114013864Y-52968702D01*
X113994700Y-53199993D01*
X110100500Y-53199993D01*
X110100500Y-51429448D01*
X131919500Y-51429448D01*
X131919500Y-52610551D01*
X131947829Y-52789410D01*
X132003787Y-52961636D01*
X132003788Y-52961639D01*
X132086006Y-53122997D01*
X132192441Y-53269494D01*
X132192445Y-53269499D01*
X132320500Y-53397554D01*
X132320505Y-53397558D01*
X132448287Y-53490396D01*
X132467006Y-53503996D01*
X132572484Y-53557740D01*
X132628360Y-53586211D01*
X132628363Y-53586212D01*
X132714476Y-53614191D01*
X132800591Y-53642171D01*
X132883429Y-53655291D01*
X132979449Y-53670500D01*
X132979454Y-53670500D01*
X133160551Y-53670500D01*
X133247259Y-53656765D01*
X133339409Y-53642171D01*
X133511639Y-53586211D01*
X133672994Y-53503996D01*
X133819501Y-53397553D01*
X133947553Y-53269501D01*
X134053996Y-53122994D01*
X134136211Y-52961639D01*
X134192171Y-52789409D01*
X134206765Y-52697259D01*
X134220500Y-52610551D01*
X134220500Y-52153947D01*
X134240185Y-52086908D01*
X134292989Y-52041153D01*
X134362147Y-52031209D01*
X134376584Y-52034170D01*
X134437525Y-52050500D01*
X134437527Y-52050500D01*
X134582472Y-52050500D01*
X134582475Y-52050500D01*
X134722485Y-52012984D01*
X134848015Y-51940509D01*
X134950509Y-51838015D01*
X135022984Y-51712485D01*
X135060500Y-51572475D01*
X135060500Y-51427525D01*
X139739500Y-51427525D01*
X139739500Y-51572475D01*
X139777016Y-51712485D01*
X139777017Y-51712488D01*
X139849488Y-51838011D01*
X139849490Y-51838013D01*
X139849491Y-51838015D01*
X139951985Y-51940509D01*
X139951986Y-51940510D01*
X139951988Y-51940511D01*
X140077511Y-52012982D01*
X140077512Y-52012982D01*
X140077515Y-52012984D01*
X140217525Y-52050500D01*
X140217528Y-52050500D01*
X140362473Y-52050500D01*
X140362475Y-52050500D01*
X140423407Y-52034173D01*
X140493255Y-52035834D01*
X140551118Y-52074996D01*
X140578623Y-52139224D01*
X140579500Y-52153947D01*
X140579500Y-52610551D01*
X140607829Y-52789410D01*
X140663787Y-52961636D01*
X140663788Y-52961639D01*
X140746006Y-53122997D01*
X140852441Y-53269494D01*
X140852445Y-53269499D01*
X140980500Y-53397554D01*
X140980505Y-53397558D01*
X141108287Y-53490396D01*
X141127006Y-53503996D01*
X141232484Y-53557740D01*
X141288360Y-53586211D01*
X141288363Y-53586212D01*
X141374476Y-53614191D01*
X141460591Y-53642171D01*
X141543429Y-53655291D01*
X141639449Y-53670500D01*
X141639454Y-53670500D01*
X141820551Y-53670500D01*
X141907259Y-53656765D01*
X141999409Y-53642171D01*
X142171639Y-53586211D01*
X142332994Y-53503996D01*
X142479501Y-53397553D01*
X142607553Y-53269501D01*
X142713996Y-53122994D01*
X142796211Y-52961639D01*
X142852171Y-52789409D01*
X142866765Y-52697259D01*
X142880500Y-52610551D01*
X142880500Y-51429448D01*
X142858019Y-51287515D01*
X142852171Y-51250591D01*
X142823381Y-51161982D01*
X142796212Y-51078363D01*
X142796211Y-51078360D01*
X142760372Y-51008024D01*
X142713996Y-50917006D01*
X142659740Y-50842328D01*
X142607558Y-50770505D01*
X142607554Y-50770500D01*
X142479499Y-50642445D01*
X142479494Y-50642441D01*
X142332997Y-50536006D01*
X142332996Y-50536005D01*
X142332994Y-50536004D01*
X142281300Y-50509664D01*
X142171639Y-50453788D01*
X142171636Y-50453787D01*
X141999410Y-50397829D01*
X141820551Y-50369500D01*
X141820546Y-50369500D01*
X141639454Y-50369500D01*
X141639449Y-50369500D01*
X141460589Y-50397829D01*
X141288363Y-50453787D01*
X141288360Y-50453788D01*
X141127002Y-50536006D01*
X140980505Y-50642441D01*
X140980500Y-50642445D01*
X140852445Y-50770500D01*
X140852441Y-50770505D01*
X140746005Y-50917002D01*
X140722408Y-50963314D01*
X140674433Y-51014109D01*
X140606611Y-51030903D01*
X140549924Y-51014404D01*
X140502488Y-50987017D01*
X140502489Y-50987017D01*
X140491006Y-50983940D01*
X140362475Y-50949500D01*
X140217525Y-50949500D01*
X140088993Y-50983940D01*
X140077511Y-50987017D01*
X139951988Y-51059488D01*
X139951982Y-51059493D01*
X139849493Y-51161982D01*
X139849488Y-51161988D01*
X139777017Y-51287511D01*
X139777016Y-51287515D01*
X139739500Y-51427525D01*
X135060500Y-51427525D01*
X135022984Y-51287515D01*
X134950509Y-51161985D01*
X134848015Y-51059491D01*
X134848013Y-51059490D01*
X134848011Y-51059488D01*
X134722488Y-50987017D01*
X134722489Y-50987017D01*
X134711006Y-50983940D01*
X134582475Y-50949500D01*
X134437525Y-50949500D01*
X134297515Y-50987016D01*
X134297514Y-50987016D01*
X134297512Y-50987017D01*
X134250074Y-51014405D01*
X134182173Y-51030876D01*
X134116147Y-51008024D01*
X134077590Y-50963312D01*
X134053996Y-50917006D01*
X133999740Y-50842328D01*
X133947558Y-50770505D01*
X133947554Y-50770500D01*
X133819499Y-50642445D01*
X133819494Y-50642441D01*
X133672997Y-50536006D01*
X133672996Y-50536005D01*
X133672994Y-50536004D01*
X133621300Y-50509664D01*
X133511639Y-50453788D01*
X133511636Y-50453787D01*
X133339410Y-50397829D01*
X133160551Y-50369500D01*
X133160546Y-50369500D01*
X132979454Y-50369500D01*
X132979449Y-50369500D01*
X132800589Y-50397829D01*
X132628363Y-50453787D01*
X132628360Y-50453788D01*
X132467002Y-50536006D01*
X132320505Y-50642441D01*
X132320500Y-50642445D01*
X132192445Y-50770500D01*
X132192441Y-50770505D01*
X132086006Y-50917002D01*
X132003788Y-51078360D01*
X132003787Y-51078363D01*
X131947829Y-51250589D01*
X131919500Y-51429448D01*
X110100500Y-51429448D01*
X110100500Y-48752135D01*
X118999500Y-48752135D01*
X118999500Y-50647870D01*
X118999501Y-50647876D01*
X119005908Y-50707483D01*
X119056202Y-50842328D01*
X119056206Y-50842335D01*
X119142452Y-50957544D01*
X119142455Y-50957547D01*
X119257664Y-51043793D01*
X119257671Y-51043797D01*
X119392517Y-51094091D01*
X119392516Y-51094091D01*
X119399444Y-51094835D01*
X119452127Y-51100500D01*
X121347872Y-51100499D01*
X121407483Y-51094091D01*
X121542331Y-51043796D01*
X121657546Y-50957546D01*
X121743796Y-50842331D01*
X121794091Y-50707483D01*
X121800500Y-50647873D01*
X121800499Y-48752128D01*
X121794091Y-48692517D01*
X121782574Y-48661639D01*
X121743797Y-48557671D01*
X121743793Y-48557664D01*
X121657547Y-48442455D01*
X121657544Y-48442452D01*
X121542335Y-48356206D01*
X121542328Y-48356202D01*
X121407482Y-48305908D01*
X121407483Y-48305908D01*
X121347883Y-48299501D01*
X121347881Y-48299500D01*
X121347873Y-48299500D01*
X121347864Y-48299500D01*
X119452129Y-48299500D01*
X119452123Y-48299501D01*
X119392516Y-48305908D01*
X119257671Y-48356202D01*
X119257664Y-48356206D01*
X119142455Y-48442452D01*
X119142452Y-48442455D01*
X119056206Y-48557664D01*
X119056202Y-48557671D01*
X119005908Y-48692517D01*
X119001974Y-48729115D01*
X118999501Y-48752123D01*
X118999500Y-48752135D01*
X110100500Y-48752135D01*
X110100500Y-46424500D01*
X110120185Y-46357461D01*
X110172989Y-46311706D01*
X110224500Y-46300500D01*
X132271877Y-46300500D01*
X132338916Y-46320185D01*
G37*
%TD.AperFunction*%
%TD*%
%TA.AperFunction,Conductor*%
%TO.N,GNDPWR*%
G36*
X117338744Y-138566385D02*
G01*
X117352756Y-138568496D01*
X117422889Y-138579068D01*
X117422889Y-138579067D01*
X117449053Y-138583011D01*
X117471382Y-138586376D01*
X117471383Y-138586377D01*
X117497471Y-138590310D01*
X117515536Y-138594433D01*
X117668927Y-138641748D01*
X117686178Y-138648519D01*
X117830795Y-138718162D01*
X117846845Y-138727428D01*
X117979484Y-138817859D01*
X117993970Y-138829411D01*
X118111642Y-138938594D01*
X118124244Y-138952176D01*
X118224328Y-139077676D01*
X118234768Y-139092988D01*
X118260741Y-139137977D01*
X118315031Y-139232011D01*
X118323071Y-139248707D01*
X118381715Y-139398127D01*
X118387178Y-139415837D01*
X118422897Y-139572332D01*
X118425659Y-139590658D01*
X118437655Y-139750731D01*
X118437655Y-139769265D01*
X118425659Y-139929340D01*
X118422897Y-139947666D01*
X118387178Y-140104161D01*
X118381715Y-140121871D01*
X118323071Y-140271291D01*
X118315031Y-140287987D01*
X118234769Y-140427008D01*
X118224328Y-140442322D01*
X118124244Y-140567822D01*
X118111638Y-140581408D01*
X117993974Y-140690584D01*
X117979485Y-140702139D01*
X117846853Y-140792566D01*
X117830803Y-140801832D01*
X117686176Y-140871481D01*
X117668923Y-140878252D01*
X117515538Y-140925564D01*
X117497472Y-140929688D01*
X117358745Y-140950599D01*
X117338738Y-140953615D01*
X117320257Y-140955000D01*
X117159743Y-140955000D01*
X117141261Y-140953615D01*
X117117566Y-140950043D01*
X116982526Y-140929688D01*
X116964460Y-140925564D01*
X116811079Y-140878253D01*
X116793827Y-140871482D01*
X116726251Y-140838939D01*
X116726195Y-140838913D01*
X116649198Y-140801833D01*
X116633149Y-140792567D01*
X116500514Y-140702139D01*
X116486024Y-140690584D01*
X116368355Y-140581403D01*
X116355754Y-140567822D01*
X116255670Y-140442322D01*
X116245232Y-140427013D01*
X116164966Y-140287985D01*
X116156927Y-140271291D01*
X116098283Y-140121871D01*
X116098280Y-140121862D01*
X116092820Y-140104161D01*
X116057099Y-139947655D01*
X116054338Y-139929335D01*
X116042343Y-139769264D01*
X116042343Y-139750732D01*
X116054339Y-139590652D01*
X116057098Y-139572342D01*
X116092820Y-139415832D01*
X116098276Y-139398143D01*
X116156931Y-139248695D01*
X116164967Y-139232009D01*
X116245232Y-139092986D01*
X116255665Y-139077683D01*
X116355758Y-138952171D01*
X116368356Y-138938594D01*
X116486029Y-138829410D01*
X116500515Y-138817858D01*
X116633161Y-138727421D01*
X116649194Y-138718165D01*
X116793816Y-138648518D01*
X116811054Y-138641753D01*
X116964472Y-138594430D01*
X116982522Y-138590310D01*
X117001756Y-138587411D01*
X117001760Y-138587411D01*
X117030959Y-138583010D01*
X117074337Y-138576471D01*
X117141256Y-138566385D01*
X117159738Y-138565000D01*
X117320263Y-138565000D01*
X117338744Y-138566385D01*
G37*
%TD.AperFunction*%
%TA.AperFunction,Conductor*%
G36*
X127498744Y-138566385D02*
G01*
X127512756Y-138568496D01*
X127582889Y-138579068D01*
X127582889Y-138579067D01*
X127609053Y-138583011D01*
X127631382Y-138586376D01*
X127631383Y-138586377D01*
X127657471Y-138590310D01*
X127675536Y-138594433D01*
X127828927Y-138641748D01*
X127846178Y-138648519D01*
X127990795Y-138718162D01*
X128006845Y-138727428D01*
X128139484Y-138817859D01*
X128153970Y-138829411D01*
X128271642Y-138938594D01*
X128284244Y-138952176D01*
X128384328Y-139077676D01*
X128394768Y-139092988D01*
X128420741Y-139137977D01*
X128475031Y-139232011D01*
X128483071Y-139248707D01*
X128541715Y-139398127D01*
X128547178Y-139415837D01*
X128582897Y-139572332D01*
X128585659Y-139590658D01*
X128597655Y-139750732D01*
X128597655Y-139769266D01*
X128585659Y-139929340D01*
X128582897Y-139947666D01*
X128547178Y-140104161D01*
X128541715Y-140121871D01*
X128483071Y-140271291D01*
X128475031Y-140287987D01*
X128394769Y-140427008D01*
X128384328Y-140442322D01*
X128284244Y-140567822D01*
X128271638Y-140581408D01*
X128153974Y-140690584D01*
X128139485Y-140702139D01*
X128006853Y-140792566D01*
X127990803Y-140801832D01*
X127846176Y-140871481D01*
X127828923Y-140878252D01*
X127675538Y-140925564D01*
X127657472Y-140929688D01*
X127518745Y-140950599D01*
X127498738Y-140953615D01*
X127480257Y-140955000D01*
X127319743Y-140955000D01*
X127301261Y-140953615D01*
X127277566Y-140950043D01*
X127142526Y-140929688D01*
X127124460Y-140925564D01*
X126971079Y-140878253D01*
X126953827Y-140871482D01*
X126886251Y-140838939D01*
X126886195Y-140838913D01*
X126809198Y-140801833D01*
X126793149Y-140792567D01*
X126660514Y-140702139D01*
X126646024Y-140690584D01*
X126528355Y-140581403D01*
X126515754Y-140567822D01*
X126415670Y-140442322D01*
X126405232Y-140427013D01*
X126324966Y-140287985D01*
X126316927Y-140271291D01*
X126258283Y-140121871D01*
X126258280Y-140121862D01*
X126252820Y-140104161D01*
X126217099Y-139947655D01*
X126214338Y-139929335D01*
X126202343Y-139769264D01*
X126202343Y-139750732D01*
X126214339Y-139590652D01*
X126217098Y-139572342D01*
X126252820Y-139415832D01*
X126258276Y-139398143D01*
X126316931Y-139248695D01*
X126324967Y-139232009D01*
X126405232Y-139092986D01*
X126415665Y-139077683D01*
X126515758Y-138952171D01*
X126528356Y-138938594D01*
X126646029Y-138829410D01*
X126660515Y-138817858D01*
X126793161Y-138727421D01*
X126809194Y-138718165D01*
X126953816Y-138648518D01*
X126971054Y-138641753D01*
X127124472Y-138594430D01*
X127142522Y-138590310D01*
X127161756Y-138587411D01*
X127161760Y-138587411D01*
X127190959Y-138583010D01*
X127234337Y-138576471D01*
X127301256Y-138566385D01*
X127319738Y-138565000D01*
X127480263Y-138565000D01*
X127498744Y-138566385D01*
G37*
%TD.AperFunction*%
%TA.AperFunction,Conductor*%
G36*
X169052793Y-73819685D02*
G01*
X169098548Y-73872489D01*
X169108492Y-73941647D01*
X169079467Y-74005203D01*
X169073435Y-74011681D01*
X166078892Y-77006223D01*
X166078855Y-77006262D01*
X166042728Y-77046480D01*
X166042718Y-77046492D01*
X166026076Y-77067143D01*
X165994433Y-77111025D01*
X165934663Y-77241899D01*
X165914976Y-77308944D01*
X165894500Y-77451363D01*
X165894500Y-121551688D01*
X165874815Y-121618727D01*
X165822011Y-121664482D01*
X165752853Y-121674426D01*
X165729546Y-121668730D01*
X165689257Y-121654632D01*
X165689249Y-121654630D01*
X165510004Y-121634435D01*
X165509996Y-121634435D01*
X165330750Y-121654630D01*
X165330745Y-121654631D01*
X165160476Y-121714211D01*
X165007737Y-121810184D01*
X164880184Y-121937737D01*
X164784211Y-122090476D01*
X164724631Y-122260745D01*
X164724630Y-122260750D01*
X164704435Y-122439996D01*
X164704435Y-122440003D01*
X164724630Y-122619249D01*
X164724631Y-122619254D01*
X164784211Y-122789523D01*
X164856416Y-122904435D01*
X164880184Y-122942262D01*
X165007738Y-123069816D01*
X165024239Y-123080184D01*
X165125498Y-123143810D01*
X165160478Y-123165789D01*
X165290455Y-123211270D01*
X165330745Y-123225368D01*
X165330750Y-123225369D01*
X165509996Y-123245565D01*
X165510000Y-123245565D01*
X165510004Y-123245565D01*
X165689249Y-123225369D01*
X165689250Y-123225368D01*
X165689255Y-123225368D01*
X165729545Y-123211269D01*
X165799322Y-123207707D01*
X165859950Y-123242435D01*
X165892178Y-123304428D01*
X165894500Y-123328311D01*
X165894500Y-124091688D01*
X165874815Y-124158727D01*
X165822011Y-124204482D01*
X165752853Y-124214426D01*
X165729546Y-124208730D01*
X165689257Y-124194632D01*
X165689249Y-124194630D01*
X165510004Y-124174435D01*
X165509996Y-124174435D01*
X165330750Y-124194630D01*
X165330745Y-124194631D01*
X165160476Y-124254211D01*
X165007737Y-124350184D01*
X164880184Y-124477737D01*
X164784211Y-124630476D01*
X164724631Y-124800745D01*
X164724630Y-124800750D01*
X164704435Y-124979996D01*
X164704435Y-124980003D01*
X164724630Y-125159249D01*
X164724631Y-125159254D01*
X164784211Y-125329523D01*
X164880184Y-125482262D01*
X165007738Y-125609816D01*
X165098080Y-125666582D01*
X165125498Y-125683810D01*
X165160478Y-125705789D01*
X165280273Y-125747707D01*
X165330745Y-125765368D01*
X165330750Y-125765369D01*
X165509996Y-125785565D01*
X165510000Y-125785565D01*
X165510004Y-125785565D01*
X165689249Y-125765369D01*
X165689250Y-125765368D01*
X165689255Y-125765368D01*
X165729545Y-125751269D01*
X165799322Y-125747707D01*
X165859950Y-125782435D01*
X165892178Y-125844428D01*
X165894500Y-125868311D01*
X165894500Y-126631688D01*
X165874815Y-126698727D01*
X165822011Y-126744482D01*
X165752853Y-126754426D01*
X165729546Y-126748730D01*
X165689257Y-126734632D01*
X165689249Y-126734630D01*
X165510004Y-126714435D01*
X165509996Y-126714435D01*
X165330750Y-126734630D01*
X165330745Y-126734631D01*
X165160476Y-126794211D01*
X165007737Y-126890184D01*
X164880184Y-127017737D01*
X164784211Y-127170476D01*
X164724631Y-127340745D01*
X164724630Y-127340750D01*
X164704435Y-127519996D01*
X164704435Y-127520003D01*
X164724630Y-127699249D01*
X164724631Y-127699254D01*
X164784211Y-127869523D01*
X164824412Y-127933502D01*
X164880184Y-128022262D01*
X165007738Y-128149816D01*
X165098080Y-128206582D01*
X165125498Y-128223810D01*
X165160478Y-128245789D01*
X165280273Y-128287707D01*
X165330745Y-128305368D01*
X165330750Y-128305369D01*
X165509996Y-128325565D01*
X165510000Y-128325565D01*
X165510004Y-128325565D01*
X165689249Y-128305369D01*
X165689250Y-128305368D01*
X165689255Y-128305368D01*
X165729545Y-128291269D01*
X165799322Y-128287707D01*
X165859950Y-128322435D01*
X165892178Y-128384428D01*
X165894500Y-128408311D01*
X165894500Y-129171688D01*
X165874815Y-129238727D01*
X165822011Y-129284482D01*
X165752853Y-129294426D01*
X165729546Y-129288730D01*
X165689257Y-129274632D01*
X165689249Y-129274630D01*
X165510004Y-129254435D01*
X165509996Y-129254435D01*
X165330750Y-129274630D01*
X165330745Y-129274631D01*
X165160476Y-129334211D01*
X165007737Y-129430184D01*
X164880184Y-129557737D01*
X164784211Y-129710476D01*
X164724631Y-129880745D01*
X164724630Y-129880750D01*
X164704435Y-130059996D01*
X164704435Y-130060003D01*
X164724630Y-130239249D01*
X164724631Y-130239254D01*
X164784211Y-130409523D01*
X164880184Y-130562262D01*
X165007738Y-130689816D01*
X165098080Y-130746582D01*
X165125498Y-130763810D01*
X165160478Y-130785789D01*
X165280273Y-130827707D01*
X165330745Y-130845368D01*
X165330750Y-130845369D01*
X165509996Y-130865565D01*
X165510000Y-130865565D01*
X165510004Y-130865565D01*
X165689249Y-130845369D01*
X165689250Y-130845368D01*
X165689255Y-130845368D01*
X165729545Y-130831269D01*
X165799322Y-130827707D01*
X165859950Y-130862435D01*
X165892178Y-130924428D01*
X165894500Y-130948311D01*
X165894500Y-131711688D01*
X165874815Y-131778727D01*
X165822011Y-131824482D01*
X165752853Y-131834426D01*
X165729546Y-131828730D01*
X165689257Y-131814632D01*
X165689249Y-131814630D01*
X165510004Y-131794435D01*
X165509996Y-131794435D01*
X165330750Y-131814630D01*
X165330745Y-131814631D01*
X165160476Y-131874211D01*
X165007737Y-131970184D01*
X164962680Y-132015241D01*
X164901357Y-132048725D01*
X164831665Y-132043740D01*
X164787320Y-132015241D01*
X164742263Y-131970185D01*
X164742262Y-131970184D01*
X164589523Y-131874211D01*
X164419254Y-131814631D01*
X164419249Y-131814630D01*
X164240004Y-131794435D01*
X164239996Y-131794435D01*
X164060750Y-131814630D01*
X164060745Y-131814631D01*
X163890476Y-131874211D01*
X163737737Y-131970184D01*
X163692680Y-132015241D01*
X163631357Y-132048725D01*
X163561665Y-132043740D01*
X163517320Y-132015241D01*
X163472263Y-131970185D01*
X163472262Y-131970184D01*
X163319523Y-131874211D01*
X163149254Y-131814631D01*
X163149249Y-131814630D01*
X162970004Y-131794435D01*
X162969996Y-131794435D01*
X162790750Y-131814630D01*
X162790745Y-131814631D01*
X162620476Y-131874211D01*
X162467737Y-131970184D01*
X162422680Y-132015241D01*
X162361357Y-132048725D01*
X162291665Y-132043740D01*
X162247320Y-132015241D01*
X162202263Y-131970185D01*
X162202262Y-131970184D01*
X162049523Y-131874211D01*
X161879254Y-131814631D01*
X161879249Y-131814630D01*
X161700004Y-131794435D01*
X161699996Y-131794435D01*
X161520750Y-131814630D01*
X161520745Y-131814631D01*
X161350476Y-131874211D01*
X161197737Y-131970184D01*
X161152680Y-132015241D01*
X161091357Y-132048725D01*
X161021665Y-132043740D01*
X160977320Y-132015241D01*
X160932263Y-131970185D01*
X160932262Y-131970184D01*
X160779523Y-131874211D01*
X160609254Y-131814631D01*
X160609249Y-131814630D01*
X160430004Y-131794435D01*
X160429996Y-131794435D01*
X160250750Y-131814630D01*
X160250745Y-131814631D01*
X160080476Y-131874211D01*
X159927737Y-131970184D01*
X159800184Y-132097737D01*
X159704211Y-132250476D01*
X159644631Y-132420745D01*
X159644630Y-132420750D01*
X159624435Y-132599996D01*
X159624435Y-132600003D01*
X159644630Y-132779249D01*
X159644631Y-132779254D01*
X159704211Y-132949523D01*
X159800184Y-133102262D01*
X159800185Y-133102263D01*
X159845241Y-133147320D01*
X159878725Y-133208643D01*
X159873740Y-133278335D01*
X159845241Y-133322680D01*
X159800184Y-133367737D01*
X159704211Y-133520476D01*
X159644631Y-133690745D01*
X159644630Y-133690750D01*
X159624435Y-133869996D01*
X159624435Y-133870003D01*
X159644630Y-134049249D01*
X159644631Y-134049254D01*
X159704211Y-134219523D01*
X159800184Y-134372262D01*
X159800185Y-134372263D01*
X159845241Y-134417320D01*
X159878725Y-134478643D01*
X159873740Y-134548335D01*
X159845241Y-134592680D01*
X159800184Y-134637737D01*
X159704211Y-134790476D01*
X159644631Y-134960745D01*
X159644630Y-134960750D01*
X159624435Y-135139996D01*
X159624435Y-135140003D01*
X159644630Y-135319249D01*
X159644631Y-135319254D01*
X159704211Y-135489523D01*
X159800184Y-135642262D01*
X159800185Y-135642263D01*
X159845241Y-135687320D01*
X159878725Y-135748643D01*
X159873740Y-135818335D01*
X159845241Y-135862680D01*
X159800184Y-135907737D01*
X159704211Y-136060476D01*
X159644631Y-136230745D01*
X159644630Y-136230750D01*
X159624435Y-136409996D01*
X159624435Y-136410003D01*
X159644630Y-136589249D01*
X159644631Y-136589254D01*
X159704211Y-136759523D01*
X159800184Y-136912262D01*
X159800185Y-136912263D01*
X159845241Y-136957320D01*
X159878725Y-137018643D01*
X159873740Y-137088335D01*
X159845241Y-137132680D01*
X159800184Y-137177737D01*
X159704211Y-137330476D01*
X159644631Y-137500745D01*
X159644630Y-137500750D01*
X159624435Y-137679996D01*
X159624435Y-137680003D01*
X159633067Y-137756617D01*
X159621012Y-137825439D01*
X159573663Y-137876818D01*
X159509847Y-137894500D01*
X158239500Y-137894500D01*
X158172461Y-137874815D01*
X158126706Y-137822011D01*
X158115500Y-137770500D01*
X158115500Y-132164010D01*
X158115500Y-132164000D01*
X158103947Y-132056544D01*
X158092741Y-132005033D01*
X158092637Y-132004722D01*
X158058616Y-131902502D01*
X158058613Y-131902496D01*
X158040435Y-131874211D01*
X157980825Y-131781457D01*
X157980820Y-131781451D01*
X157935076Y-131728659D01*
X157935072Y-131728656D01*
X157935070Y-131728653D01*
X157826336Y-131634433D01*
X157826333Y-131634431D01*
X157826331Y-131634430D01*
X157695465Y-131574664D01*
X157695460Y-131574662D01*
X157695459Y-131574662D01*
X157628420Y-131554977D01*
X157628422Y-131554977D01*
X157628417Y-131554976D01*
X157580944Y-131548150D01*
X157486000Y-131534500D01*
X157485998Y-131534500D01*
X147509152Y-131534500D01*
X147442113Y-131514815D01*
X147409885Y-131484811D01*
X147407347Y-131481420D01*
X147321123Y-131366239D01*
X147321118Y-131366234D01*
X147321113Y-131366228D01*
X146014881Y-130059996D01*
X162164435Y-130059996D01*
X162164435Y-130060003D01*
X162184630Y-130239249D01*
X162184631Y-130239254D01*
X162244211Y-130409523D01*
X162340184Y-130562262D01*
X162467738Y-130689816D01*
X162558080Y-130746582D01*
X162585498Y-130763810D01*
X162620478Y-130785789D01*
X162740273Y-130827707D01*
X162790745Y-130845368D01*
X162790750Y-130845369D01*
X162969996Y-130865565D01*
X162970000Y-130865565D01*
X162970004Y-130865565D01*
X163149249Y-130845369D01*
X163149252Y-130845368D01*
X163149255Y-130845368D01*
X163319522Y-130785789D01*
X163472262Y-130689816D01*
X163599816Y-130562262D01*
X163695789Y-130409522D01*
X163755368Y-130239255D01*
X163775565Y-130060000D01*
X163755368Y-129880745D01*
X163695789Y-129710478D01*
X163599816Y-129557738D01*
X163472262Y-129430184D01*
X163319523Y-129334211D01*
X163149254Y-129274631D01*
X163149249Y-129274630D01*
X162970004Y-129254435D01*
X162969996Y-129254435D01*
X162790750Y-129274630D01*
X162790745Y-129274631D01*
X162620476Y-129334211D01*
X162467737Y-129430184D01*
X162340184Y-129557737D01*
X162244211Y-129710476D01*
X162184631Y-129880745D01*
X162184630Y-129880750D01*
X162164435Y-130059996D01*
X146014881Y-130059996D01*
X143953382Y-127998498D01*
X143873565Y-127933502D01*
X143831575Y-127905907D01*
X143740232Y-127858423D01*
X143600302Y-127824979D01*
X143600296Y-127824978D01*
X143600295Y-127824978D01*
X143593601Y-127824361D01*
X143549062Y-127820261D01*
X143484110Y-127794513D01*
X143443389Y-127737736D01*
X143437211Y-127682899D01*
X143455565Y-127520002D01*
X143455565Y-127519996D01*
X159624435Y-127519996D01*
X159624435Y-127520003D01*
X159644630Y-127699249D01*
X159644631Y-127699254D01*
X159704211Y-127869523D01*
X159744412Y-127933502D01*
X159800184Y-128022262D01*
X159927738Y-128149816D01*
X160018080Y-128206582D01*
X160045498Y-128223810D01*
X160080478Y-128245789D01*
X160200273Y-128287707D01*
X160250745Y-128305368D01*
X160250750Y-128305369D01*
X160429996Y-128325565D01*
X160430000Y-128325565D01*
X160430004Y-128325565D01*
X160609249Y-128305369D01*
X160609252Y-128305368D01*
X160609255Y-128305368D01*
X160779522Y-128245789D01*
X160932262Y-128149816D01*
X161059816Y-128022262D01*
X161155789Y-127869522D01*
X161215368Y-127699255D01*
X161235565Y-127520000D01*
X161235565Y-127519996D01*
X162164435Y-127519996D01*
X162164435Y-127520003D01*
X162184630Y-127699249D01*
X162184631Y-127699254D01*
X162244211Y-127869523D01*
X162284412Y-127933502D01*
X162340184Y-128022262D01*
X162467738Y-128149816D01*
X162558080Y-128206582D01*
X162585498Y-128223810D01*
X162620478Y-128245789D01*
X162740273Y-128287707D01*
X162790745Y-128305368D01*
X162790750Y-128305369D01*
X162969996Y-128325565D01*
X162970000Y-128325565D01*
X162970004Y-128325565D01*
X163149249Y-128305369D01*
X163149252Y-128305368D01*
X163149255Y-128305368D01*
X163319522Y-128245789D01*
X163472262Y-128149816D01*
X163599816Y-128022262D01*
X163695789Y-127869522D01*
X163755368Y-127699255D01*
X163775565Y-127520000D01*
X163755368Y-127340745D01*
X163695789Y-127170478D01*
X163599816Y-127017738D01*
X163472262Y-126890184D01*
X163319523Y-126794211D01*
X163149254Y-126734631D01*
X163149249Y-126734630D01*
X162970004Y-126714435D01*
X162969996Y-126714435D01*
X162790750Y-126734630D01*
X162790745Y-126734631D01*
X162620476Y-126794211D01*
X162467737Y-126890184D01*
X162340184Y-127017737D01*
X162244211Y-127170476D01*
X162184631Y-127340745D01*
X162184630Y-127340750D01*
X162164435Y-127519996D01*
X161235565Y-127519996D01*
X161215368Y-127340745D01*
X161155789Y-127170478D01*
X161059816Y-127017738D01*
X160932262Y-126890184D01*
X160779523Y-126794211D01*
X160609254Y-126734631D01*
X160609249Y-126734630D01*
X160430004Y-126714435D01*
X160429996Y-126714435D01*
X160250750Y-126734630D01*
X160250745Y-126734631D01*
X160080476Y-126794211D01*
X159927737Y-126890184D01*
X159800184Y-127017737D01*
X159704211Y-127170476D01*
X159644631Y-127340745D01*
X159644630Y-127340750D01*
X159624435Y-127519996D01*
X143455565Y-127519996D01*
X143435369Y-127340750D01*
X143435368Y-127340745D01*
X143375788Y-127170476D01*
X143279815Y-127017737D01*
X143152262Y-126890184D01*
X142999523Y-126794211D01*
X142829254Y-126734631D01*
X142829249Y-126734630D01*
X142650004Y-126714435D01*
X142645891Y-126714435D01*
X142643330Y-126713683D01*
X142643081Y-126713655D01*
X142643085Y-126713611D01*
X142578852Y-126694750D01*
X142533097Y-126641946D01*
X142529711Y-126633773D01*
X142528431Y-126630343D01*
X142528428Y-126630336D01*
X142494949Y-126569024D01*
X142494948Y-126569023D01*
X142494946Y-126569019D01*
X142408722Y-126453838D01*
X142408717Y-126453833D01*
X142408712Y-126453827D01*
X139664880Y-123709996D01*
X141844435Y-123709996D01*
X141844435Y-123710003D01*
X141864630Y-123889249D01*
X141864631Y-123889254D01*
X141924211Y-124059523D01*
X142020184Y-124212262D01*
X142020185Y-124212263D01*
X142065241Y-124257320D01*
X142098725Y-124318643D01*
X142093740Y-124388335D01*
X142065241Y-124432680D01*
X142020184Y-124477737D01*
X141924211Y-124630476D01*
X141864631Y-124800745D01*
X141864630Y-124800750D01*
X141844435Y-124979996D01*
X141844435Y-124980003D01*
X141864630Y-125159249D01*
X141864631Y-125159254D01*
X141924211Y-125329523D01*
X142020184Y-125482262D01*
X142147738Y-125609816D01*
X142238080Y-125666582D01*
X142265498Y-125683810D01*
X142300478Y-125705789D01*
X142420273Y-125747707D01*
X142470745Y-125765368D01*
X142470750Y-125765369D01*
X142649996Y-125785565D01*
X142650000Y-125785565D01*
X142650004Y-125785565D01*
X142829249Y-125765369D01*
X142829252Y-125765368D01*
X142829255Y-125765368D01*
X142999522Y-125705789D01*
X143152262Y-125609816D01*
X143279816Y-125482262D01*
X143375789Y-125329522D01*
X143435368Y-125159255D01*
X143455565Y-124980000D01*
X143455565Y-124979996D01*
X159624435Y-124979996D01*
X159624435Y-124980003D01*
X159644630Y-125159249D01*
X159644631Y-125159254D01*
X159704211Y-125329523D01*
X159800184Y-125482262D01*
X159927738Y-125609816D01*
X160018080Y-125666582D01*
X160045498Y-125683810D01*
X160080478Y-125705789D01*
X160200273Y-125747707D01*
X160250745Y-125765368D01*
X160250750Y-125765369D01*
X160429996Y-125785565D01*
X160430000Y-125785565D01*
X160430004Y-125785565D01*
X160609249Y-125765369D01*
X160609252Y-125765368D01*
X160609255Y-125765368D01*
X160779522Y-125705789D01*
X160932262Y-125609816D01*
X161059816Y-125482262D01*
X161155789Y-125329522D01*
X161215368Y-125159255D01*
X161235565Y-124980000D01*
X161235565Y-124979996D01*
X162164435Y-124979996D01*
X162164435Y-124980003D01*
X162184630Y-125159249D01*
X162184631Y-125159254D01*
X162244211Y-125329523D01*
X162340184Y-125482262D01*
X162467738Y-125609816D01*
X162558080Y-125666582D01*
X162585498Y-125683810D01*
X162620478Y-125705789D01*
X162740273Y-125747707D01*
X162790745Y-125765368D01*
X162790750Y-125765369D01*
X162969996Y-125785565D01*
X162970000Y-125785565D01*
X162970004Y-125785565D01*
X163149249Y-125765369D01*
X163149252Y-125765368D01*
X163149255Y-125765368D01*
X163319522Y-125705789D01*
X163472262Y-125609816D01*
X163599816Y-125482262D01*
X163695789Y-125329522D01*
X163755368Y-125159255D01*
X163775565Y-124980000D01*
X163755368Y-124800745D01*
X163695789Y-124630478D01*
X163599816Y-124477738D01*
X163472262Y-124350184D01*
X163464012Y-124345000D01*
X163319523Y-124254211D01*
X163149254Y-124194631D01*
X163149249Y-124194630D01*
X162970004Y-124174435D01*
X162969996Y-124174435D01*
X162790750Y-124194630D01*
X162790745Y-124194631D01*
X162620476Y-124254211D01*
X162467737Y-124350184D01*
X162340184Y-124477737D01*
X162244211Y-124630476D01*
X162184631Y-124800745D01*
X162184630Y-124800750D01*
X162164435Y-124979996D01*
X161235565Y-124979996D01*
X161215368Y-124800745D01*
X161155789Y-124630478D01*
X161059816Y-124477738D01*
X160932262Y-124350184D01*
X160924012Y-124345000D01*
X160779523Y-124254211D01*
X160609254Y-124194631D01*
X160609249Y-124194630D01*
X160430004Y-124174435D01*
X160429996Y-124174435D01*
X160250750Y-124194630D01*
X160250745Y-124194631D01*
X160080476Y-124254211D01*
X159927737Y-124350184D01*
X159800184Y-124477737D01*
X159704211Y-124630476D01*
X159644631Y-124800745D01*
X159644630Y-124800750D01*
X159624435Y-124979996D01*
X143455565Y-124979996D01*
X143435368Y-124800745D01*
X143375789Y-124630478D01*
X143279816Y-124477738D01*
X143234758Y-124432680D01*
X143201274Y-124371358D01*
X143206258Y-124301666D01*
X143234759Y-124257319D01*
X143237867Y-124254211D01*
X143279816Y-124212262D01*
X143375789Y-124059522D01*
X143435368Y-123889255D01*
X143455565Y-123710000D01*
X143435368Y-123530745D01*
X143375789Y-123360478D01*
X143279816Y-123207738D01*
X143152262Y-123080184D01*
X142999523Y-122984211D01*
X142829254Y-122924631D01*
X142829249Y-122924630D01*
X142650004Y-122904435D01*
X142649996Y-122904435D01*
X142470750Y-122924630D01*
X142470745Y-122924631D01*
X142300476Y-122984211D01*
X142147737Y-123080184D01*
X142020184Y-123207737D01*
X141924211Y-123360476D01*
X141864631Y-123530745D01*
X141864630Y-123530750D01*
X141844435Y-123709996D01*
X139664880Y-123709996D01*
X138394880Y-122439996D01*
X159624435Y-122439996D01*
X159624435Y-122440003D01*
X159644630Y-122619249D01*
X159644631Y-122619254D01*
X159704211Y-122789523D01*
X159776416Y-122904435D01*
X159800184Y-122942262D01*
X159927738Y-123069816D01*
X159944239Y-123080184D01*
X160045498Y-123143810D01*
X160080478Y-123165789D01*
X160210455Y-123211270D01*
X160250745Y-123225368D01*
X160250750Y-123225369D01*
X160429996Y-123245565D01*
X160430000Y-123245565D01*
X160430004Y-123245565D01*
X160609249Y-123225369D01*
X160609252Y-123225368D01*
X160609255Y-123225368D01*
X160779522Y-123165789D01*
X160932262Y-123069816D01*
X161059816Y-122942262D01*
X161155789Y-122789522D01*
X161215368Y-122619255D01*
X161235565Y-122440000D01*
X161235565Y-122439996D01*
X162164435Y-122439996D01*
X162164435Y-122440003D01*
X162184630Y-122619249D01*
X162184631Y-122619254D01*
X162244211Y-122789523D01*
X162316416Y-122904435D01*
X162340184Y-122942262D01*
X162467738Y-123069816D01*
X162484239Y-123080184D01*
X162585498Y-123143810D01*
X162620478Y-123165789D01*
X162750455Y-123211270D01*
X162790745Y-123225368D01*
X162790750Y-123225369D01*
X162969996Y-123245565D01*
X162970000Y-123245565D01*
X162970004Y-123245565D01*
X163149249Y-123225369D01*
X163149252Y-123225368D01*
X163149255Y-123225368D01*
X163319522Y-123165789D01*
X163472262Y-123069816D01*
X163599816Y-122942262D01*
X163695789Y-122789522D01*
X163755368Y-122619255D01*
X163775565Y-122440000D01*
X163755368Y-122260745D01*
X163695789Y-122090478D01*
X163599816Y-121937738D01*
X163472262Y-121810184D01*
X163319523Y-121714211D01*
X163149254Y-121654631D01*
X163149249Y-121654630D01*
X162970004Y-121634435D01*
X162969996Y-121634435D01*
X162790750Y-121654630D01*
X162790745Y-121654631D01*
X162620476Y-121714211D01*
X162467737Y-121810184D01*
X162340184Y-121937737D01*
X162244211Y-122090476D01*
X162184631Y-122260745D01*
X162184630Y-122260750D01*
X162164435Y-122439996D01*
X161235565Y-122439996D01*
X161215368Y-122260745D01*
X161155789Y-122090478D01*
X161059816Y-121937738D01*
X160932262Y-121810184D01*
X160779523Y-121714211D01*
X160609254Y-121654631D01*
X160609249Y-121654630D01*
X160430004Y-121634435D01*
X160429996Y-121634435D01*
X160250750Y-121654630D01*
X160250745Y-121654631D01*
X160080476Y-121714211D01*
X159927737Y-121810184D01*
X159800184Y-121937737D01*
X159704211Y-122090476D01*
X159644631Y-122260745D01*
X159644630Y-122260750D01*
X159624435Y-122439996D01*
X138394880Y-122439996D01*
X137272065Y-121317181D01*
X137238580Y-121255858D01*
X137243564Y-121186166D01*
X137285436Y-121130233D01*
X137350900Y-121105816D01*
X137359746Y-121105500D01*
X146074625Y-121105500D01*
X146109561Y-121110523D01*
X146158942Y-121125023D01*
X146158946Y-121125024D01*
X146301362Y-121145500D01*
X146301365Y-121145500D01*
X157685990Y-121145500D01*
X157686000Y-121145500D01*
X157793456Y-121133947D01*
X157844967Y-121122741D01*
X157895818Y-121105816D01*
X157947497Y-121088616D01*
X157947501Y-121088613D01*
X157947504Y-121088613D01*
X158068543Y-121010825D01*
X158121347Y-120965070D01*
X158215567Y-120856336D01*
X158275338Y-120725459D01*
X158295023Y-120658420D01*
X158295024Y-120658416D01*
X158315500Y-120516000D01*
X158315500Y-114819996D01*
X159624435Y-114819996D01*
X159624435Y-114820003D01*
X159644630Y-114999249D01*
X159644631Y-114999254D01*
X159704211Y-115169523D01*
X159800184Y-115322262D01*
X159800185Y-115322263D01*
X159845241Y-115367320D01*
X159878725Y-115428643D01*
X159873740Y-115498335D01*
X159845241Y-115542680D01*
X159800184Y-115587737D01*
X159704211Y-115740476D01*
X159644631Y-115910745D01*
X159644630Y-115910750D01*
X159624435Y-116089996D01*
X159624435Y-116090003D01*
X159644630Y-116269249D01*
X159644631Y-116269254D01*
X159704211Y-116439523D01*
X159800184Y-116592262D01*
X159800185Y-116592263D01*
X159845241Y-116637320D01*
X159878725Y-116698643D01*
X159873740Y-116768335D01*
X159845241Y-116812680D01*
X159800184Y-116857737D01*
X159704211Y-117010476D01*
X159644631Y-117180745D01*
X159644630Y-117180750D01*
X159624435Y-117359996D01*
X159624435Y-117360003D01*
X159644630Y-117539249D01*
X159644631Y-117539254D01*
X159704211Y-117709523D01*
X159800184Y-117862262D01*
X159800185Y-117862263D01*
X159845241Y-117907320D01*
X159878725Y-117968643D01*
X159873740Y-118038335D01*
X159845241Y-118082680D01*
X159800184Y-118127737D01*
X159704211Y-118280476D01*
X159644631Y-118450745D01*
X159644630Y-118450750D01*
X159624435Y-118629996D01*
X159624435Y-118630003D01*
X159644630Y-118809249D01*
X159644631Y-118809254D01*
X159704211Y-118979523D01*
X159800184Y-119132262D01*
X159800185Y-119132263D01*
X159845241Y-119177320D01*
X159878725Y-119238643D01*
X159873740Y-119308335D01*
X159845241Y-119352680D01*
X159800184Y-119397737D01*
X159704211Y-119550476D01*
X159644631Y-119720745D01*
X159644630Y-119720750D01*
X159624435Y-119899996D01*
X159624435Y-119900003D01*
X159644630Y-120079249D01*
X159644631Y-120079254D01*
X159704211Y-120249523D01*
X159795000Y-120394011D01*
X159800184Y-120402262D01*
X159927738Y-120529816D01*
X160080478Y-120625789D01*
X160173732Y-120658420D01*
X160250745Y-120685368D01*
X160250750Y-120685369D01*
X160429996Y-120705565D01*
X160430000Y-120705565D01*
X160430004Y-120705565D01*
X160609249Y-120685369D01*
X160609252Y-120685368D01*
X160609255Y-120685368D01*
X160779522Y-120625789D01*
X160932262Y-120529816D01*
X160977319Y-120484759D01*
X161038642Y-120451274D01*
X161108334Y-120456258D01*
X161152681Y-120484759D01*
X161197738Y-120529816D01*
X161350478Y-120625789D01*
X161443732Y-120658420D01*
X161520745Y-120685368D01*
X161520750Y-120685369D01*
X161699996Y-120705565D01*
X161700000Y-120705565D01*
X161700004Y-120705565D01*
X161879249Y-120685369D01*
X161879252Y-120685368D01*
X161879255Y-120685368D01*
X162049522Y-120625789D01*
X162202262Y-120529816D01*
X162247319Y-120484759D01*
X162308642Y-120451274D01*
X162378334Y-120456258D01*
X162422681Y-120484759D01*
X162467738Y-120529816D01*
X162620478Y-120625789D01*
X162713732Y-120658420D01*
X162790745Y-120685368D01*
X162790750Y-120685369D01*
X162969996Y-120705565D01*
X162970000Y-120705565D01*
X162970004Y-120705565D01*
X163149249Y-120685369D01*
X163149252Y-120685368D01*
X163149255Y-120685368D01*
X163319522Y-120625789D01*
X163472262Y-120529816D01*
X163517319Y-120484759D01*
X163578642Y-120451274D01*
X163648334Y-120456258D01*
X163692681Y-120484759D01*
X163737738Y-120529816D01*
X163890478Y-120625789D01*
X163983732Y-120658420D01*
X164060745Y-120685368D01*
X164060750Y-120685369D01*
X164239996Y-120705565D01*
X164240000Y-120705565D01*
X164240004Y-120705565D01*
X164419249Y-120685369D01*
X164419252Y-120685368D01*
X164419255Y-120685368D01*
X164589522Y-120625789D01*
X164742262Y-120529816D01*
X164869816Y-120402262D01*
X164965789Y-120249522D01*
X165025368Y-120079255D01*
X165045565Y-119900000D01*
X165025368Y-119720745D01*
X164965789Y-119550478D01*
X164869816Y-119397738D01*
X164824758Y-119352680D01*
X164791274Y-119291358D01*
X164796258Y-119221666D01*
X164824759Y-119177319D01*
X164869816Y-119132262D01*
X164965789Y-118979522D01*
X165025368Y-118809255D01*
X165045565Y-118630000D01*
X165025368Y-118450745D01*
X164965789Y-118280478D01*
X164869816Y-118127738D01*
X164824758Y-118082680D01*
X164791274Y-118021358D01*
X164796258Y-117951666D01*
X164824759Y-117907319D01*
X164869816Y-117862262D01*
X164965789Y-117709522D01*
X165025368Y-117539255D01*
X165045565Y-117360000D01*
X165025368Y-117180745D01*
X164965789Y-117010478D01*
X164869816Y-116857738D01*
X164824758Y-116812680D01*
X164791274Y-116751358D01*
X164796258Y-116681666D01*
X164824759Y-116637319D01*
X164869816Y-116592262D01*
X164965789Y-116439522D01*
X165025368Y-116269255D01*
X165045565Y-116090000D01*
X165025368Y-115910745D01*
X164965789Y-115740478D01*
X164869816Y-115587738D01*
X164824758Y-115542680D01*
X164791274Y-115481358D01*
X164796258Y-115411666D01*
X164824759Y-115367319D01*
X164869816Y-115322262D01*
X164965789Y-115169522D01*
X165025368Y-114999255D01*
X165045565Y-114820000D01*
X165039255Y-114764000D01*
X165025369Y-114640750D01*
X165025368Y-114640745D01*
X165012870Y-114605027D01*
X164965789Y-114470478D01*
X164869816Y-114317738D01*
X164742262Y-114190184D01*
X164717559Y-114174662D01*
X164589523Y-114094211D01*
X164419254Y-114034631D01*
X164419249Y-114034630D01*
X164240004Y-114014435D01*
X164239996Y-114014435D01*
X164060750Y-114034630D01*
X164060745Y-114034631D01*
X163890476Y-114094211D01*
X163737737Y-114190184D01*
X163692680Y-114235241D01*
X163631357Y-114268725D01*
X163561665Y-114263740D01*
X163517320Y-114235241D01*
X163472263Y-114190185D01*
X163472262Y-114190184D01*
X163319523Y-114094211D01*
X163149254Y-114034631D01*
X163149249Y-114034630D01*
X162970004Y-114014435D01*
X162969996Y-114014435D01*
X162790750Y-114034630D01*
X162790745Y-114034631D01*
X162620476Y-114094211D01*
X162467737Y-114190184D01*
X162422680Y-114235241D01*
X162361357Y-114268725D01*
X162291665Y-114263740D01*
X162247320Y-114235241D01*
X162202263Y-114190185D01*
X162202262Y-114190184D01*
X162049523Y-114094211D01*
X161879254Y-114034631D01*
X161879249Y-114034630D01*
X161700004Y-114014435D01*
X161699996Y-114014435D01*
X161520750Y-114034630D01*
X161520745Y-114034631D01*
X161350476Y-114094211D01*
X161197737Y-114190184D01*
X161152680Y-114235241D01*
X161091357Y-114268725D01*
X161021665Y-114263740D01*
X160977320Y-114235241D01*
X160932263Y-114190185D01*
X160932262Y-114190184D01*
X160779523Y-114094211D01*
X160609254Y-114034631D01*
X160609249Y-114034630D01*
X160430004Y-114014435D01*
X160429996Y-114014435D01*
X160250750Y-114034630D01*
X160250745Y-114034631D01*
X160080476Y-114094211D01*
X159927737Y-114190184D01*
X159800184Y-114317737D01*
X159704211Y-114470476D01*
X159644631Y-114640745D01*
X159644630Y-114640750D01*
X159624435Y-114819996D01*
X158315500Y-114819996D01*
X158315500Y-114764000D01*
X158303947Y-114656544D01*
X158292741Y-114605033D01*
X158292637Y-114604722D01*
X158258616Y-114502502D01*
X158258613Y-114502496D01*
X158180828Y-114381462D01*
X158180825Y-114381457D01*
X158180820Y-114381451D01*
X158135076Y-114328659D01*
X158135072Y-114328656D01*
X158135070Y-114328653D01*
X158026336Y-114234433D01*
X158026333Y-114234431D01*
X158026331Y-114234430D01*
X157895465Y-114174664D01*
X157895460Y-114174662D01*
X157895459Y-114174662D01*
X157828420Y-114154977D01*
X157828422Y-114154977D01*
X157828417Y-114154976D01*
X157780944Y-114148150D01*
X157686000Y-114134500D01*
X157685998Y-114134500D01*
X146535375Y-114134500D01*
X146500439Y-114129477D01*
X146451057Y-114114976D01*
X146365604Y-114102690D01*
X146308638Y-114094500D01*
X146308636Y-114094500D01*
X145460746Y-114094500D01*
X145393707Y-114074815D01*
X145373065Y-114058181D01*
X140432065Y-109117181D01*
X140398580Y-109055858D01*
X140403564Y-108986166D01*
X140445436Y-108930233D01*
X140510900Y-108905816D01*
X140519746Y-108905500D01*
X157075990Y-108905500D01*
X157076000Y-108905500D01*
X157183456Y-108893947D01*
X157234967Y-108882741D01*
X157271820Y-108870475D01*
X157337497Y-108848616D01*
X157337501Y-108848613D01*
X157337504Y-108848613D01*
X157458543Y-108770825D01*
X157511347Y-108725070D01*
X157605567Y-108616336D01*
X157665338Y-108485459D01*
X157685023Y-108418420D01*
X157685024Y-108418416D01*
X157705500Y-108276000D01*
X157705500Y-102869996D01*
X159214435Y-102869996D01*
X159214435Y-102870003D01*
X159234630Y-103049249D01*
X159234631Y-103049254D01*
X159294211Y-103219523D01*
X159390184Y-103372262D01*
X159390185Y-103372263D01*
X159435241Y-103417320D01*
X159468725Y-103478643D01*
X159463740Y-103548335D01*
X159435241Y-103592680D01*
X159390184Y-103637737D01*
X159294211Y-103790476D01*
X159234631Y-103960745D01*
X159234630Y-103960750D01*
X159214435Y-104139996D01*
X159214435Y-104140003D01*
X159234630Y-104319249D01*
X159234631Y-104319254D01*
X159294211Y-104489523D01*
X159390184Y-104642262D01*
X159390185Y-104642263D01*
X159435241Y-104687320D01*
X159468725Y-104748643D01*
X159463740Y-104818335D01*
X159435241Y-104862680D01*
X159390184Y-104907737D01*
X159294211Y-105060476D01*
X159234631Y-105230745D01*
X159234630Y-105230750D01*
X159214435Y-105409996D01*
X159214435Y-105410003D01*
X159234630Y-105589249D01*
X159234631Y-105589254D01*
X159294211Y-105759523D01*
X159390184Y-105912262D01*
X159390185Y-105912263D01*
X159435241Y-105957320D01*
X159468725Y-106018643D01*
X159463740Y-106088335D01*
X159435241Y-106132680D01*
X159390184Y-106177737D01*
X159294211Y-106330476D01*
X159234631Y-106500745D01*
X159234630Y-106500750D01*
X159214435Y-106679996D01*
X159214435Y-106680003D01*
X159234630Y-106859249D01*
X159234631Y-106859254D01*
X159294211Y-107029523D01*
X159390184Y-107182262D01*
X159390185Y-107182263D01*
X159435241Y-107227320D01*
X159468725Y-107288643D01*
X159463740Y-107358335D01*
X159435241Y-107402680D01*
X159390184Y-107447737D01*
X159294211Y-107600476D01*
X159234631Y-107770745D01*
X159234630Y-107770750D01*
X159214435Y-107949996D01*
X159214435Y-107950003D01*
X159234630Y-108129249D01*
X159234631Y-108129254D01*
X159294211Y-108299523D01*
X159390184Y-108452262D01*
X159390185Y-108452263D01*
X159435241Y-108497320D01*
X159468725Y-108558643D01*
X159463740Y-108628335D01*
X159435241Y-108672680D01*
X159390184Y-108717737D01*
X159294211Y-108870476D01*
X159234631Y-109040745D01*
X159234630Y-109040750D01*
X159214435Y-109219996D01*
X159214435Y-109220003D01*
X159234630Y-109399249D01*
X159234631Y-109399254D01*
X159294211Y-109569523D01*
X159390184Y-109722262D01*
X159390185Y-109722263D01*
X159435241Y-109767320D01*
X159468725Y-109828643D01*
X159463740Y-109898335D01*
X159435241Y-109942680D01*
X159390184Y-109987737D01*
X159294211Y-110140476D01*
X159234631Y-110310745D01*
X159234630Y-110310750D01*
X159214435Y-110489996D01*
X159214435Y-110490003D01*
X159234630Y-110669249D01*
X159234631Y-110669254D01*
X159294211Y-110839523D01*
X159385000Y-110984011D01*
X159390184Y-110992262D01*
X159517738Y-111119816D01*
X159670478Y-111215789D01*
X159840745Y-111275368D01*
X159840750Y-111275369D01*
X160019996Y-111295565D01*
X160020000Y-111295565D01*
X160020004Y-111295565D01*
X160199249Y-111275369D01*
X160199252Y-111275368D01*
X160199255Y-111275368D01*
X160369522Y-111215789D01*
X160522262Y-111119816D01*
X160567319Y-111074759D01*
X160628642Y-111041274D01*
X160698334Y-111046258D01*
X160742681Y-111074759D01*
X160787738Y-111119816D01*
X160940478Y-111215789D01*
X161110745Y-111275368D01*
X161110750Y-111275369D01*
X161289996Y-111295565D01*
X161290000Y-111295565D01*
X161290004Y-111295565D01*
X161469249Y-111275369D01*
X161469252Y-111275368D01*
X161469255Y-111275368D01*
X161639522Y-111215789D01*
X161792262Y-111119816D01*
X161919816Y-110992262D01*
X162015789Y-110839522D01*
X162075368Y-110669255D01*
X162095565Y-110490000D01*
X162075368Y-110310745D01*
X162015789Y-110140478D01*
X162015788Y-110140476D01*
X162015788Y-110140475D01*
X161975682Y-110076648D01*
X161956681Y-110009411D01*
X161977048Y-109942576D01*
X162030316Y-109897361D01*
X162099572Y-109888123D01*
X162146648Y-109905682D01*
X162210475Y-109945788D01*
X162380745Y-110005368D01*
X162380750Y-110005369D01*
X162559996Y-110025565D01*
X162560000Y-110025565D01*
X162560004Y-110025565D01*
X162739249Y-110005369D01*
X162739252Y-110005368D01*
X162739255Y-110005368D01*
X162909522Y-109945789D01*
X163062262Y-109849816D01*
X163189816Y-109722262D01*
X163285789Y-109569522D01*
X163345368Y-109399255D01*
X163365565Y-109220000D01*
X163353980Y-109117181D01*
X163345369Y-109040750D01*
X163345368Y-109040745D01*
X163285788Y-108870475D01*
X163245682Y-108806648D01*
X163226681Y-108739411D01*
X163247048Y-108672576D01*
X163300316Y-108627361D01*
X163369572Y-108618123D01*
X163416648Y-108635682D01*
X163480475Y-108675788D01*
X163650745Y-108735368D01*
X163650750Y-108735369D01*
X163829996Y-108755565D01*
X163830000Y-108755565D01*
X163830004Y-108755565D01*
X164009249Y-108735369D01*
X164009252Y-108735368D01*
X164009255Y-108735368D01*
X164179522Y-108675789D01*
X164332262Y-108579816D01*
X164459816Y-108452262D01*
X164555789Y-108299522D01*
X164615368Y-108129255D01*
X164635565Y-107950000D01*
X164615368Y-107770745D01*
X164555789Y-107600478D01*
X164459816Y-107447738D01*
X164414758Y-107402680D01*
X164381274Y-107341358D01*
X164386258Y-107271666D01*
X164414759Y-107227319D01*
X164459816Y-107182262D01*
X164555789Y-107029522D01*
X164615368Y-106859255D01*
X164635565Y-106680000D01*
X164615368Y-106500745D01*
X164555789Y-106330478D01*
X164459816Y-106177738D01*
X164414758Y-106132680D01*
X164381274Y-106071358D01*
X164386258Y-106001666D01*
X164414759Y-105957319D01*
X164459816Y-105912262D01*
X164555789Y-105759522D01*
X164615368Y-105589255D01*
X164635565Y-105410000D01*
X164615368Y-105230745D01*
X164555789Y-105060478D01*
X164459816Y-104907738D01*
X164414758Y-104862680D01*
X164381274Y-104801358D01*
X164386258Y-104731666D01*
X164414759Y-104687319D01*
X164459816Y-104642262D01*
X164555789Y-104489522D01*
X164615368Y-104319255D01*
X164635565Y-104140000D01*
X164615368Y-103960745D01*
X164555789Y-103790478D01*
X164459816Y-103637738D01*
X164414758Y-103592680D01*
X164381274Y-103531358D01*
X164386258Y-103461666D01*
X164414759Y-103417319D01*
X164459816Y-103372262D01*
X164555789Y-103219522D01*
X164615368Y-103049255D01*
X164635565Y-102870000D01*
X164615368Y-102690745D01*
X164555789Y-102520478D01*
X164459816Y-102367738D01*
X164414759Y-102322681D01*
X164381274Y-102261358D01*
X164386258Y-102191666D01*
X164414759Y-102147319D01*
X164432396Y-102129682D01*
X164459816Y-102102262D01*
X164555789Y-101949522D01*
X164615368Y-101779255D01*
X164635565Y-101600000D01*
X164615368Y-101420745D01*
X164555789Y-101250478D01*
X164459816Y-101097738D01*
X164332262Y-100970184D01*
X164179523Y-100874211D01*
X164009254Y-100814631D01*
X164009249Y-100814630D01*
X163830004Y-100794435D01*
X163829996Y-100794435D01*
X163650750Y-100814630D01*
X163650745Y-100814631D01*
X163480476Y-100874211D01*
X163327737Y-100970184D01*
X163200184Y-101097737D01*
X163104211Y-101250476D01*
X163044631Y-101420745D01*
X163044630Y-101420750D01*
X163024435Y-101599996D01*
X163024435Y-101600003D01*
X163044630Y-101779249D01*
X163044631Y-101779254D01*
X163104211Y-101949523D01*
X163144318Y-102013352D01*
X163163318Y-102080588D01*
X163142950Y-102147424D01*
X163089683Y-102192638D01*
X163020426Y-102201876D01*
X162973352Y-102184318D01*
X162909523Y-102144211D01*
X162739254Y-102084631D01*
X162739249Y-102084630D01*
X162560004Y-102064435D01*
X162559996Y-102064435D01*
X162380750Y-102084630D01*
X162380745Y-102084631D01*
X162210476Y-102144211D01*
X162146647Y-102184318D01*
X162079410Y-102203318D01*
X162012575Y-102182950D01*
X161967361Y-102129682D01*
X161958124Y-102060426D01*
X161975682Y-102013352D01*
X162015789Y-101949522D01*
X162075368Y-101779255D01*
X162095565Y-101600000D01*
X162075368Y-101420745D01*
X162015789Y-101250478D01*
X161919816Y-101097738D01*
X161792262Y-100970184D01*
X161639523Y-100874211D01*
X161469254Y-100814631D01*
X161469249Y-100814630D01*
X161290004Y-100794435D01*
X161289996Y-100794435D01*
X161110750Y-100814630D01*
X161110745Y-100814631D01*
X160940476Y-100874211D01*
X160787737Y-100970184D01*
X160660184Y-101097737D01*
X160564211Y-101250476D01*
X160504631Y-101420745D01*
X160504630Y-101420750D01*
X160484435Y-101599996D01*
X160484435Y-101600003D01*
X160504630Y-101779249D01*
X160504631Y-101779254D01*
X160564211Y-101949523D01*
X160604318Y-102013352D01*
X160623318Y-102080588D01*
X160602950Y-102147424D01*
X160549683Y-102192638D01*
X160480426Y-102201876D01*
X160433352Y-102184318D01*
X160369523Y-102144211D01*
X160199254Y-102084631D01*
X160199249Y-102084630D01*
X160020004Y-102064435D01*
X160019996Y-102064435D01*
X159840750Y-102084630D01*
X159840745Y-102084631D01*
X159670476Y-102144211D01*
X159517737Y-102240184D01*
X159390184Y-102367737D01*
X159294211Y-102520476D01*
X159234631Y-102690745D01*
X159234630Y-102690750D01*
X159214435Y-102869996D01*
X157705500Y-102869996D01*
X157705500Y-102524000D01*
X157693947Y-102416544D01*
X157682741Y-102365033D01*
X157668645Y-102322681D01*
X157648616Y-102262502D01*
X157648613Y-102262496D01*
X157570828Y-102141462D01*
X157570825Y-102141457D01*
X157560622Y-102129682D01*
X157525076Y-102088659D01*
X157525072Y-102088656D01*
X157525070Y-102088653D01*
X157416336Y-101994433D01*
X157416333Y-101994431D01*
X157416331Y-101994430D01*
X157285465Y-101934664D01*
X157285460Y-101934662D01*
X157285459Y-101934662D01*
X157218420Y-101914977D01*
X157218422Y-101914977D01*
X157218417Y-101914976D01*
X157170944Y-101908150D01*
X157076000Y-101894500D01*
X157075998Y-101894500D01*
X145860746Y-101894500D01*
X145793707Y-101874815D01*
X145773065Y-101858181D01*
X143590934Y-99676049D01*
X143534352Y-99627273D01*
X143534340Y-99627264D01*
X143504975Y-99605514D01*
X143441823Y-99565610D01*
X143441817Y-99565608D01*
X143306503Y-99516710D01*
X143238080Y-99502558D01*
X143236471Y-99502393D01*
X143234293Y-99502327D01*
X143103225Y-99494301D01*
X143037514Y-99470556D01*
X142995072Y-99415054D01*
X142989374Y-99345417D01*
X142993763Y-99329578D01*
X143025366Y-99239262D01*
X143025369Y-99239249D01*
X143045565Y-99060003D01*
X143045565Y-99059996D01*
X160484435Y-99059996D01*
X160484435Y-99060003D01*
X160504630Y-99239249D01*
X160504631Y-99239254D01*
X160564211Y-99409523D01*
X160602561Y-99470556D01*
X160660184Y-99562262D01*
X160787738Y-99689816D01*
X160940478Y-99785789D01*
X161110745Y-99845368D01*
X161110750Y-99845369D01*
X161289996Y-99865565D01*
X161290000Y-99865565D01*
X161290004Y-99865565D01*
X161469249Y-99845369D01*
X161469252Y-99845368D01*
X161469255Y-99845368D01*
X161639522Y-99785789D01*
X161792262Y-99689816D01*
X161919816Y-99562262D01*
X162015789Y-99409522D01*
X162075368Y-99239255D01*
X162095565Y-99060000D01*
X162095565Y-99059996D01*
X163024435Y-99059996D01*
X163024435Y-99060003D01*
X163044630Y-99239249D01*
X163044631Y-99239254D01*
X163104211Y-99409523D01*
X163142561Y-99470556D01*
X163200184Y-99562262D01*
X163327738Y-99689816D01*
X163480478Y-99785789D01*
X163650745Y-99845368D01*
X163650750Y-99845369D01*
X163829996Y-99865565D01*
X163830000Y-99865565D01*
X163830004Y-99865565D01*
X164009249Y-99845369D01*
X164009252Y-99845368D01*
X164009255Y-99845368D01*
X164179522Y-99785789D01*
X164332262Y-99689816D01*
X164459816Y-99562262D01*
X164555789Y-99409522D01*
X164615368Y-99239255D01*
X164635565Y-99060000D01*
X164615368Y-98880745D01*
X164555789Y-98710478D01*
X164459816Y-98557738D01*
X164332262Y-98430184D01*
X164324012Y-98425000D01*
X164179523Y-98334211D01*
X164009254Y-98274631D01*
X164009249Y-98274630D01*
X163830004Y-98254435D01*
X163829996Y-98254435D01*
X163650750Y-98274630D01*
X163650745Y-98274631D01*
X163480476Y-98334211D01*
X163327737Y-98430184D01*
X163200184Y-98557737D01*
X163104211Y-98710476D01*
X163044631Y-98880745D01*
X163044630Y-98880750D01*
X163024435Y-99059996D01*
X162095565Y-99059996D01*
X162075368Y-98880745D01*
X162015789Y-98710478D01*
X161919816Y-98557738D01*
X161792262Y-98430184D01*
X161784012Y-98425000D01*
X161639523Y-98334211D01*
X161469254Y-98274631D01*
X161469249Y-98274630D01*
X161290004Y-98254435D01*
X161289996Y-98254435D01*
X161110750Y-98274630D01*
X161110745Y-98274631D01*
X160940476Y-98334211D01*
X160787737Y-98430184D01*
X160660184Y-98557737D01*
X160564211Y-98710476D01*
X160504631Y-98880745D01*
X160504630Y-98880750D01*
X160484435Y-99059996D01*
X143045565Y-99059996D01*
X143025369Y-98880750D01*
X143025368Y-98880745D01*
X142965788Y-98710476D01*
X142869815Y-98557737D01*
X142824759Y-98512681D01*
X142791274Y-98451358D01*
X142796258Y-98381666D01*
X142824759Y-98337319D01*
X142827867Y-98334211D01*
X142869816Y-98292262D01*
X142965789Y-98139522D01*
X143025368Y-97969255D01*
X143045565Y-97790000D01*
X143025368Y-97610745D01*
X142965789Y-97440478D01*
X142957999Y-97428081D01*
X142880894Y-97305369D01*
X142869816Y-97287738D01*
X142742262Y-97160184D01*
X142589523Y-97064211D01*
X142419254Y-97004631D01*
X142419249Y-97004630D01*
X142240004Y-96984435D01*
X142239996Y-96984435D01*
X142060750Y-97004630D01*
X142060745Y-97004631D01*
X141890476Y-97064211D01*
X141737737Y-97160184D01*
X141610184Y-97287737D01*
X141610182Y-97287740D01*
X141535639Y-97406373D01*
X141483304Y-97452664D01*
X141414251Y-97463311D01*
X141350402Y-97434936D01*
X141342965Y-97428081D01*
X140434880Y-96519996D01*
X160484435Y-96519996D01*
X160484435Y-96520003D01*
X160504630Y-96699249D01*
X160504631Y-96699254D01*
X160564211Y-96869523D01*
X160636416Y-96984435D01*
X160660184Y-97022262D01*
X160787738Y-97149816D01*
X160940478Y-97245789D01*
X161060367Y-97287740D01*
X161110745Y-97305368D01*
X161110750Y-97305369D01*
X161289996Y-97325565D01*
X161290000Y-97325565D01*
X161290004Y-97325565D01*
X161469249Y-97305369D01*
X161469252Y-97305368D01*
X161469255Y-97305368D01*
X161639522Y-97245789D01*
X161792262Y-97149816D01*
X161919816Y-97022262D01*
X162015789Y-96869522D01*
X162075368Y-96699255D01*
X162095565Y-96520000D01*
X162095565Y-96519996D01*
X163024435Y-96519996D01*
X163024435Y-96520003D01*
X163044630Y-96699249D01*
X163044631Y-96699254D01*
X163104211Y-96869523D01*
X163176416Y-96984435D01*
X163200184Y-97022262D01*
X163327738Y-97149816D01*
X163480478Y-97245789D01*
X163600367Y-97287740D01*
X163650745Y-97305368D01*
X163650750Y-97305369D01*
X163829996Y-97325565D01*
X163830000Y-97325565D01*
X163830004Y-97325565D01*
X164009249Y-97305369D01*
X164009252Y-97305368D01*
X164009255Y-97305368D01*
X164179522Y-97245789D01*
X164332262Y-97149816D01*
X164459816Y-97022262D01*
X164555789Y-96869522D01*
X164615368Y-96699255D01*
X164635565Y-96520000D01*
X164615368Y-96340745D01*
X164555789Y-96170478D01*
X164459816Y-96017738D01*
X164332262Y-95890184D01*
X164179523Y-95794211D01*
X164009254Y-95734631D01*
X164009249Y-95734630D01*
X163830004Y-95714435D01*
X163829996Y-95714435D01*
X163650750Y-95734630D01*
X163650745Y-95734631D01*
X163480476Y-95794211D01*
X163327737Y-95890184D01*
X163200184Y-96017737D01*
X163104211Y-96170476D01*
X163044631Y-96340745D01*
X163044630Y-96340750D01*
X163024435Y-96519996D01*
X162095565Y-96519996D01*
X162075368Y-96340745D01*
X162015789Y-96170478D01*
X161919816Y-96017738D01*
X161792262Y-95890184D01*
X161639523Y-95794211D01*
X161469254Y-95734631D01*
X161469249Y-95734630D01*
X161290004Y-95714435D01*
X161289996Y-95714435D01*
X161110750Y-95734630D01*
X161110745Y-95734631D01*
X160940476Y-95794211D01*
X160787737Y-95890184D01*
X160660184Y-96017737D01*
X160564211Y-96170476D01*
X160504631Y-96340745D01*
X160504630Y-96340750D01*
X160484435Y-96519996D01*
X140434880Y-96519996D01*
X139164880Y-95249996D01*
X141434435Y-95249996D01*
X141434435Y-95250003D01*
X141454630Y-95429249D01*
X141454631Y-95429254D01*
X141514211Y-95599523D01*
X141586416Y-95714435D01*
X141610184Y-95752262D01*
X141737738Y-95879816D01*
X141890478Y-95975789D01*
X142060745Y-96035368D01*
X142060750Y-96035369D01*
X142239996Y-96055565D01*
X142240000Y-96055565D01*
X142240004Y-96055565D01*
X142419249Y-96035369D01*
X142419252Y-96035368D01*
X142419255Y-96035368D01*
X142589522Y-95975789D01*
X142742262Y-95879816D01*
X142869816Y-95752262D01*
X142965789Y-95599522D01*
X143025368Y-95429255D01*
X143045565Y-95250000D01*
X143025368Y-95070745D01*
X142965789Y-94900478D01*
X142869816Y-94747738D01*
X142742262Y-94620184D01*
X142589523Y-94524211D01*
X142419254Y-94464631D01*
X142419249Y-94464630D01*
X142240004Y-94444435D01*
X142239996Y-94444435D01*
X142060750Y-94464630D01*
X142060745Y-94464631D01*
X141890476Y-94524211D01*
X141737737Y-94620184D01*
X141610184Y-94747737D01*
X141514211Y-94900476D01*
X141454631Y-95070745D01*
X141454630Y-95070750D01*
X141434435Y-95249996D01*
X139164880Y-95249996D01*
X138142065Y-94227181D01*
X138108580Y-94165858D01*
X138113564Y-94096166D01*
X138155436Y-94040233D01*
X138220900Y-94015816D01*
X138229746Y-94015500D01*
X144838640Y-94015500D01*
X144848786Y-94014955D01*
X144892678Y-94012603D01*
X144892686Y-94012602D01*
X144892688Y-94012602D01*
X144892689Y-94012602D01*
X144899682Y-94011849D01*
X144919036Y-94009769D01*
X144919046Y-94009767D01*
X144919049Y-94009767D01*
X144928648Y-94008211D01*
X144972448Y-94001114D01*
X145029067Y-93979996D01*
X160484435Y-93979996D01*
X160484435Y-93980003D01*
X160504630Y-94159249D01*
X160504631Y-94159254D01*
X160564211Y-94329523D01*
X160636416Y-94444435D01*
X160660184Y-94482262D01*
X160787738Y-94609816D01*
X160940478Y-94705789D01*
X161110745Y-94765368D01*
X161110750Y-94765369D01*
X161289996Y-94785565D01*
X161290000Y-94785565D01*
X161290004Y-94785565D01*
X161469249Y-94765369D01*
X161469252Y-94765368D01*
X161469255Y-94765368D01*
X161639522Y-94705789D01*
X161792262Y-94609816D01*
X161919816Y-94482262D01*
X162015789Y-94329522D01*
X162075368Y-94159255D01*
X162075369Y-94159249D01*
X162095565Y-93980003D01*
X162095565Y-93979996D01*
X163024435Y-93979996D01*
X163024435Y-93980003D01*
X163044630Y-94159249D01*
X163044631Y-94159254D01*
X163104211Y-94329523D01*
X163176416Y-94444435D01*
X163200184Y-94482262D01*
X163327738Y-94609816D01*
X163480478Y-94705789D01*
X163650745Y-94765368D01*
X163650750Y-94765369D01*
X163829996Y-94785565D01*
X163830000Y-94785565D01*
X163830004Y-94785565D01*
X164009249Y-94765369D01*
X164009252Y-94765368D01*
X164009255Y-94765368D01*
X164179522Y-94705789D01*
X164332262Y-94609816D01*
X164459816Y-94482262D01*
X164555789Y-94329522D01*
X164615368Y-94159255D01*
X164615369Y-94159249D01*
X164635565Y-93980003D01*
X164635565Y-93979996D01*
X164615369Y-93800750D01*
X164615368Y-93800745D01*
X164555788Y-93630476D01*
X164459815Y-93477737D01*
X164332262Y-93350184D01*
X164179523Y-93254211D01*
X164009254Y-93194631D01*
X164009249Y-93194630D01*
X163830004Y-93174435D01*
X163829996Y-93174435D01*
X163650750Y-93194630D01*
X163650745Y-93194631D01*
X163480476Y-93254211D01*
X163327737Y-93350184D01*
X163200184Y-93477737D01*
X163104211Y-93630476D01*
X163044631Y-93800745D01*
X163044630Y-93800750D01*
X163024435Y-93979996D01*
X162095565Y-93979996D01*
X162075369Y-93800750D01*
X162075368Y-93800745D01*
X162015788Y-93630476D01*
X161919815Y-93477737D01*
X161792262Y-93350184D01*
X161639523Y-93254211D01*
X161469254Y-93194631D01*
X161469249Y-93194630D01*
X161290004Y-93174435D01*
X161289996Y-93174435D01*
X161110750Y-93194630D01*
X161110745Y-93194631D01*
X160940476Y-93254211D01*
X160787737Y-93350184D01*
X160660184Y-93477737D01*
X160564211Y-93630476D01*
X160504631Y-93800745D01*
X160504630Y-93800750D01*
X160484435Y-93979996D01*
X145029067Y-93979996D01*
X145107257Y-93950832D01*
X145168580Y-93917347D01*
X145283762Y-93831123D01*
X145773065Y-93341818D01*
X145834388Y-93308334D01*
X145860746Y-93305500D01*
X157075990Y-93305500D01*
X157076000Y-93305500D01*
X157183456Y-93293947D01*
X157234967Y-93282741D01*
X157269197Y-93271347D01*
X157337497Y-93248616D01*
X157337501Y-93248613D01*
X157337504Y-93248613D01*
X157458543Y-93170825D01*
X157511347Y-93125070D01*
X157605567Y-93016336D01*
X157665338Y-92885459D01*
X157685023Y-92818420D01*
X157685024Y-92818416D01*
X157705500Y-92676000D01*
X157705500Y-87629996D01*
X159214435Y-87629996D01*
X159214435Y-87630003D01*
X159234630Y-87809249D01*
X159234631Y-87809254D01*
X159294211Y-87979523D01*
X159390184Y-88132262D01*
X159390185Y-88132263D01*
X159435241Y-88177320D01*
X159468725Y-88238643D01*
X159463740Y-88308335D01*
X159435241Y-88352680D01*
X159390184Y-88397737D01*
X159294211Y-88550476D01*
X159234631Y-88720745D01*
X159234630Y-88720750D01*
X159214435Y-88899996D01*
X159214435Y-88900003D01*
X159234630Y-89079249D01*
X159234631Y-89079254D01*
X159294211Y-89249523D01*
X159390184Y-89402262D01*
X159390185Y-89402263D01*
X159435241Y-89447320D01*
X159468725Y-89508643D01*
X159463740Y-89578335D01*
X159435241Y-89622680D01*
X159390184Y-89667737D01*
X159294211Y-89820476D01*
X159234631Y-89990745D01*
X159234630Y-89990750D01*
X159214435Y-90169996D01*
X159214435Y-90170003D01*
X159234630Y-90349249D01*
X159234631Y-90349254D01*
X159294211Y-90519523D01*
X159390184Y-90672262D01*
X159390185Y-90672263D01*
X159435241Y-90717320D01*
X159468725Y-90778643D01*
X159463740Y-90848335D01*
X159435241Y-90892680D01*
X159390184Y-90937737D01*
X159294211Y-91090476D01*
X159234631Y-91260745D01*
X159234630Y-91260750D01*
X159214435Y-91439996D01*
X159214435Y-91440003D01*
X159234630Y-91619249D01*
X159234631Y-91619254D01*
X159294211Y-91789523D01*
X159385000Y-91934011D01*
X159390184Y-91942262D01*
X159517738Y-92069816D01*
X159670478Y-92165789D01*
X159840745Y-92225368D01*
X159840750Y-92225369D01*
X160019996Y-92245565D01*
X160020000Y-92245565D01*
X160020004Y-92245565D01*
X160199249Y-92225369D01*
X160199252Y-92225368D01*
X160199255Y-92225368D01*
X160369522Y-92165789D01*
X160522262Y-92069816D01*
X160567319Y-92024759D01*
X160628642Y-91991274D01*
X160698334Y-91996258D01*
X160742681Y-92024759D01*
X160787738Y-92069816D01*
X160940478Y-92165789D01*
X161110745Y-92225368D01*
X161110750Y-92225369D01*
X161289996Y-92245565D01*
X161290000Y-92245565D01*
X161290004Y-92245565D01*
X161469249Y-92225369D01*
X161469252Y-92225368D01*
X161469255Y-92225368D01*
X161639522Y-92165789D01*
X161792262Y-92069816D01*
X161837319Y-92024759D01*
X161898642Y-91991274D01*
X161968334Y-91996258D01*
X162012681Y-92024759D01*
X162057738Y-92069816D01*
X162210478Y-92165789D01*
X162380745Y-92225368D01*
X162380750Y-92225369D01*
X162559996Y-92245565D01*
X162560000Y-92245565D01*
X162560004Y-92245565D01*
X162739249Y-92225369D01*
X162739252Y-92225368D01*
X162739255Y-92225368D01*
X162909522Y-92165789D01*
X163062262Y-92069816D01*
X163107319Y-92024759D01*
X163168642Y-91991274D01*
X163238334Y-91996258D01*
X163282681Y-92024759D01*
X163327738Y-92069816D01*
X163480478Y-92165789D01*
X163650745Y-92225368D01*
X163650750Y-92225369D01*
X163829996Y-92245565D01*
X163830000Y-92245565D01*
X163830004Y-92245565D01*
X164009249Y-92225369D01*
X164009252Y-92225368D01*
X164009255Y-92225368D01*
X164179522Y-92165789D01*
X164332262Y-92069816D01*
X164459816Y-91942262D01*
X164555789Y-91789522D01*
X164615368Y-91619255D01*
X164635565Y-91440000D01*
X164615368Y-91260745D01*
X164555789Y-91090478D01*
X164459816Y-90937738D01*
X164414758Y-90892680D01*
X164381274Y-90831358D01*
X164386258Y-90761666D01*
X164414759Y-90717319D01*
X164459816Y-90672262D01*
X164555789Y-90519522D01*
X164615368Y-90349255D01*
X164635565Y-90170000D01*
X164615368Y-89990745D01*
X164555789Y-89820478D01*
X164459816Y-89667738D01*
X164414758Y-89622680D01*
X164381274Y-89561358D01*
X164386258Y-89491666D01*
X164414759Y-89447319D01*
X164459816Y-89402262D01*
X164555789Y-89249522D01*
X164615368Y-89079255D01*
X164635565Y-88900000D01*
X164615368Y-88720745D01*
X164555789Y-88550478D01*
X164459816Y-88397738D01*
X164414758Y-88352680D01*
X164381274Y-88291358D01*
X164386258Y-88221666D01*
X164414759Y-88177319D01*
X164459816Y-88132262D01*
X164555789Y-87979522D01*
X164615368Y-87809255D01*
X164635565Y-87630000D01*
X164615368Y-87450745D01*
X164555789Y-87280478D01*
X164459816Y-87127738D01*
X164332262Y-87000184D01*
X164179523Y-86904211D01*
X164009254Y-86844631D01*
X164009249Y-86844630D01*
X163830004Y-86824435D01*
X163829996Y-86824435D01*
X163650750Y-86844630D01*
X163650745Y-86844631D01*
X163480476Y-86904211D01*
X163327737Y-87000184D01*
X163282680Y-87045241D01*
X163221357Y-87078725D01*
X163151665Y-87073740D01*
X163107320Y-87045241D01*
X163062263Y-87000185D01*
X163062262Y-87000184D01*
X162909523Y-86904211D01*
X162739254Y-86844631D01*
X162739249Y-86844630D01*
X162560004Y-86824435D01*
X162559996Y-86824435D01*
X162380750Y-86844630D01*
X162380745Y-86844631D01*
X162210476Y-86904211D01*
X162057737Y-87000184D01*
X162012680Y-87045241D01*
X161951357Y-87078725D01*
X161881665Y-87073740D01*
X161837320Y-87045241D01*
X161792263Y-87000185D01*
X161792262Y-87000184D01*
X161639523Y-86904211D01*
X161469254Y-86844631D01*
X161469249Y-86844630D01*
X161290004Y-86824435D01*
X161289996Y-86824435D01*
X161110750Y-86844630D01*
X161110745Y-86844631D01*
X160940476Y-86904211D01*
X160787737Y-87000184D01*
X160742680Y-87045241D01*
X160681357Y-87078725D01*
X160611665Y-87073740D01*
X160567320Y-87045241D01*
X160522263Y-87000185D01*
X160522262Y-87000184D01*
X160369523Y-86904211D01*
X160199254Y-86844631D01*
X160199249Y-86844630D01*
X160020004Y-86824435D01*
X160019996Y-86824435D01*
X159840750Y-86844630D01*
X159840745Y-86844631D01*
X159670476Y-86904211D01*
X159517737Y-87000184D01*
X159390184Y-87127737D01*
X159294211Y-87280476D01*
X159234631Y-87450745D01*
X159234630Y-87450750D01*
X159214435Y-87629996D01*
X157705500Y-87629996D01*
X157705500Y-86924000D01*
X157693947Y-86816544D01*
X157682741Y-86765033D01*
X157682637Y-86764722D01*
X157648616Y-86662502D01*
X157648613Y-86662496D01*
X157570828Y-86541462D01*
X157570825Y-86541457D01*
X157570820Y-86541451D01*
X157525076Y-86488659D01*
X157525072Y-86488656D01*
X157525070Y-86488653D01*
X157416336Y-86394433D01*
X157416333Y-86394431D01*
X157416331Y-86394430D01*
X157285465Y-86334664D01*
X157285460Y-86334662D01*
X157285459Y-86334662D01*
X157218420Y-86314977D01*
X157218422Y-86314977D01*
X157218417Y-86314976D01*
X157170944Y-86308150D01*
X157076000Y-86294500D01*
X157075998Y-86294500D01*
X145860746Y-86294500D01*
X145793707Y-86274815D01*
X145773065Y-86258181D01*
X143013776Y-83498892D01*
X143013761Y-83498877D01*
X143013737Y-83498855D01*
X142973519Y-83462728D01*
X142973507Y-83462718D01*
X142952856Y-83446076D01*
X142908974Y-83414433D01*
X142778100Y-83354663D01*
X142711055Y-83334976D01*
X142648992Y-83326053D01*
X142568638Y-83314500D01*
X127184862Y-83314500D01*
X127117823Y-83294815D01*
X127072068Y-83242011D01*
X127062124Y-83172853D01*
X127091149Y-83109297D01*
X127097181Y-83102819D01*
X136363681Y-73836319D01*
X136425004Y-73802834D01*
X136451362Y-73800000D01*
X168985754Y-73800000D01*
X169052793Y-73819685D01*
G37*
%TD.AperFunction*%
%TD*%
%TA.AperFunction,Conductor*%
%TO.N,/SW3*%
G36*
X157553039Y-132059685D02*
G01*
X157598794Y-132112489D01*
X157610000Y-132164000D01*
X157610000Y-137770500D01*
X157590315Y-137837539D01*
X157537511Y-137883294D01*
X157486000Y-137894500D01*
X147000000Y-137894500D01*
X147000000Y-132600000D01*
X147000000Y-132040000D01*
X157486000Y-132040000D01*
X157553039Y-132059685D01*
G37*
%TD.AperFunction*%
%TD*%
%TA.AperFunction,Conductor*%
%TO.N,/SW2*%
G36*
X157753039Y-114659685D02*
G01*
X157798794Y-114712489D01*
X157810000Y-114764000D01*
X157810000Y-120516000D01*
X157790315Y-120583039D01*
X157737511Y-120628794D01*
X157686000Y-120640000D01*
X146301362Y-120640000D01*
X146234323Y-120620315D01*
X146213681Y-120603681D01*
X146210000Y-120600000D01*
X146400000Y-120600000D01*
X146400000Y-114640000D01*
X157686000Y-114640000D01*
X157753039Y-114659685D01*
G37*
%TD.AperFunction*%
%TD*%
%TA.AperFunction,Conductor*%
%TO.N,/SW1*%
G36*
X157143039Y-102419685D02*
G01*
X157188794Y-102472489D01*
X157200000Y-102524000D01*
X157200000Y-108276000D01*
X157180315Y-108343039D01*
X157127511Y-108388794D01*
X157076000Y-108400000D01*
X145600000Y-108400000D01*
X145600000Y-102400000D01*
X157076000Y-102400000D01*
X157143039Y-102419685D01*
G37*
%TD.AperFunction*%
%TD*%
%TA.AperFunction,Conductor*%
%TO.N,/SW0*%
G36*
X157143039Y-86819685D02*
G01*
X157188794Y-86872489D01*
X157200000Y-86924000D01*
X157200000Y-92676000D01*
X157180315Y-92743039D01*
X157127511Y-92788794D01*
X157076000Y-92800000D01*
X145600000Y-92800000D01*
X145600000Y-86800000D01*
X157076000Y-86800000D01*
X157143039Y-86819685D01*
G37*
%TD.AperFunction*%
%TD*%
%TA.AperFunction,Conductor*%
%TO.N,/SW0*%
G36*
X142635677Y-83839685D02*
G01*
X142656319Y-83856319D01*
X145600000Y-86800000D01*
X145600000Y-92800000D01*
X145599999Y-92800000D01*
X144926319Y-93473681D01*
X144864996Y-93507166D01*
X144838638Y-93510000D01*
X137378657Y-93510000D01*
X137327143Y-93498793D01*
X137318103Y-93494664D01*
X137318098Y-93494662D01*
X137318097Y-93494662D01*
X137260461Y-93477738D01*
X137251055Y-93474976D01*
X137188992Y-93466053D01*
X137108638Y-93454500D01*
X135538632Y-93454500D01*
X135505473Y-93457126D01*
X135459044Y-93460804D01*
X135420497Y-93466950D01*
X135420494Y-93466950D01*
X135420492Y-93466951D01*
X135342880Y-93485709D01*
X135341970Y-93485929D01*
X135272182Y-93482544D01*
X135225159Y-93453081D01*
X135206893Y-93434815D01*
X135122262Y-93350184D01*
X135077961Y-93322348D01*
X134969523Y-93254211D01*
X134799254Y-93194631D01*
X134799249Y-93194630D01*
X134620004Y-93174435D01*
X134619996Y-93174435D01*
X134440750Y-93194630D01*
X134440745Y-93194631D01*
X134270476Y-93254211D01*
X134117739Y-93350183D01*
X134011113Y-93456809D01*
X133949790Y-93490293D01*
X133888498Y-93488104D01*
X133843796Y-93474978D01*
X133843790Y-93474977D01*
X133843785Y-93474976D01*
X133843784Y-93474976D01*
X133701368Y-93454500D01*
X110224500Y-93454500D01*
X110157461Y-93434815D01*
X110111706Y-93382011D01*
X110100500Y-93330500D01*
X110100500Y-91439996D01*
X132544435Y-91439996D01*
X132544435Y-91440003D01*
X132564630Y-91619249D01*
X132564631Y-91619254D01*
X132624211Y-91789523D01*
X132720184Y-91942262D01*
X132847738Y-92069816D01*
X133000478Y-92165789D01*
X133170745Y-92225368D01*
X133170750Y-92225369D01*
X133349996Y-92245565D01*
X133350000Y-92245565D01*
X133350004Y-92245565D01*
X133529249Y-92225369D01*
X133529252Y-92225368D01*
X133529255Y-92225368D01*
X133699522Y-92165789D01*
X133852262Y-92069816D01*
X133979816Y-91942262D01*
X134075789Y-91789522D01*
X134135368Y-91619255D01*
X134135369Y-91619249D01*
X134155565Y-91440003D01*
X134155565Y-91439996D01*
X135084435Y-91439996D01*
X135084435Y-91440003D01*
X135104630Y-91619249D01*
X135104631Y-91619254D01*
X135164211Y-91789523D01*
X135260184Y-91942262D01*
X135387738Y-92069816D01*
X135540478Y-92165789D01*
X135710745Y-92225368D01*
X135710750Y-92225369D01*
X135889996Y-92245565D01*
X135890000Y-92245565D01*
X135890004Y-92245565D01*
X136069249Y-92225369D01*
X136069252Y-92225368D01*
X136069255Y-92225368D01*
X136239522Y-92165789D01*
X136392262Y-92069816D01*
X136519816Y-91942262D01*
X136615789Y-91789522D01*
X136675368Y-91619255D01*
X136691101Y-91479614D01*
X136718167Y-91415201D01*
X136775761Y-91375646D01*
X136845598Y-91373507D01*
X136855276Y-91376456D01*
X136880745Y-91385368D01*
X136880750Y-91385369D01*
X137059996Y-91405565D01*
X137060000Y-91405565D01*
X137060004Y-91405565D01*
X137239249Y-91385369D01*
X137239252Y-91385368D01*
X137239255Y-91385368D01*
X137409522Y-91325789D01*
X137562262Y-91229816D01*
X137689816Y-91102262D01*
X137785789Y-90949522D01*
X137845368Y-90779255D01*
X137852697Y-90714211D01*
X137865565Y-90600003D01*
X137865565Y-90599996D01*
X138794435Y-90599996D01*
X138794435Y-90600003D01*
X138814630Y-90779249D01*
X138814631Y-90779254D01*
X138874211Y-90949523D01*
X138962778Y-91090476D01*
X138970184Y-91102262D01*
X139097738Y-91229816D01*
X139146961Y-91260745D01*
X139220578Y-91307002D01*
X139250478Y-91325789D01*
X139386848Y-91373507D01*
X139420745Y-91385368D01*
X139420750Y-91385369D01*
X139599996Y-91405565D01*
X139600000Y-91405565D01*
X139600004Y-91405565D01*
X139779249Y-91385369D01*
X139779252Y-91385368D01*
X139779255Y-91385368D01*
X139949522Y-91325789D01*
X140102262Y-91229816D01*
X140229816Y-91102262D01*
X140325789Y-90949522D01*
X140385368Y-90779255D01*
X140392697Y-90714211D01*
X140405565Y-90600003D01*
X140405565Y-90599996D01*
X140385369Y-90420750D01*
X140385368Y-90420745D01*
X140325789Y-90250478D01*
X140229816Y-90097738D01*
X140102262Y-89970184D01*
X139949523Y-89874211D01*
X139779254Y-89814631D01*
X139779249Y-89814630D01*
X139600004Y-89794435D01*
X139599996Y-89794435D01*
X139420750Y-89814630D01*
X139420745Y-89814631D01*
X139250476Y-89874211D01*
X139097737Y-89970184D01*
X138970184Y-90097737D01*
X138874211Y-90250476D01*
X138814631Y-90420745D01*
X138814630Y-90420750D01*
X138794435Y-90599996D01*
X137865565Y-90599996D01*
X137845369Y-90420750D01*
X137845368Y-90420745D01*
X137785789Y-90250478D01*
X137689816Y-90097738D01*
X137562262Y-89970184D01*
X137409523Y-89874211D01*
X137239254Y-89814631D01*
X137239249Y-89814630D01*
X137060004Y-89794435D01*
X137059996Y-89794435D01*
X136880750Y-89814630D01*
X136880745Y-89814631D01*
X136710476Y-89874211D01*
X136557737Y-89970184D01*
X136430184Y-90097737D01*
X136334211Y-90250476D01*
X136274631Y-90420745D01*
X136274630Y-90420750D01*
X136258898Y-90560384D01*
X136231832Y-90624798D01*
X136174237Y-90664354D01*
X136104400Y-90666491D01*
X136094725Y-90663543D01*
X136069261Y-90654633D01*
X136069249Y-90654630D01*
X135890004Y-90634435D01*
X135889996Y-90634435D01*
X135710750Y-90654630D01*
X135710745Y-90654631D01*
X135540476Y-90714211D01*
X135387737Y-90810184D01*
X135260184Y-90937737D01*
X135164211Y-91090476D01*
X135104631Y-91260745D01*
X135104630Y-91260750D01*
X135084435Y-91439996D01*
X134155565Y-91439996D01*
X134135369Y-91260750D01*
X134135368Y-91260745D01*
X134075788Y-91090476D01*
X133979815Y-90937737D01*
X133852262Y-90810184D01*
X133699523Y-90714211D01*
X133529254Y-90654631D01*
X133529249Y-90654630D01*
X133350004Y-90634435D01*
X133349996Y-90634435D01*
X133170750Y-90654630D01*
X133170745Y-90654631D01*
X133000476Y-90714211D01*
X132847737Y-90810184D01*
X132720184Y-90937737D01*
X132624211Y-91090476D01*
X132564631Y-91260745D01*
X132564630Y-91260750D01*
X132544435Y-91439996D01*
X110100500Y-91439996D01*
X110100500Y-88059996D01*
X136254435Y-88059996D01*
X136254435Y-88060003D01*
X136274630Y-88239249D01*
X136274631Y-88239254D01*
X136334211Y-88409523D01*
X136430184Y-88562262D01*
X136557738Y-88689816D01*
X136710478Y-88785789D01*
X136880745Y-88845368D01*
X136880750Y-88845369D01*
X137059996Y-88865565D01*
X137060000Y-88865565D01*
X137060004Y-88865565D01*
X137239249Y-88845369D01*
X137239252Y-88845368D01*
X137239255Y-88845368D01*
X137409522Y-88785789D01*
X137562262Y-88689816D01*
X137689816Y-88562262D01*
X137785789Y-88409522D01*
X137845368Y-88239255D01*
X137865565Y-88060000D01*
X137865565Y-88059996D01*
X138794435Y-88059996D01*
X138794435Y-88060003D01*
X138814630Y-88239249D01*
X138814631Y-88239254D01*
X138874211Y-88409523D01*
X138970184Y-88562262D01*
X139097738Y-88689816D01*
X139250478Y-88785789D01*
X139420745Y-88845368D01*
X139420750Y-88845369D01*
X139599996Y-88865565D01*
X139600000Y-88865565D01*
X139600004Y-88865565D01*
X139779249Y-88845369D01*
X139779252Y-88845368D01*
X139779255Y-88845368D01*
X139949522Y-88785789D01*
X140102262Y-88689816D01*
X140229816Y-88562262D01*
X140325789Y-88409522D01*
X140385368Y-88239255D01*
X140405565Y-88060000D01*
X140385368Y-87880745D01*
X140325789Y-87710478D01*
X140229816Y-87557738D01*
X140102262Y-87430184D01*
X139949523Y-87334211D01*
X139779254Y-87274631D01*
X139779249Y-87274630D01*
X139600004Y-87254435D01*
X139599996Y-87254435D01*
X139420750Y-87274630D01*
X139420745Y-87274631D01*
X139250476Y-87334211D01*
X139097737Y-87430184D01*
X138970184Y-87557737D01*
X138874211Y-87710476D01*
X138814631Y-87880745D01*
X138814630Y-87880750D01*
X138794435Y-88059996D01*
X137865565Y-88059996D01*
X137845368Y-87880745D01*
X137785789Y-87710478D01*
X137689816Y-87557738D01*
X137562262Y-87430184D01*
X137409523Y-87334211D01*
X137239254Y-87274631D01*
X137239249Y-87274630D01*
X137060004Y-87254435D01*
X137059996Y-87254435D01*
X136880750Y-87274630D01*
X136880745Y-87274631D01*
X136710476Y-87334211D01*
X136557737Y-87430184D01*
X136430184Y-87557737D01*
X136334211Y-87710476D01*
X136274631Y-87880745D01*
X136274630Y-87880750D01*
X136254435Y-88059996D01*
X110100500Y-88059996D01*
X110100500Y-83944000D01*
X110120185Y-83876961D01*
X110172989Y-83831206D01*
X110224500Y-83820000D01*
X142568638Y-83820000D01*
X142635677Y-83839685D01*
G37*
%TD.AperFunction*%
%TD*%
%TA.AperFunction,Conductor*%
%TO.N,/SW1*%
G36*
X133768407Y-93979685D02*
G01*
X133814162Y-94032489D01*
X133824588Y-94070117D01*
X133834630Y-94159249D01*
X133834631Y-94159254D01*
X133894211Y-94329523D01*
X133966416Y-94444435D01*
X133990184Y-94482262D01*
X134117738Y-94609816D01*
X134270478Y-94705789D01*
X134440745Y-94765368D01*
X134440750Y-94765369D01*
X134619996Y-94785565D01*
X134620000Y-94785565D01*
X134620004Y-94785565D01*
X134799249Y-94765369D01*
X134799252Y-94765368D01*
X134799255Y-94765368D01*
X134969522Y-94705789D01*
X135122262Y-94609816D01*
X135249816Y-94482262D01*
X135345789Y-94329522D01*
X135405368Y-94159255D01*
X135405369Y-94159249D01*
X135415412Y-94070117D01*
X135442478Y-94005703D01*
X135500073Y-93966147D01*
X135538632Y-93960000D01*
X137108638Y-93960000D01*
X137175677Y-93979685D01*
X137196319Y-93996319D01*
X141597291Y-98397291D01*
X141630776Y-98458614D01*
X141625792Y-98528306D01*
X141612850Y-98551189D01*
X141613889Y-98551842D01*
X141514211Y-98710476D01*
X141454631Y-98880745D01*
X141454630Y-98880750D01*
X141434435Y-99059996D01*
X141434435Y-99060003D01*
X141454630Y-99239249D01*
X141454631Y-99239254D01*
X141514211Y-99409523D01*
X141610184Y-99562262D01*
X141610185Y-99562263D01*
X141655241Y-99607320D01*
X141688725Y-99668643D01*
X141683740Y-99738335D01*
X141655241Y-99782680D01*
X141610184Y-99827737D01*
X141514211Y-99980476D01*
X141454631Y-100150745D01*
X141454630Y-100150750D01*
X141434435Y-100329996D01*
X141434435Y-100330003D01*
X141454630Y-100509249D01*
X141454631Y-100509254D01*
X141514211Y-100679523D01*
X141610184Y-100832262D01*
X141737738Y-100959816D01*
X141890478Y-101055789D01*
X142060745Y-101115368D01*
X142060750Y-101115369D01*
X142239996Y-101135565D01*
X142240000Y-101135565D01*
X142240004Y-101135565D01*
X142419249Y-101115369D01*
X142419252Y-101115368D01*
X142419255Y-101115368D01*
X142589522Y-101055789D01*
X142742262Y-100959816D01*
X142869816Y-100832262D01*
X142965789Y-100679522D01*
X143025368Y-100509255D01*
X143045565Y-100330000D01*
X143025368Y-100150745D01*
X143025366Y-100150740D01*
X143024916Y-100148766D01*
X143024996Y-100147445D01*
X143024589Y-100143825D01*
X143025222Y-100143753D01*
X143029186Y-100079027D01*
X143070483Y-100022667D01*
X143135694Y-99997581D01*
X143204115Y-100011733D01*
X143233487Y-100033487D01*
X145600000Y-102400000D01*
X145600000Y-108400000D01*
X139766246Y-108400000D01*
X139699207Y-108380315D01*
X139678565Y-108363681D01*
X137808547Y-106493662D01*
X137775062Y-106432339D01*
X137780046Y-106362647D01*
X137784513Y-106352169D01*
X137785781Y-106349534D01*
X137785789Y-106349522D01*
X137845368Y-106179255D01*
X137865565Y-106000000D01*
X137865565Y-105999996D01*
X138794435Y-105999996D01*
X138794435Y-106000003D01*
X138814630Y-106179249D01*
X138814631Y-106179254D01*
X138874211Y-106349523D01*
X138923235Y-106427543D01*
X138970184Y-106502262D01*
X139097738Y-106629816D01*
X139250478Y-106725789D01*
X139420745Y-106785368D01*
X139420750Y-106785369D01*
X139599996Y-106805565D01*
X139600000Y-106805565D01*
X139600004Y-106805565D01*
X139779249Y-106785369D01*
X139779252Y-106785368D01*
X139779255Y-106785368D01*
X139949522Y-106725789D01*
X140102262Y-106629816D01*
X140229816Y-106502262D01*
X140325789Y-106349522D01*
X140385368Y-106179255D01*
X140405565Y-106000000D01*
X140385368Y-105820745D01*
X140325789Y-105650478D01*
X140229816Y-105497738D01*
X140102262Y-105370184D01*
X140027669Y-105323314D01*
X139949523Y-105274211D01*
X139779254Y-105214631D01*
X139779249Y-105214630D01*
X139600004Y-105194435D01*
X139599996Y-105194435D01*
X139420750Y-105214630D01*
X139420745Y-105214631D01*
X139250476Y-105274211D01*
X139097737Y-105370184D01*
X138970184Y-105497737D01*
X138874211Y-105650476D01*
X138814631Y-105820745D01*
X138814630Y-105820750D01*
X138794435Y-105999996D01*
X137865565Y-105999996D01*
X137845368Y-105820745D01*
X137785789Y-105650478D01*
X137689816Y-105497738D01*
X137562262Y-105370184D01*
X137487669Y-105323314D01*
X137409523Y-105274211D01*
X137239254Y-105214631D01*
X137239249Y-105214630D01*
X137060004Y-105194435D01*
X137059996Y-105194435D01*
X136880750Y-105214630D01*
X136880737Y-105214633D01*
X136710486Y-105274207D01*
X136707821Y-105275491D01*
X136705926Y-105275802D01*
X136703906Y-105276510D01*
X136703782Y-105276156D01*
X136638879Y-105286843D01*
X136574745Y-105259122D01*
X136566337Y-105251452D01*
X135133776Y-103818892D01*
X135133761Y-103818877D01*
X135123348Y-103809523D01*
X135093519Y-103782728D01*
X135093507Y-103782718D01*
X135072856Y-103766076D01*
X135028974Y-103734433D01*
X134898100Y-103674663D01*
X134831055Y-103654976D01*
X134768992Y-103646053D01*
X134688638Y-103634500D01*
X134688636Y-103634500D01*
X134016940Y-103634500D01*
X133949901Y-103614815D01*
X133904146Y-103562011D01*
X133894202Y-103492853D01*
X133923227Y-103429297D01*
X133929259Y-103422819D01*
X133979816Y-103372262D01*
X134075789Y-103219522D01*
X134135368Y-103049255D01*
X134135369Y-103049249D01*
X134155565Y-102870003D01*
X134155565Y-102869996D01*
X135084435Y-102869996D01*
X135084435Y-102870003D01*
X135104630Y-103049249D01*
X135104631Y-103049254D01*
X135164211Y-103219523D01*
X135202680Y-103280745D01*
X135260184Y-103372262D01*
X135387738Y-103499816D01*
X135540478Y-103595789D01*
X135639791Y-103630540D01*
X135710745Y-103655368D01*
X135710750Y-103655369D01*
X135889996Y-103675565D01*
X135890000Y-103675565D01*
X135890004Y-103675565D01*
X136069249Y-103655369D01*
X136069252Y-103655368D01*
X136069255Y-103655368D01*
X136069256Y-103655367D01*
X136069259Y-103655367D01*
X136115320Y-103639249D01*
X136140209Y-103630539D01*
X136209987Y-103626977D01*
X136270614Y-103661705D01*
X136298205Y-103706626D01*
X136334209Y-103809519D01*
X136430184Y-103962262D01*
X136557738Y-104089816D01*
X136710478Y-104185789D01*
X136880745Y-104245368D01*
X136880750Y-104245369D01*
X137059996Y-104265565D01*
X137060000Y-104265565D01*
X137060004Y-104265565D01*
X137239249Y-104245369D01*
X137239252Y-104245368D01*
X137239255Y-104245368D01*
X137409522Y-104185789D01*
X137562262Y-104089816D01*
X137689816Y-103962262D01*
X137785789Y-103809522D01*
X137845368Y-103639255D01*
X137845904Y-103634500D01*
X137865565Y-103460003D01*
X137865565Y-103459996D01*
X138794435Y-103459996D01*
X138794435Y-103460003D01*
X138814630Y-103639249D01*
X138814631Y-103639254D01*
X138874211Y-103809523D01*
X138970184Y-103962262D01*
X139097738Y-104089816D01*
X139250478Y-104185789D01*
X139420745Y-104245368D01*
X139420750Y-104245369D01*
X139599996Y-104265565D01*
X139600000Y-104265565D01*
X139600004Y-104265565D01*
X139779249Y-104245369D01*
X139779252Y-104245368D01*
X139779255Y-104245368D01*
X139949522Y-104185789D01*
X140102262Y-104089816D01*
X140229816Y-103962262D01*
X140325789Y-103809522D01*
X140385368Y-103639255D01*
X140385904Y-103634500D01*
X140405565Y-103460003D01*
X140405565Y-103459996D01*
X140385369Y-103280750D01*
X140385368Y-103280745D01*
X140325788Y-103110476D01*
X140229815Y-102957737D01*
X140102262Y-102830184D01*
X139949523Y-102734211D01*
X139779254Y-102674631D01*
X139779249Y-102674630D01*
X139600004Y-102654435D01*
X139599996Y-102654435D01*
X139420750Y-102674630D01*
X139420745Y-102674631D01*
X139250476Y-102734211D01*
X139097737Y-102830184D01*
X138970184Y-102957737D01*
X138874211Y-103110476D01*
X138814631Y-103280745D01*
X138814630Y-103280750D01*
X138794435Y-103459996D01*
X137865565Y-103459996D01*
X137845369Y-103280750D01*
X137845368Y-103280745D01*
X137785788Y-103110476D01*
X137689815Y-102957737D01*
X137562262Y-102830184D01*
X137409523Y-102734211D01*
X137239254Y-102674631D01*
X137239249Y-102674630D01*
X137060004Y-102654435D01*
X137059996Y-102654435D01*
X136880750Y-102674630D01*
X136880742Y-102674632D01*
X136809789Y-102699460D01*
X136740010Y-102703021D01*
X136679383Y-102668292D01*
X136651793Y-102623372D01*
X136615789Y-102520478D01*
X136615788Y-102520476D01*
X136519816Y-102367738D01*
X136392262Y-102240184D01*
X136239523Y-102144211D01*
X136069254Y-102084631D01*
X136069249Y-102084630D01*
X135890004Y-102064435D01*
X135889996Y-102064435D01*
X135710750Y-102084630D01*
X135710745Y-102084631D01*
X135540476Y-102144211D01*
X135387737Y-102240184D01*
X135260184Y-102367737D01*
X135164211Y-102520476D01*
X135104631Y-102690745D01*
X135104630Y-102690750D01*
X135084435Y-102869996D01*
X134155565Y-102869996D01*
X134135369Y-102690750D01*
X134135368Y-102690745D01*
X134075788Y-102520476D01*
X134036582Y-102458080D01*
X133979816Y-102367738D01*
X133852262Y-102240184D01*
X133699523Y-102144211D01*
X133529254Y-102084631D01*
X133529249Y-102084630D01*
X133350004Y-102064435D01*
X133349996Y-102064435D01*
X133170750Y-102084630D01*
X133170745Y-102084631D01*
X133000476Y-102144211D01*
X132847737Y-102240184D01*
X132720184Y-102367737D01*
X132624211Y-102520476D01*
X132564631Y-102690745D01*
X132564630Y-102690750D01*
X132544435Y-102869996D01*
X132544435Y-102870003D01*
X132564630Y-103049249D01*
X132564631Y-103049254D01*
X132624211Y-103219523D01*
X132720184Y-103372262D01*
X132770741Y-103422819D01*
X132804226Y-103484142D01*
X132799242Y-103553834D01*
X132757370Y-103609767D01*
X132691906Y-103634184D01*
X132683060Y-103634500D01*
X110224500Y-103634500D01*
X110157461Y-103614815D01*
X110111706Y-103562011D01*
X110100500Y-103510500D01*
X110100500Y-100329996D01*
X133814435Y-100329996D01*
X133814435Y-100330003D01*
X133834630Y-100509249D01*
X133834631Y-100509254D01*
X133894211Y-100679523D01*
X133990184Y-100832262D01*
X134117738Y-100959816D01*
X134270478Y-101055789D01*
X134440745Y-101115368D01*
X134440750Y-101115369D01*
X134619996Y-101135565D01*
X134620000Y-101135565D01*
X134620004Y-101135565D01*
X134799249Y-101115369D01*
X134799252Y-101115368D01*
X134799255Y-101115368D01*
X134969522Y-101055789D01*
X135122262Y-100959816D01*
X135249816Y-100832262D01*
X135345789Y-100679522D01*
X135405368Y-100509255D01*
X135425565Y-100330000D01*
X135405368Y-100150745D01*
X135345789Y-99980478D01*
X135249816Y-99827738D01*
X135122262Y-99700184D01*
X135114012Y-99695000D01*
X134969523Y-99604211D01*
X134799254Y-99544631D01*
X134799249Y-99544630D01*
X134620004Y-99524435D01*
X134619996Y-99524435D01*
X134440750Y-99544630D01*
X134440745Y-99544631D01*
X134270476Y-99604211D01*
X134117737Y-99700184D01*
X133990184Y-99827737D01*
X133894211Y-99980476D01*
X133834631Y-100150745D01*
X133834630Y-100150750D01*
X133814435Y-100329996D01*
X110100500Y-100329996D01*
X110100500Y-94084000D01*
X110120185Y-94016961D01*
X110172989Y-93971206D01*
X110224500Y-93960000D01*
X133701368Y-93960000D01*
X133768407Y-93979685D01*
G37*
%TD.AperFunction*%
%TD*%
%TA.AperFunction,Conductor*%
%TO.N,/SW2*%
G36*
X134755677Y-104159685D02*
G01*
X134776319Y-104176319D01*
X136257412Y-105657412D01*
X136290897Y-105718735D01*
X136286773Y-105786047D01*
X136274631Y-105820747D01*
X136254435Y-105999996D01*
X136254435Y-106000003D01*
X136274630Y-106179249D01*
X136274631Y-106179254D01*
X136334211Y-106349523D01*
X136430184Y-106502262D01*
X136557738Y-106629816D01*
X136710478Y-106725789D01*
X136835866Y-106769664D01*
X136880745Y-106785368D01*
X136880750Y-106785369D01*
X137059996Y-106805565D01*
X137060000Y-106805565D01*
X137060004Y-106805565D01*
X137239251Y-106785369D01*
X137239253Y-106785368D01*
X137239255Y-106785368D01*
X137273952Y-106773226D01*
X137343729Y-106769664D01*
X137402587Y-106802587D01*
X145200000Y-114600000D01*
X146308638Y-114600000D01*
X146375677Y-114619685D01*
X146396319Y-114636319D01*
X146400000Y-114640000D01*
X146400000Y-120600000D01*
X136413440Y-120600000D01*
X136346401Y-120580315D01*
X136325759Y-120563681D01*
X136302262Y-120540184D01*
X136149524Y-120444212D01*
X136149525Y-120444212D01*
X136103503Y-120428108D01*
X136046728Y-120387385D01*
X136020982Y-120322432D01*
X136020776Y-120319913D01*
X136012095Y-120198533D01*
X135961813Y-120063724D01*
X135928328Y-120002401D01*
X135842104Y-119887220D01*
X135842099Y-119887215D01*
X135842094Y-119887209D01*
X134584881Y-118629996D01*
X136764435Y-118629996D01*
X136764435Y-118630003D01*
X136784630Y-118809249D01*
X136784631Y-118809254D01*
X136844211Y-118979523D01*
X136940184Y-119132262D01*
X137067738Y-119259816D01*
X137220478Y-119355789D01*
X137390745Y-119415368D01*
X137390750Y-119415369D01*
X137569996Y-119435565D01*
X137570000Y-119435565D01*
X137570004Y-119435565D01*
X137749249Y-119415369D01*
X137749252Y-119415368D01*
X137749255Y-119415368D01*
X137919522Y-119355789D01*
X138072262Y-119259816D01*
X138199816Y-119132262D01*
X138295789Y-118979522D01*
X138355368Y-118809255D01*
X138375565Y-118630000D01*
X138375565Y-118629996D01*
X139304435Y-118629996D01*
X139304435Y-118630003D01*
X139324630Y-118809249D01*
X139324631Y-118809254D01*
X139384211Y-118979523D01*
X139480184Y-119132262D01*
X139607738Y-119259816D01*
X139760478Y-119355789D01*
X139930745Y-119415368D01*
X139930750Y-119415369D01*
X140109996Y-119435565D01*
X140110000Y-119435565D01*
X140110004Y-119435565D01*
X140289249Y-119415369D01*
X140289252Y-119415368D01*
X140289255Y-119415368D01*
X140459522Y-119355789D01*
X140612262Y-119259816D01*
X140739816Y-119132262D01*
X140835789Y-118979522D01*
X140895368Y-118809255D01*
X140915565Y-118630000D01*
X140895368Y-118450745D01*
X140835789Y-118280478D01*
X140739816Y-118127738D01*
X140612262Y-118000184D01*
X140459523Y-117904211D01*
X140289254Y-117844631D01*
X140289249Y-117844630D01*
X140110004Y-117824435D01*
X140109996Y-117824435D01*
X139930750Y-117844630D01*
X139930745Y-117844631D01*
X139760476Y-117904211D01*
X139607737Y-118000184D01*
X139480184Y-118127737D01*
X139384211Y-118280476D01*
X139324631Y-118450745D01*
X139324630Y-118450750D01*
X139304435Y-118629996D01*
X138375565Y-118629996D01*
X138355368Y-118450745D01*
X138295789Y-118280478D01*
X138199816Y-118127738D01*
X138072262Y-118000184D01*
X137919523Y-117904211D01*
X137749254Y-117844631D01*
X137749249Y-117844630D01*
X137570004Y-117824435D01*
X137569996Y-117824435D01*
X137390750Y-117844630D01*
X137390745Y-117844631D01*
X137220476Y-117904211D01*
X137067737Y-118000184D01*
X136940184Y-118127737D01*
X136844211Y-118280476D01*
X136784631Y-118450745D01*
X136784630Y-118450750D01*
X136764435Y-118629996D01*
X134584881Y-118629996D01*
X132044880Y-116089996D01*
X136764435Y-116089996D01*
X136764435Y-116090003D01*
X136784630Y-116269249D01*
X136784631Y-116269254D01*
X136844211Y-116439523D01*
X136940184Y-116592262D01*
X137067738Y-116719816D01*
X137220478Y-116815789D01*
X137390745Y-116875368D01*
X137390750Y-116875369D01*
X137569996Y-116895565D01*
X137570000Y-116895565D01*
X137570004Y-116895565D01*
X137749249Y-116875369D01*
X137749252Y-116875368D01*
X137749255Y-116875368D01*
X137919522Y-116815789D01*
X138072262Y-116719816D01*
X138199816Y-116592262D01*
X138295789Y-116439522D01*
X138355368Y-116269255D01*
X138375565Y-116090000D01*
X138375565Y-116089996D01*
X139304435Y-116089996D01*
X139304435Y-116090003D01*
X139324630Y-116269249D01*
X139324631Y-116269254D01*
X139384211Y-116439523D01*
X139480184Y-116592262D01*
X139607738Y-116719816D01*
X139760478Y-116815789D01*
X139930745Y-116875368D01*
X139930750Y-116875369D01*
X140109996Y-116895565D01*
X140110000Y-116895565D01*
X140110004Y-116895565D01*
X140289249Y-116875369D01*
X140289252Y-116875368D01*
X140289255Y-116875368D01*
X140459522Y-116815789D01*
X140612262Y-116719816D01*
X140739816Y-116592262D01*
X140835789Y-116439522D01*
X140895368Y-116269255D01*
X140915565Y-116090000D01*
X140895368Y-115910745D01*
X140835789Y-115740478D01*
X140739816Y-115587738D01*
X140612262Y-115460184D01*
X140459523Y-115364211D01*
X140289254Y-115304631D01*
X140289249Y-115304630D01*
X140110004Y-115284435D01*
X140109996Y-115284435D01*
X139930750Y-115304630D01*
X139930745Y-115304631D01*
X139760476Y-115364211D01*
X139607737Y-115460184D01*
X139480184Y-115587737D01*
X139384211Y-115740476D01*
X139324631Y-115910745D01*
X139324630Y-115910750D01*
X139304435Y-116089996D01*
X138375565Y-116089996D01*
X138355368Y-115910745D01*
X138295789Y-115740478D01*
X138199816Y-115587738D01*
X138072262Y-115460184D01*
X137919523Y-115364211D01*
X137749254Y-115304631D01*
X137749249Y-115304630D01*
X137570004Y-115284435D01*
X137569996Y-115284435D01*
X137390750Y-115304630D01*
X137390745Y-115304631D01*
X137220476Y-115364211D01*
X137067737Y-115460184D01*
X136940184Y-115587737D01*
X136844211Y-115740476D01*
X136784631Y-115910745D01*
X136784630Y-115910750D01*
X136764435Y-116089996D01*
X132044880Y-116089996D01*
X129933776Y-113978892D01*
X129933761Y-113978877D01*
X129933737Y-113978855D01*
X129893519Y-113942728D01*
X129893507Y-113942718D01*
X129872856Y-113926076D01*
X129828974Y-113894433D01*
X129698100Y-113834663D01*
X129631055Y-113814976D01*
X129568992Y-113806053D01*
X129488638Y-113794500D01*
X110224500Y-113794500D01*
X110157461Y-113774815D01*
X110111706Y-113722011D01*
X110100500Y-113670500D01*
X110100500Y-104264000D01*
X110120185Y-104196961D01*
X110172989Y-104151206D01*
X110224500Y-104140000D01*
X134688638Y-104140000D01*
X134755677Y-104159685D01*
G37*
%TD.AperFunction*%
%TD*%
%TA.AperFunction,Conductor*%
%TO.N,/SW3*%
G36*
X129555677Y-114319685D02*
G01*
X129576319Y-114336319D01*
X135484662Y-120244662D01*
X135518147Y-120305985D01*
X135513163Y-120375677D01*
X135471291Y-120431610D01*
X135450793Y-120444058D01*
X135450484Y-120444206D01*
X135297737Y-120540184D01*
X135170184Y-120667737D01*
X135074211Y-120820476D01*
X135014631Y-120990745D01*
X135014630Y-120990750D01*
X134994435Y-121169996D01*
X134994435Y-121170003D01*
X135014630Y-121349249D01*
X135014631Y-121349254D01*
X135074211Y-121519523D01*
X135077622Y-121524951D01*
X135096622Y-121592188D01*
X135076254Y-121659023D01*
X135022987Y-121704237D01*
X134953730Y-121713475D01*
X134931674Y-121707965D01*
X134779257Y-121654632D01*
X134779249Y-121654630D01*
X134600004Y-121634435D01*
X134599996Y-121634435D01*
X134420750Y-121654630D01*
X134420742Y-121654632D01*
X134268325Y-121707965D01*
X134198546Y-121711526D01*
X134137919Y-121676797D01*
X134105692Y-121614804D01*
X134112098Y-121545228D01*
X134122382Y-121524944D01*
X134125789Y-121519522D01*
X134185368Y-121349255D01*
X134205565Y-121170000D01*
X134185368Y-120990745D01*
X134125789Y-120820478D01*
X134029816Y-120667738D01*
X133902262Y-120540184D01*
X133749523Y-120444211D01*
X133579254Y-120384631D01*
X133579249Y-120384630D01*
X133400004Y-120364435D01*
X133399996Y-120364435D01*
X133220750Y-120384630D01*
X133220745Y-120384631D01*
X133050476Y-120444211D01*
X132897737Y-120540184D01*
X132770184Y-120667737D01*
X132674211Y-120820476D01*
X132614631Y-120990745D01*
X132614630Y-120990750D01*
X132594435Y-121169996D01*
X132594435Y-121170003D01*
X132614630Y-121349249D01*
X132614631Y-121349254D01*
X132674211Y-121519523D01*
X132746416Y-121634435D01*
X132770184Y-121672262D01*
X132897738Y-121799816D01*
X133050478Y-121895789D01*
X133208202Y-121950979D01*
X133220745Y-121955368D01*
X133220750Y-121955369D01*
X133399996Y-121975565D01*
X133400000Y-121975565D01*
X133400004Y-121975565D01*
X133579249Y-121955369D01*
X133579251Y-121955368D01*
X133579255Y-121955368D01*
X133579258Y-121955366D01*
X133579262Y-121955366D01*
X133731673Y-121902035D01*
X133801452Y-121898473D01*
X133862079Y-121933201D01*
X133894307Y-121995195D01*
X133887902Y-122064770D01*
X133877624Y-122085044D01*
X133874212Y-122090473D01*
X133814631Y-122260745D01*
X133814630Y-122260750D01*
X133794435Y-122439996D01*
X133794435Y-122440003D01*
X133814630Y-122619249D01*
X133814631Y-122619254D01*
X133874211Y-122789523D01*
X133946416Y-122904435D01*
X133970184Y-122942262D01*
X134097738Y-123069816D01*
X134250478Y-123165789D01*
X134420745Y-123225368D01*
X134420750Y-123225369D01*
X134599996Y-123245565D01*
X134600000Y-123245565D01*
X134600004Y-123245565D01*
X134779249Y-123225369D01*
X134779252Y-123225368D01*
X134779255Y-123225368D01*
X134949522Y-123165789D01*
X135102262Y-123069816D01*
X135229816Y-122942262D01*
X135325789Y-122789522D01*
X135385368Y-122619255D01*
X135405565Y-122440000D01*
X135385368Y-122260745D01*
X135325789Y-122090478D01*
X135322379Y-122085051D01*
X135303377Y-122017814D01*
X135323743Y-121950979D01*
X135377010Y-121905763D01*
X135446266Y-121896524D01*
X135468326Y-121902035D01*
X135620737Y-121955366D01*
X135620743Y-121955367D01*
X135620745Y-121955368D01*
X135620746Y-121955368D01*
X135620750Y-121955369D01*
X135799996Y-121975565D01*
X135800000Y-121975565D01*
X135800004Y-121975565D01*
X135979249Y-121955369D01*
X135979252Y-121955368D01*
X135979255Y-121955368D01*
X136149522Y-121895789D01*
X136302262Y-121799816D01*
X136429816Y-121672262D01*
X136525789Y-121519522D01*
X136525791Y-121519514D01*
X136525931Y-121519227D01*
X136526074Y-121519067D01*
X136529494Y-121513626D01*
X136530446Y-121514224D01*
X136572748Y-121467363D01*
X136640174Y-121449044D01*
X136706800Y-121470085D01*
X136725337Y-121485337D01*
X142051280Y-126811280D01*
X142084765Y-126872603D01*
X142079781Y-126942295D01*
X142051280Y-126986642D01*
X142020184Y-127017737D01*
X141924211Y-127170476D01*
X141864631Y-127340745D01*
X141864630Y-127340750D01*
X141844435Y-127519996D01*
X141844435Y-127520003D01*
X141864630Y-127699249D01*
X141864631Y-127699254D01*
X141924211Y-127869523D01*
X142020184Y-128022262D01*
X142020185Y-128022263D01*
X142065241Y-128067320D01*
X142098725Y-128128643D01*
X142093740Y-128198335D01*
X142065241Y-128242680D01*
X142020184Y-128287737D01*
X141924211Y-128440476D01*
X141864631Y-128610745D01*
X141864630Y-128610750D01*
X141844435Y-128789996D01*
X141844435Y-128790003D01*
X141864630Y-128969249D01*
X141864631Y-128969254D01*
X141924211Y-129139523D01*
X141996416Y-129254435D01*
X142020184Y-129292262D01*
X142147738Y-129419816D01*
X142300478Y-129515789D01*
X142470745Y-129575368D01*
X142470750Y-129575369D01*
X142649996Y-129595565D01*
X142650000Y-129595565D01*
X142650004Y-129595565D01*
X142829249Y-129575369D01*
X142829252Y-129575368D01*
X142829255Y-129575368D01*
X142999522Y-129515789D01*
X143152262Y-129419816D01*
X143279816Y-129292262D01*
X143375789Y-129139522D01*
X143435368Y-128969255D01*
X143455565Y-128790000D01*
X143435368Y-128610745D01*
X143435367Y-128610743D01*
X143435366Y-128610737D01*
X143391221Y-128484579D01*
X143387659Y-128414800D01*
X143422387Y-128354173D01*
X143484380Y-128321945D01*
X143553956Y-128328350D01*
X143595943Y-128355943D01*
X146963681Y-131723681D01*
X146997166Y-131785004D01*
X147000000Y-131811362D01*
X147000000Y-132600000D01*
X147000000Y-137894500D01*
X140660746Y-137894500D01*
X140593707Y-137874815D01*
X140573065Y-137858181D01*
X139730829Y-137015945D01*
X139697344Y-136954622D01*
X139702328Y-136884930D01*
X139744200Y-136828997D01*
X139804627Y-136805044D01*
X139979249Y-136785369D01*
X139979252Y-136785368D01*
X139979255Y-136785368D01*
X140149522Y-136725789D01*
X140302262Y-136629816D01*
X140429816Y-136502262D01*
X140525789Y-136349522D01*
X140585368Y-136179255D01*
X140585369Y-136179249D01*
X140605565Y-136000003D01*
X140605565Y-135999996D01*
X140585369Y-135820750D01*
X140585368Y-135820745D01*
X140525788Y-135650476D01*
X140429815Y-135497737D01*
X140302262Y-135370184D01*
X140149523Y-135274211D01*
X139979254Y-135214631D01*
X139979249Y-135214630D01*
X139800004Y-135194435D01*
X139799996Y-135194435D01*
X139620750Y-135214630D01*
X139620745Y-135214631D01*
X139450476Y-135274211D01*
X139297737Y-135370184D01*
X139170184Y-135497737D01*
X139074211Y-135650476D01*
X139014631Y-135820745D01*
X139014630Y-135820749D01*
X138994955Y-135995373D01*
X138967888Y-136059787D01*
X138910293Y-136099342D01*
X138840456Y-136101479D01*
X138784054Y-136069170D01*
X137190829Y-134475945D01*
X137157344Y-134414622D01*
X137162328Y-134344930D01*
X137204200Y-134288997D01*
X137264627Y-134265044D01*
X137439249Y-134245369D01*
X137439252Y-134245368D01*
X137439255Y-134245368D01*
X137609522Y-134185789D01*
X137762262Y-134089816D01*
X137889816Y-133962262D01*
X137985789Y-133809522D01*
X138045368Y-133639255D01*
X138065565Y-133460000D01*
X138065565Y-133459996D01*
X138994435Y-133459996D01*
X138994435Y-133460003D01*
X139014630Y-133639249D01*
X139014631Y-133639254D01*
X139074211Y-133809523D01*
X139090787Y-133835903D01*
X139170184Y-133962262D01*
X139297738Y-134089816D01*
X139450478Y-134185789D01*
X139620745Y-134245368D01*
X139620750Y-134245369D01*
X139799996Y-134265565D01*
X139800000Y-134265565D01*
X139800004Y-134265565D01*
X139979249Y-134245369D01*
X139979252Y-134245368D01*
X139979255Y-134245368D01*
X140149522Y-134185789D01*
X140302262Y-134089816D01*
X140429816Y-133962262D01*
X140525789Y-133809522D01*
X140585368Y-133639255D01*
X140605565Y-133460000D01*
X140597156Y-133385368D01*
X140585369Y-133280750D01*
X140585368Y-133280745D01*
X140525788Y-133110476D01*
X140429815Y-132957737D01*
X140302262Y-132830184D01*
X140149523Y-132734211D01*
X139979254Y-132674631D01*
X139979249Y-132674630D01*
X139800004Y-132654435D01*
X139799996Y-132654435D01*
X139620750Y-132674630D01*
X139620745Y-132674631D01*
X139450476Y-132734211D01*
X139297737Y-132830184D01*
X139170184Y-132957737D01*
X139074211Y-133110476D01*
X139014631Y-133280745D01*
X139014630Y-133280750D01*
X138994435Y-133459996D01*
X138065565Y-133459996D01*
X138057156Y-133385368D01*
X138045369Y-133280750D01*
X138045368Y-133280745D01*
X137985788Y-133110476D01*
X137889815Y-132957737D01*
X137762262Y-132830184D01*
X137609523Y-132734211D01*
X137439254Y-132674631D01*
X137439249Y-132674630D01*
X137260004Y-132654435D01*
X137259996Y-132654435D01*
X137236777Y-132657051D01*
X137167955Y-132644996D01*
X137116576Y-132597647D01*
X137099674Y-132547714D01*
X137085369Y-132420750D01*
X137085368Y-132420745D01*
X137025788Y-132250476D01*
X136929815Y-132097737D01*
X136802262Y-131970184D01*
X136649523Y-131874211D01*
X136479254Y-131814631D01*
X136479249Y-131814630D01*
X136300004Y-131794435D01*
X136299996Y-131794435D01*
X136120750Y-131814630D01*
X136120745Y-131814631D01*
X135950476Y-131874211D01*
X135797737Y-131970184D01*
X135670184Y-132097737D01*
X135574211Y-132250476D01*
X135514631Y-132420745D01*
X135514630Y-132420750D01*
X135505082Y-132505499D01*
X135478016Y-132569913D01*
X135420421Y-132609469D01*
X135350584Y-132611606D01*
X135294181Y-132579297D01*
X132774880Y-130059996D01*
X134224435Y-130059996D01*
X134224435Y-130060003D01*
X134244630Y-130239249D01*
X134244631Y-130239254D01*
X134304211Y-130409523D01*
X134400184Y-130562262D01*
X134527738Y-130689816D01*
X134680478Y-130785789D01*
X134850745Y-130845368D01*
X134850750Y-130845369D01*
X135029996Y-130865565D01*
X135030000Y-130865565D01*
X135030004Y-130865565D01*
X135209249Y-130845369D01*
X135209252Y-130845368D01*
X135209255Y-130845368D01*
X135379522Y-130785789D01*
X135532262Y-130689816D01*
X135659816Y-130562262D01*
X135755789Y-130409522D01*
X135815368Y-130239255D01*
X135835565Y-130060000D01*
X135815368Y-129880745D01*
X135755789Y-129710478D01*
X135659816Y-129557738D01*
X135532262Y-129430184D01*
X135379523Y-129334211D01*
X135209254Y-129274631D01*
X135209249Y-129274630D01*
X135030004Y-129254435D01*
X135029996Y-129254435D01*
X134850750Y-129274630D01*
X134850745Y-129274631D01*
X134680476Y-129334211D01*
X134527737Y-129430184D01*
X134400184Y-129557737D01*
X134304211Y-129710476D01*
X134244631Y-129880745D01*
X134244630Y-129880750D01*
X134224435Y-130059996D01*
X132774880Y-130059996D01*
X127193776Y-124478892D01*
X127193761Y-124478877D01*
X127193737Y-124478855D01*
X127153519Y-124442728D01*
X127153507Y-124442718D01*
X127132856Y-124426076D01*
X127088974Y-124394433D01*
X126958100Y-124334663D01*
X126891055Y-124314976D01*
X126828992Y-124306053D01*
X126748638Y-124294500D01*
X110224500Y-124294500D01*
X110157461Y-124274815D01*
X110111706Y-124222011D01*
X110100500Y-124170500D01*
X110100500Y-114424000D01*
X110120185Y-114356961D01*
X110172989Y-114311206D01*
X110224500Y-114300000D01*
X129488638Y-114300000D01*
X129555677Y-114319685D01*
G37*
%TD.AperFunction*%
%TD*%
%TA.AperFunction,Conductor*%
%TO.N,+24V*%
G36*
X173825939Y-73819685D02*
G01*
X173871694Y-73872489D01*
X173881016Y-73902468D01*
X173899165Y-74005401D01*
X173971010Y-74202793D01*
X173971013Y-74202800D01*
X174076042Y-74384714D01*
X174076044Y-74384718D01*
X174211066Y-74545631D01*
X174211074Y-74545639D01*
X174331756Y-74646901D01*
X174371986Y-74680658D01*
X174553905Y-74785689D01*
X174751299Y-74857535D01*
X174958170Y-74894011D01*
X174997309Y-74894011D01*
X183688701Y-74894011D01*
X183755740Y-74913696D01*
X183801495Y-74966500D01*
X183812701Y-75018011D01*
X183812701Y-90094011D01*
X183793016Y-90161050D01*
X183740212Y-90206805D01*
X183688701Y-90218011D01*
X174997309Y-90218011D01*
X174870013Y-90252119D01*
X174755887Y-90318011D01*
X174755884Y-90318013D01*
X174662703Y-90411194D01*
X174662701Y-90411197D01*
X174596809Y-90525323D01*
X174562701Y-90652619D01*
X174562701Y-145515500D01*
X174543016Y-145582539D01*
X174490212Y-145628294D01*
X174438701Y-145639500D01*
X110224500Y-145639500D01*
X110157461Y-145619815D01*
X110111706Y-145567011D01*
X110100500Y-145515500D01*
X110100500Y-139759995D01*
X115534732Y-139759995D01*
X115534732Y-139760004D01*
X115553777Y-140014154D01*
X115553778Y-140014157D01*
X115610492Y-140262637D01*
X115703607Y-140499888D01*
X115831041Y-140720612D01*
X115989950Y-140919877D01*
X116176783Y-141093232D01*
X116387366Y-141236805D01*
X116387371Y-141236807D01*
X116387372Y-141236808D01*
X116387373Y-141236809D01*
X116509328Y-141295538D01*
X116616992Y-141347387D01*
X116616993Y-141347387D01*
X116616996Y-141347389D01*
X116860542Y-141422513D01*
X117112565Y-141460500D01*
X117367435Y-141460500D01*
X117619458Y-141422513D01*
X117863004Y-141347389D01*
X118092634Y-141236805D01*
X118303217Y-141093232D01*
X118490050Y-140919877D01*
X118648959Y-140720612D01*
X118776393Y-140499888D01*
X118869508Y-140262637D01*
X118926222Y-140014157D01*
X118945268Y-139760000D01*
X118945268Y-139759995D01*
X125694732Y-139759995D01*
X125694732Y-139760004D01*
X125713777Y-140014154D01*
X125713778Y-140014157D01*
X125770492Y-140262637D01*
X125863607Y-140499888D01*
X125991041Y-140720612D01*
X126149950Y-140919877D01*
X126336783Y-141093232D01*
X126547366Y-141236805D01*
X126547371Y-141236807D01*
X126547372Y-141236808D01*
X126547373Y-141236809D01*
X126669328Y-141295538D01*
X126776992Y-141347387D01*
X126776993Y-141347387D01*
X126776996Y-141347389D01*
X127020542Y-141422513D01*
X127272565Y-141460500D01*
X127527435Y-141460500D01*
X127779458Y-141422513D01*
X128023004Y-141347389D01*
X128252634Y-141236805D01*
X128463217Y-141093232D01*
X128650050Y-140919877D01*
X128808959Y-140720612D01*
X128936393Y-140499888D01*
X129029508Y-140262637D01*
X129086222Y-140014157D01*
X129105268Y-139760000D01*
X129086222Y-139505843D01*
X129029508Y-139257363D01*
X128936393Y-139020112D01*
X128808959Y-138799388D01*
X128650050Y-138600123D01*
X128463217Y-138426768D01*
X128252634Y-138283195D01*
X128252630Y-138283193D01*
X128252627Y-138283191D01*
X128252626Y-138283190D01*
X128023006Y-138172612D01*
X128023008Y-138172612D01*
X127779466Y-138097489D01*
X127779462Y-138097488D01*
X127779458Y-138097487D01*
X127658231Y-138079214D01*
X127527440Y-138059500D01*
X127527435Y-138059500D01*
X127272565Y-138059500D01*
X127272559Y-138059500D01*
X127115609Y-138083157D01*
X127020542Y-138097487D01*
X127020539Y-138097488D01*
X127020533Y-138097489D01*
X126776992Y-138172612D01*
X126547373Y-138283190D01*
X126547372Y-138283191D01*
X126336782Y-138426768D01*
X126149952Y-138600121D01*
X126149950Y-138600123D01*
X125991041Y-138799388D01*
X125863608Y-139020109D01*
X125770492Y-139257362D01*
X125770490Y-139257369D01*
X125713777Y-139505845D01*
X125694732Y-139759995D01*
X118945268Y-139759995D01*
X118926222Y-139505843D01*
X118869508Y-139257363D01*
X118776393Y-139020112D01*
X118648959Y-138799388D01*
X118490050Y-138600123D01*
X118303217Y-138426768D01*
X118092634Y-138283195D01*
X118092630Y-138283193D01*
X118092627Y-138283191D01*
X118092626Y-138283190D01*
X117863006Y-138172612D01*
X117863008Y-138172612D01*
X117619466Y-138097489D01*
X117619462Y-138097488D01*
X117619458Y-138097487D01*
X117498231Y-138079214D01*
X117367440Y-138059500D01*
X117367435Y-138059500D01*
X117112565Y-138059500D01*
X117112559Y-138059500D01*
X116955609Y-138083157D01*
X116860542Y-138097487D01*
X116860539Y-138097488D01*
X116860533Y-138097489D01*
X116616992Y-138172612D01*
X116387373Y-138283190D01*
X116387372Y-138283191D01*
X116176782Y-138426768D01*
X115989952Y-138600121D01*
X115989950Y-138600123D01*
X115831041Y-138799388D01*
X115703608Y-139020109D01*
X115610492Y-139257362D01*
X115610490Y-139257369D01*
X115553777Y-139505845D01*
X115534732Y-139759995D01*
X110100500Y-139759995D01*
X110100500Y-124924000D01*
X110120185Y-124856961D01*
X110172989Y-124811206D01*
X110224500Y-124800000D01*
X126748638Y-124800000D01*
X126815677Y-124819685D01*
X126836319Y-124836319D01*
X140400000Y-138400000D01*
X160042864Y-138400000D01*
X160083819Y-138406958D01*
X160250745Y-138465368D01*
X160250750Y-138465369D01*
X160429996Y-138485565D01*
X160430000Y-138485565D01*
X160430004Y-138485565D01*
X160609249Y-138465369D01*
X160609252Y-138465368D01*
X160609255Y-138465368D01*
X160776181Y-138406957D01*
X160817136Y-138400000D01*
X161312864Y-138400000D01*
X161353819Y-138406958D01*
X161520745Y-138465368D01*
X161520750Y-138465369D01*
X161699996Y-138485565D01*
X161700000Y-138485565D01*
X161700004Y-138485565D01*
X161879249Y-138465369D01*
X161879252Y-138465368D01*
X161879255Y-138465368D01*
X162046181Y-138406957D01*
X162087136Y-138400000D01*
X162582864Y-138400000D01*
X162623819Y-138406958D01*
X162790745Y-138465368D01*
X162790750Y-138465369D01*
X162969996Y-138485565D01*
X162970000Y-138485565D01*
X162970004Y-138485565D01*
X163149249Y-138465369D01*
X163149252Y-138465368D01*
X163149255Y-138465368D01*
X163319522Y-138405789D01*
X163472262Y-138309816D01*
X163599816Y-138182262D01*
X163695789Y-138029522D01*
X163755368Y-137859255D01*
X163775565Y-137680000D01*
X163761164Y-137552189D01*
X163773218Y-137483370D01*
X163796570Y-137450762D01*
X164009969Y-137236762D01*
X164071240Y-137203195D01*
X164111652Y-137201104D01*
X164239997Y-137215565D01*
X164240000Y-137215565D01*
X164240004Y-137215565D01*
X164419249Y-137195369D01*
X164419252Y-137195368D01*
X164419255Y-137195368D01*
X164589522Y-137135789D01*
X164742262Y-137039816D01*
X164869816Y-136912262D01*
X164965789Y-136759522D01*
X165025368Y-136589255D01*
X165045565Y-136410000D01*
X165045565Y-136409996D01*
X165030803Y-136278977D01*
X165042858Y-136210155D01*
X165066213Y-136177543D01*
X166400000Y-134840000D01*
X166400000Y-134830000D01*
X166400000Y-77451362D01*
X166419685Y-77384323D01*
X166436319Y-77363681D01*
X169963681Y-73836319D01*
X170025004Y-73802834D01*
X170051362Y-73800000D01*
X173758900Y-73800000D01*
X173825939Y-73819685D01*
G37*
%TD.AperFunction*%
%TD*%
M02*
