M48
; DRILL file {KiCad 9.0.8+dfsg-1} date 2026-06-01T20:41:08-0400
; FORMAT={-:-/ absolute / inch / decimal}
; #@! TF.CreationDate,2026-06-01T20:41:08-04:00
; #@! TF.GenerationSoftware,Kicad,Pcbnew,9.0.8+dfsg-1
; #@! TF.FileFunction,Plated,1,4,PTH
FMAT,2
INCH
; #@! TA.AperFunction,Plated,PTH,ViaDrill
T1C0.0118
; #@! TA.AperFunction,Plated,PTH,ComponentDrill
T2C0.0118
; #@! TA.AperFunction,Plated,PTH,ViaDrill
T3C0.0120
; #@! TA.AperFunction,Plated,PTH,ComponentDrill
T4C0.0197
; #@! TA.AperFunction,Plated,PTH,ComponentDrill
T5C0.0276
; #@! TA.AperFunction,Plated,PTH,ComponentDrill
T6C0.0350
; #@! TA.AperFunction,Plated,PTH,ComponentDrill
T7C0.0402
; #@! TA.AperFunction,Plated,PTH,ComponentDrill
T8C0.0469
; #@! TA.AperFunction,Plated,PTH,ComponentDrill
T9C0.0630
; #@! TA.AperFunction,Plated,PTH,ComponentDrill
T10C0.0642
; #@! TA.AperFunction,Plated,PTH,ComponentDrill
T11C0.1181
%
G90
G05
T1
X3.2106Y-2.4803
X3.2598Y-3.1181
X3.2598Y-3.8268
X3.3465Y-2.5118
X3.4244Y-2.4167
X3.4488Y-2.5748
X3.4795Y-2.4167
X3.4882Y-2.4882
X3.5197Y-2.5984
X3.5295Y-4.8445
X3.5433Y-3.1181
X3.5598Y-3.8268
X3.5669Y-2.8819
X3.5764Y-3.6063
X3.5827Y-2.5827
X3.6299Y-2.6693
X3.6449Y-2.4152
X3.6457Y-2.4882
X3.7165Y-3.0315
X3.7181Y-2.7382
X3.7181Y-2.9587
X3.7323Y-2.8563
X3.7638Y-2.748
X3.7638Y-2.9921
X3.7815Y-4.9602
X3.7874Y-2.9134
X3.7886Y-4.1354
X3.8031Y-2.6142
X3.811Y-2.3386
X3.8189Y-2.4961
X3.8346Y-2.6142
X3.8504Y-4.063
X3.8504Y-4.0945
X3.8504Y-4.3228
X3.8504Y-4.9528
X3.8504Y-5.1417
X3.8535Y-4.4961
X3.8583Y-4.189
X3.8583Y-4.5433
X3.8583Y-4.5713
X3.8583Y-5.3386
X3.8797Y-4.2278
X3.8797Y-4.4049
X3.8819Y-4.2868
X3.8819Y-4.3459
X3.8819Y-4.464
X3.8835Y-5.0
X3.8835Y-5.0551
X3.8835Y-5.1102
X3.8835Y-5.1654
X3.8835Y-5.2756
X3.887Y-5.2232
X3.8907Y-3.3711
X3.8917Y-3.4646
X3.9213Y-2.9685
X3.9291Y-3.2677
X3.9291Y-3.3701
X3.9291Y-3.4646
X3.937Y-3.2126
X3.937Y-4.5354
X3.9528Y-2.8969
X3.9622Y-2.2205
X3.9665Y-3.3701
X3.9665Y-3.4646
X3.9685Y-4.0787
X3.9868Y-2.3767
X3.9913Y-2.408
X3.9921Y-2.685
X3.9921Y-2.7795
X3.9921Y-2.8189
X3.9921Y-3.2992
X3.9963Y-2.3454
X4.0236Y-2.2205
X4.0236Y-2.2913
X4.0236Y-2.9449
X4.0315Y-3.0079
X4.0472Y-3.0472
X4.063Y-3.0787
X4.0709Y-3.315
X4.0787Y-4.2992
X4.0945Y-2.6772
X4.1024Y-3.2835
X4.1024Y-5.0472
X4.1024Y-5.2205
X4.1102Y-2.5118
X4.1102Y-2.5906
X4.1102Y-3.4094
X4.1102Y-4.2283
X4.1102Y-4.4094
X4.1181Y-3.5827
X4.1181Y-3.6063
X4.1181Y-3.6299
X4.1181Y-3.6535
X4.1181Y-3.6772
X4.1181Y-3.7008
X4.1181Y-3.7244
X4.1181Y-3.748
X4.1181Y-3.7717
X4.1181Y-3.7953
X4.1181Y-3.8189
X4.1181Y-3.8425
X4.1181Y-3.8661
X4.1181Y-3.8898
X4.1181Y-3.9134
X4.1181Y-3.937
X4.1181Y-3.9606
X4.1181Y-3.9843
X4.1181Y-4.5354
X4.126Y-2.2205
X4.1339Y-3.5591
X4.1339Y-4.0
X4.1417Y-2.5118
X4.1496Y-3.5433
X4.1496Y-4.0157
X4.1654Y-2.4331
X4.1654Y-3.0945
X4.1654Y-3.5276
X4.1654Y-4.0315
X4.1654Y-5.4173
X4.1811Y-2.5118
X4.1811Y-3.2835
X4.1811Y-3.5118
X4.1811Y-4.0472
X4.189Y-2.2047
X4.189Y-2.378
X4.189Y-2.6378
X4.189Y-3.126
X4.189Y-5.3898
X4.1897Y-3.0165
X4.1913Y-5.4367
X4.1969Y-3.1575
X4.1969Y-3.4961
X4.1969Y-4.063
X4.2031Y-5.4682
X4.2126Y-3.4803
X4.2126Y-4.0787
X4.2137Y-3.0472
X4.2205Y-2.3275
X4.2205Y-2.4803
X4.2273Y-5.4877
X4.2283Y-3.4646
X4.2283Y-4.0945
X4.2385Y-3.0709
X4.2438Y-2.8075
X4.2441Y-2.7795
X4.2441Y-3.4488
X4.2441Y-4.1102
X4.2485Y-2.3275
X4.2492Y-3.6516
X4.2492Y-3.6811
X4.2492Y-3.7106
X4.2492Y-3.7402
X4.2492Y-3.7697
X4.2492Y-3.7992
X4.2492Y-3.8287
X4.2492Y-3.8583
X4.2492Y-3.8878
X4.2492Y-3.9173
X4.2492Y-3.9469
X4.2492Y-3.9764
X4.252Y-2.622
X4.2598Y-3.4331
X4.2598Y-4.126
X4.2618Y-3.502
X4.2618Y-3.5315
X4.2618Y-3.561
X4.2618Y-3.5906
X4.2677Y-2.2362
X4.2756Y-3.4173
X4.2787Y-3.6516
X4.2787Y-3.6811
X4.2787Y-3.7106
X4.2787Y-3.7402
X4.2787Y-3.7697
X4.2787Y-3.7992
X4.2787Y-3.8287
X4.2787Y-3.8583
X4.2787Y-3.8878
X4.2787Y-3.9173
X4.2787Y-3.9469
X4.2787Y-3.9764
X4.2913Y-3.0866
X4.2913Y-3.4016
X4.2913Y-3.502
X4.2913Y-3.5315
X4.2913Y-3.561
X4.2913Y-3.5906
X4.2948Y-2.3275
X4.2992Y-2.7795
X4.3071Y-2.2362
X4.3071Y-2.6693
X4.3071Y-3.3858
X4.315Y-2.4521
X4.3166Y-2.8205
X4.3228Y-3.3701
X4.3307Y-2.3275
X4.3307Y-2.7795
X4.3386Y-3.3543
X4.3386Y-4.2283
X4.3386Y-4.252
X4.3386Y-4.2756
X4.3386Y-4.2992
X4.3386Y-4.3228
X4.3386Y-4.3465
X4.3386Y-4.3701
X4.3386Y-4.3937
X4.3386Y-4.4173
X4.3386Y-4.5118
X4.3386Y-4.5354
X4.3386Y-4.5591
X4.3386Y-4.5827
X4.3386Y-4.6063
X4.3386Y-4.6299
X4.3386Y-4.6535
X4.3386Y-4.6772
X4.3386Y-4.7008
X4.3386Y-4.7244
X4.3386Y-4.748
X4.3386Y-4.7717
X4.3386Y-4.7953
X4.3386Y-4.8189
X4.3386Y-4.8425
X4.3386Y-4.8661
X4.3386Y-4.8898
X4.3386Y-4.9134
X4.3386Y-4.937
X4.3386Y-4.9606
X4.3386Y-4.9843
X4.3386Y-5.0079
X4.3386Y-5.0315
X4.3386Y-5.0551
X4.3386Y-5.0787
X4.3386Y-5.1024
X4.3386Y-5.126
X4.3386Y-5.1496
X4.3386Y-5.1732
X4.3386Y-5.1969
X4.3386Y-5.2205
X4.3386Y-5.2441
X4.3386Y-5.2677
X4.3386Y-5.2913
X4.3386Y-5.315
X4.3386Y-5.3386
X4.3386Y-5.3622
X4.3386Y-5.3858
X4.3386Y-5.4094
X4.3543Y-3.3386
X4.3679Y-3.6443
X4.3679Y-3.6738
X4.3679Y-3.7033
X4.3679Y-3.7329
X4.3679Y-3.7624
X4.3679Y-3.7919
X4.3679Y-3.8214
X4.3679Y-3.851
X4.3679Y-3.8805
X4.3679Y-3.91
X4.3679Y-3.9396
X4.3679Y-3.9691
X4.3701Y-2.5354
X4.3701Y-2.7953
X4.3701Y-3.3228
X4.3858Y-3.3071
X4.3937Y-4.0709
X4.3937Y-4.1004
X4.3937Y-4.1299
X4.3974Y-3.6443
X4.3974Y-3.6738
X4.3974Y-3.7033
X4.3974Y-3.7329
X4.3974Y-3.7624
X4.3974Y-3.7919
X4.3974Y-3.8214
X4.3974Y-3.851
X4.3974Y-3.8805
X4.3974Y-3.91
X4.3974Y-3.9396
X4.3974Y-3.9691
X4.4016Y-2.7953
X4.4016Y-3.2913
X4.4094Y-2.4567
X4.4173Y-2.9528
X4.4173Y-3.0315
X4.4173Y-3.0866
X4.4173Y-3.2756
X4.4203Y-4.0719
X4.4203Y-4.1014
X4.4203Y-4.1309
X4.427Y-3.6443
X4.427Y-3.6738
X4.427Y-3.7033
X4.427Y-3.7329
X4.427Y-3.7624
X4.427Y-3.7919
X4.427Y-3.8214
X4.427Y-3.851
X4.427Y-3.8805
X4.427Y-3.91
X4.427Y-3.9396
X4.427Y-3.9691
X4.4331Y-2.7953
X4.4331Y-3.2598
X4.4409Y-2.4567
X4.4409Y-2.937
X4.4409Y-4.1882
X4.4488Y-3.2441
X4.4498Y-4.0719
X4.4498Y-4.1014
X4.4498Y-4.1309
X4.4565Y-3.6443
X4.4565Y-3.6738
X4.4565Y-3.7033
X4.4565Y-3.7329
X4.4565Y-3.7624
X4.4565Y-3.7919
X4.4565Y-3.8214
X4.4565Y-3.851
X4.4565Y-3.8805
X4.4565Y-3.91
X4.4565Y-3.9396
X4.4565Y-3.9691
X4.4646Y-2.9528
X4.4646Y-3.2283
X4.4774Y-3.4734
X4.4803Y-3.2126
X4.4803Y-4.126
X4.4803Y-4.1654
X4.5007Y-3.126
X4.5087Y-4.7559
X4.5099Y-3.4567
X4.5118Y-2.5827
X4.514Y-3.8671
X4.514Y-3.8967
X4.514Y-3.9262
X4.514Y-3.9557
X4.514Y-3.9852
X4.514Y-4.0148
X4.514Y-4.0443
X4.515Y-3.7165
X4.515Y-3.7461
X4.515Y-3.7756
X4.515Y-3.8051
X4.515Y-3.8346
X4.5169Y-3.5709
X4.5169Y-3.6004
X4.5169Y-3.6299
X4.5169Y-3.6594
X4.5169Y-3.689
X4.5276Y-3.0472
X4.5287Y-3.126
X4.5435Y-3.8671
X4.5435Y-3.8967
X4.5435Y-3.9262
X4.5435Y-3.9557
X4.5435Y-3.9852
X4.5435Y-4.0148
X4.5435Y-4.0443
X4.5441Y-3.4567
X4.5445Y-3.7165
X4.5445Y-3.7461
X4.5445Y-3.7756
X4.5445Y-3.8051
X4.5445Y-3.8346
X4.5465Y-3.5709
X4.5465Y-3.6004
X4.5465Y-3.6299
X4.5465Y-3.6594
X4.5465Y-3.689
X4.5591Y-2.2283
X4.5591Y-2.9528
X4.5701Y-3.8681
X4.5701Y-3.8976
X4.5701Y-3.9272
X4.5701Y-3.9567
X4.5701Y-3.9862
X4.5701Y-4.0157
X4.5701Y-4.0453
X4.5827Y-2.7828
X4.5906Y-2.378
X4.5906Y-2.4094
X4.5906Y-2.5433
X4.5906Y-2.5827
X4.5906Y-2.6142
X4.5906Y-2.685
X4.5906Y-2.8189
X4.5996Y-3.8681
X4.5996Y-3.8976
X4.5996Y-3.9272
X4.5996Y-3.9567
X4.5996Y-3.9862
X4.5996Y-4.0157
X4.5996Y-4.0453
X4.6063Y-3.1417
X4.6142Y-4.5787
X4.6142Y-4.6378
X4.6142Y-4.6969
X4.6142Y-4.7559
X4.6142Y-4.815
X4.6142Y-4.874
X4.6142Y-4.9331
X4.6142Y-4.9921
X4.6142Y-5.0512
X4.6142Y-5.1102
X4.6142Y-5.1693
X4.6142Y-5.2283
X4.6142Y-5.2874
X4.6142Y-5.3465
X4.6181Y-5.4165
X4.6181Y-5.4811
X4.6299Y-3.1417
X4.6339Y-2.189
X4.6457Y-2.849
X4.6535Y-3.1417
X4.666Y-3.8892
X4.666Y-3.9188
X4.666Y-3.9483
X4.666Y-3.9778
X4.666Y-4.0073
X4.666Y-4.0369
X4.666Y-4.0646
X4.666Y-4.0942
X4.6665Y-3.6535
X4.6665Y-3.6831
X4.6665Y-3.7126
X4.6665Y-3.7421
X4.6665Y-3.7717
X4.6665Y-3.8012
X4.6665Y-3.8307
X4.6665Y-3.8602
X4.6701Y-2.8898
X4.6713Y-3.561
X4.6713Y-3.5906
X4.6732Y-4.5787
X4.6732Y-4.6378
X4.6732Y-4.6969
X4.6732Y-4.7559
X4.6732Y-4.815
X4.6732Y-4.874
X4.6732Y-4.9331
X4.6732Y-4.9921
X4.6732Y-5.0512
X4.6732Y-5.1102
X4.6732Y-5.1693
X4.6732Y-5.2283
X4.6732Y-5.2874
X4.6732Y-5.3465
X4.6772Y-3.1417
X4.6955Y-3.8892
X4.6955Y-3.9188
X4.6955Y-3.9483
X4.6955Y-3.9778
X4.6955Y-4.0073
X4.6955Y-4.0369
X4.6955Y-4.0646
X4.6955Y-4.0942
X4.6961Y-3.6535
X4.6961Y-3.6831
X4.6961Y-3.7126
X4.6961Y-3.7421
X4.6961Y-3.7717
X4.6961Y-3.8012
X4.6961Y-3.8307
X4.6961Y-3.8602
X4.7008Y-2.5984
X4.7008Y-2.7874
X4.7008Y-3.1417
X4.7008Y-3.561
X4.7008Y-3.5906
X4.7087Y-2.2047
X4.7087Y-2.3465
X4.7087Y-2.5669
X4.7087Y-2.8583
X4.7165Y-2.4646
X4.7244Y-3.1417
X4.7251Y-3.8892
X4.7251Y-3.9188
X4.7251Y-3.9483
X4.7251Y-3.9778
X4.7251Y-4.0073
X4.7251Y-4.0369
X4.7251Y-4.0646
X4.7251Y-4.0942
X4.7256Y-3.6535
X4.7256Y-3.6831
X4.7256Y-3.7126
X4.7256Y-3.7421
X4.7256Y-3.7717
X4.7256Y-3.8012
X4.7256Y-3.8307
X4.7256Y-3.8602
X4.7303Y-3.561
X4.7303Y-3.5906
X4.7323Y-2.3701
X4.7323Y-4.5787
X4.7323Y-4.6378
X4.7323Y-4.6969
X4.7323Y-4.7559
X4.7323Y-4.815
X4.7323Y-4.874
X4.7323Y-4.9331
X4.7323Y-4.9921
X4.7323Y-5.0512
X4.7323Y-5.1102
X4.7323Y-5.1693
X4.7323Y-5.2283
X4.7323Y-5.2874
X4.7323Y-5.3465
X4.7385Y-2.5653
X4.748Y-3.1417
X4.7546Y-3.8892
X4.7546Y-3.9188
X4.7546Y-3.9483
X4.7546Y-3.9778
X4.7546Y-4.0073
X4.7546Y-4.0369
X4.7546Y-4.0646
X4.7546Y-4.0942
X4.7551Y-3.6535
X4.7551Y-3.6831
X4.7551Y-3.7126
X4.7551Y-3.7421
X4.7551Y-3.7717
X4.7551Y-3.8012
X4.7551Y-3.8307
X4.7551Y-3.8602
X4.7598Y-3.561
X4.7598Y-3.5906
X4.7638Y-2.4094
X4.7717Y-3.1417
X4.7795Y-2.811
X4.7795Y-2.8819
X4.7913Y-4.5787
X4.7913Y-4.6378
X4.7913Y-4.6969
X4.7913Y-4.7559
X4.7913Y-4.815
X4.7913Y-4.874
X4.7913Y-4.9331
X4.7913Y-4.9921
X4.7913Y-5.0512
X4.7913Y-5.1102
X4.7913Y-5.1693
X4.7913Y-5.2283
X4.7913Y-5.2874
X4.7913Y-5.3465
X4.7953Y-3.1417
X4.8031Y-2.7874
X4.8031Y-2.8583
X4.8189Y-2.5118
X4.8189Y-2.5433
X4.8189Y-2.5748
X4.8189Y-2.6245
X4.8189Y-3.1417
X4.826Y-2.4094
X4.8346Y-2.4567
X4.8366Y-3.6516
X4.8366Y-3.6811
X4.8366Y-3.7106
X4.8366Y-3.7402
X4.8366Y-3.7697
X4.8366Y-3.7992
X4.8366Y-3.8287
X4.8366Y-3.8583
X4.8366Y-3.8878
X4.8366Y-3.9173
X4.8366Y-3.9469
X4.8366Y-3.9764
X4.8425Y-3.1417
X4.8504Y-4.5787
X4.8504Y-4.6378
X4.8504Y-4.6969
X4.8504Y-4.7559
X4.8504Y-4.815
X4.8504Y-4.9921
X4.8504Y-5.0512
X4.8504Y-5.1102
X4.8504Y-5.1693
X4.8504Y-5.2283
X4.8504Y-5.4055
X4.8583Y-2.3543
X4.8583Y-2.4331
X4.8661Y-3.1417
X4.8661Y-3.6516
X4.8661Y-3.6811
X4.8661Y-3.7106
X4.8661Y-3.7402
X4.8661Y-3.7697
X4.8661Y-3.7992
X4.8661Y-3.8287
X4.8661Y-3.8583
X4.8661Y-3.8878
X4.8661Y-3.9173
X4.8661Y-3.9469
X4.8661Y-3.9764
X4.882Y-4.0616
X4.882Y-4.0911
X4.8898Y-2.8819
X4.8898Y-3.1417
X4.8976Y-2.8031
X4.9086Y-4.0625
X4.9086Y-4.0921
X4.9094Y-4.5787
X4.9094Y-4.6378
X4.9094Y-4.6969
X4.9094Y-4.7559
X4.9094Y-4.815
X4.9094Y-4.9921
X4.9094Y-5.0512
X4.9094Y-5.1102
X4.9094Y-5.1693
X4.9094Y-5.2283
X4.9094Y-5.4055
X4.9134Y-2.2677
X4.9134Y-3.1417
X4.9201Y-2.5688
X4.9213Y-2.5118
X4.9213Y-2.874
X4.9348Y-3.6443
X4.9348Y-3.6738
X4.9348Y-3.7033
X4.9348Y-3.7329
X4.9348Y-3.7624
X4.9348Y-3.7919
X4.9348Y-3.8214
X4.9348Y-3.851
X4.9348Y-3.8805
X4.9348Y-3.91
X4.9348Y-3.9396
X4.9348Y-3.9691
X4.937Y-3.1417
X4.9381Y-4.0625
X4.9381Y-4.0921
X4.9528Y-2.622
X4.9606Y-3.1417
X4.9622Y-2.6889
X4.9644Y-3.6443
X4.9644Y-3.6738
X4.9644Y-3.7033
X4.9644Y-3.7329
X4.9644Y-3.7624
X4.9644Y-3.7919
X4.9644Y-3.8214
X4.9644Y-3.851
X4.9644Y-3.8805
X4.9644Y-3.91
X4.9644Y-3.9396
X4.9644Y-3.9691
X4.9646Y-4.811
X4.9646Y-4.8701
X4.9646Y-4.9291
X4.9646Y-4.9882
X4.9646Y-5.0472
X4.9646Y-5.1063
X4.9646Y-5.1654
X4.9646Y-5.2244
X4.9646Y-5.2835
X4.9646Y-5.3425
X4.9646Y-5.4016
X4.9685Y-4.063
X4.9685Y-4.0925
X4.9685Y-4.122
X4.9685Y-4.1496
X4.9685Y-4.1791
X4.9685Y-4.2087
X4.9843Y-3.1417
X4.9921Y-2.3701
X4.9921Y-2.9023
X4.9939Y-3.6443
X4.9939Y-3.6738
X4.9939Y-3.7033
X4.9939Y-3.7329
X4.9939Y-3.7624
X4.9939Y-3.7919
X4.9939Y-3.8214
X4.9939Y-3.851
X4.9939Y-3.8805
X4.9939Y-3.91
X4.9939Y-3.9396
X4.9939Y-3.9691
X4.9951Y-4.064
X4.9951Y-4.0935
X4.9951Y-4.123
X4.9951Y-4.1506
X4.9951Y-4.1801
X4.9951Y-4.2096
X5.0Y-2.4961
X5.0079Y-2.4252
X5.0079Y-3.1417
X5.0126Y-4.7323
X5.0234Y-3.6443
X5.0234Y-3.6738
X5.0234Y-3.7033
X5.0234Y-3.7329
X5.0234Y-3.7624
X5.0234Y-3.7919
X5.0234Y-3.8214
X5.0234Y-3.851
X5.0234Y-3.8805
X5.0234Y-3.91
X5.0234Y-3.9396
X5.0234Y-3.9691
X5.0236Y-4.811
X5.0236Y-4.8701
X5.0236Y-4.9291
X5.0236Y-4.9882
X5.0236Y-5.0472
X5.0236Y-5.1063
X5.0236Y-5.1654
X5.0236Y-5.2244
X5.0236Y-5.2835
X5.0236Y-5.3425
X5.0236Y-5.4016
X5.0246Y-4.064
X5.0246Y-4.0935
X5.0246Y-4.123
X5.0246Y-4.1506
X5.0246Y-4.1801
X5.0246Y-4.2096
X5.0315Y-2.8031
X5.0315Y-3.1417
X5.0394Y-2.622
X5.0551Y-3.4803
X5.0595Y-3.1417
X5.0677Y-2.5663
X5.0709Y-2.5039
X5.0709Y-3.0
X5.0741Y-3.4552
X5.0797Y-3.8711
X5.0797Y-3.9006
X5.0797Y-3.9301
X5.0797Y-3.9596
X5.0797Y-3.9892
X5.0797Y-4.0187
X5.0797Y-4.0482
X5.0807Y-3.7205
X5.0807Y-3.75
X5.0807Y-3.7795
X5.0807Y-3.8091
X5.0807Y-3.8386
X5.0827Y-3.5748
X5.0827Y-3.6043
X5.0827Y-3.6339
X5.0827Y-3.6634
X5.0827Y-3.6929
X5.0877Y-3.1417
X5.0882Y-2.6894
X5.0945Y-4.5787
X5.0945Y-4.6378
X5.0945Y-4.6969
X5.0945Y-4.7559
X5.0945Y-4.815
X5.0945Y-4.874
X5.0945Y-4.9331
X5.0945Y-4.9921
X5.0945Y-5.0512
X5.0945Y-5.1102
X5.0945Y-5.1693
X5.0945Y-5.2283
X5.0945Y-5.2874
X5.0945Y-5.3465
X5.1024Y-5.4165
X5.1024Y-5.4811
X5.1093Y-3.8711
X5.1093Y-3.9006
X5.1093Y-3.9301
X5.1093Y-3.9596
X5.1093Y-3.9892
X5.1093Y-4.0187
X5.1093Y-4.0482
X5.1102Y-3.4567
X5.1102Y-3.7205
X5.1102Y-3.75
X5.1102Y-3.7795
X5.1102Y-3.8091
X5.1102Y-3.8386
X5.1122Y-3.5748
X5.1122Y-3.6043
X5.1122Y-3.6339
X5.1122Y-3.6634
X5.1122Y-3.6929
X5.1158Y-4.3022
X5.1158Y-4.3322
X5.1158Y-4.3622
X5.1181Y-2.2756
X5.1252Y-2.4969
X5.1358Y-3.872
X5.1358Y-3.9016
X5.1358Y-3.9311
X5.1358Y-3.9606
X5.1358Y-3.9902
X5.1358Y-4.0197
X5.1358Y-4.0492
X5.1458Y-4.3022
X5.1458Y-4.3322
X5.1458Y-4.3622
X5.1496Y-3.1417
X5.1535Y-4.5787
X5.1535Y-4.6378
X5.1535Y-4.6969
X5.1535Y-4.7559
X5.1535Y-4.815
X5.1535Y-4.874
X5.1535Y-4.9331
X5.1535Y-4.9921
X5.1535Y-5.0512
X5.1535Y-5.1102
X5.1535Y-5.1693
X5.1535Y-5.2283
X5.1535Y-5.2874
X5.1535Y-5.3465
X5.1575Y-2.4567
X5.1654Y-3.872
X5.1654Y-3.9016
X5.1654Y-3.9311
X5.1654Y-3.9606
X5.1654Y-3.9902
X5.1654Y-4.0197
X5.1654Y-4.0492
X5.1732Y-3.1417
X5.1758Y-4.3022
X5.1758Y-4.3322
X5.1758Y-4.3622
X5.1969Y-3.1417
X5.2058Y-4.3022
X5.2058Y-4.3322
X5.2058Y-4.3622
X5.2126Y-4.5787
X5.2126Y-4.6378
X5.2126Y-4.6969
X5.2126Y-4.7559
X5.2126Y-4.815
X5.2126Y-4.874
X5.2126Y-4.9331
X5.2126Y-4.9921
X5.2126Y-5.0512
X5.2126Y-5.1102
X5.2126Y-5.1693
X5.2126Y-5.2283
X5.2126Y-5.2874
X5.2126Y-5.3465
X5.2193Y-2.6894
X5.2205Y-3.1417
X5.2323Y-3.5551
X5.2323Y-3.5846
X5.2343Y-3.8917
X5.2343Y-3.9213
X5.2343Y-3.9508
X5.2343Y-3.9803
X5.2343Y-4.0098
X5.2343Y-4.0394
X5.2343Y-4.0671
X5.2343Y-4.0967
X5.2348Y-3.656
X5.2348Y-3.6856
X5.2348Y-3.7151
X5.2348Y-3.7446
X5.2348Y-3.7742
X5.2348Y-3.8037
X5.2348Y-3.8332
X5.2348Y-3.8627
X5.2358Y-4.3022
X5.2358Y-4.3322
X5.2358Y-4.3622
X5.2362Y-2.6245
X5.2441Y-3.1417
X5.2598Y-2.937
X5.2618Y-3.5551
X5.2618Y-3.5846
X5.2638Y-3.8917
X5.2638Y-3.9213
X5.2638Y-3.9508
X5.2638Y-3.9803
X5.2638Y-4.0098
X5.2638Y-4.0394
X5.2638Y-4.0671
X5.2638Y-4.0967
X5.2643Y-3.656
X5.2643Y-3.6856
X5.2643Y-3.7151
X5.2643Y-3.7446
X5.2643Y-3.7742
X5.2643Y-3.8037
X5.2643Y-3.8332
X5.2643Y-3.8627
X5.2658Y-4.3022
X5.2658Y-4.3322
X5.2658Y-4.3622
X5.2677Y-3.1417
X5.2693Y-2.6894
X5.2717Y-4.5787
X5.2717Y-4.6378
X5.2717Y-4.6969
X5.2717Y-4.7559
X5.2717Y-4.815
X5.2717Y-4.9921
X5.2717Y-5.0512
X5.2717Y-5.1102
X5.2717Y-5.1693
X5.2717Y-5.2283
X5.2717Y-5.4055
X5.277Y-2.7434
X5.2913Y-3.1417
X5.2913Y-3.5551
X5.2913Y-3.5846
X5.2933Y-3.8917
X5.2933Y-3.9213
X5.2933Y-3.9508
X5.2933Y-3.9803
X5.2933Y-4.0098
X5.2933Y-4.0394
X5.2933Y-4.0671
X5.2933Y-4.0967
X5.2938Y-3.656
X5.2938Y-3.6856
X5.2938Y-3.7151
X5.2938Y-3.7446
X5.2938Y-3.7742
X5.2938Y-3.8037
X5.2938Y-3.8332
X5.2938Y-3.8627
X5.2958Y-4.3022
X5.2958Y-4.3322
X5.2958Y-4.3622
X5.2992Y-2.685
X5.315Y-3.1417
X5.3209Y-3.5551
X5.3209Y-3.5846
X5.3228Y-3.8917
X5.3228Y-3.9213
X5.3228Y-3.9508
X5.3228Y-3.9803
X5.3228Y-4.0098
X5.3228Y-4.0394
X5.3228Y-4.0671
X5.3228Y-4.0967
X5.3234Y-3.656
X5.3234Y-3.6856
X5.3234Y-3.7151
X5.3234Y-3.7446
X5.3234Y-3.7742
X5.3234Y-3.8037
X5.3234Y-3.8332
X5.3234Y-3.8627
X5.3258Y-4.3022
X5.3258Y-4.3322
X5.3258Y-4.3622
X5.3307Y-4.5787
X5.3307Y-4.6378
X5.3307Y-4.6969
X5.3307Y-4.7559
X5.3307Y-4.815
X5.3307Y-4.9921
X5.3307Y-5.0512
X5.3307Y-5.1102
X5.3307Y-5.1693
X5.3307Y-5.2283
X5.3307Y-5.4055
X5.3386Y-3.1417
X5.3558Y-4.3022
X5.3558Y-4.3322
X5.3558Y-4.3622
X5.3622Y-3.1417
X5.3858Y-3.1417
X5.3858Y-4.3022
X5.3858Y-4.3322
X5.3858Y-4.3622
X5.3858Y-5.2874
X5.3858Y-5.3465
X5.3898Y-4.5787
X5.3898Y-4.6378
X5.3898Y-4.6969
X5.3898Y-4.7559
X5.3898Y-4.815
X5.3898Y-4.9921
X5.3898Y-5.0512
X5.3898Y-5.1102
X5.3898Y-5.1693
X5.3898Y-5.2283
X5.3898Y-5.4055
X5.3937Y-4.874
X5.3937Y-4.9331
X5.3957Y-2.8721
X5.3957Y-3.6516
X5.3957Y-3.6811
X5.3957Y-3.7106
X5.3957Y-3.7402
X5.3957Y-3.7697
X5.3957Y-3.7992
X5.3957Y-3.8287
X5.3957Y-3.8583
X5.3957Y-3.8878
X5.3957Y-3.9173
X5.3957Y-3.9469
X5.3957Y-3.9764
X5.4026Y-4.1123
X5.4035Y-4.0562
X5.4035Y-4.0857
X5.4094Y-3.1417
X5.4173Y-2.8504
X5.4252Y-3.6516
X5.4252Y-3.6811
X5.4252Y-3.7106
X5.4252Y-3.7402
X5.4252Y-3.7697
X5.4252Y-3.7992
X5.4252Y-3.8287
X5.4252Y-3.8583
X5.4252Y-3.8878
X5.4252Y-3.9173
X5.4252Y-3.9469
X5.4252Y-3.9764
X5.4321Y-4.1123
X5.4331Y-3.1417
X5.4331Y-4.0562
X5.4331Y-4.0857
X5.4409Y-2.748
X5.4409Y-2.8346
X5.4449Y-4.811
X5.4449Y-4.8701
X5.4449Y-4.9291
X5.4449Y-4.9882
X5.4449Y-5.0472
X5.4449Y-5.1063
X5.4449Y-5.1654
X5.4449Y-5.2244
X5.4449Y-5.2835
X5.4449Y-5.3425
X5.4449Y-5.4016
X5.4567Y-2.9921
X5.4567Y-3.1417
X5.4617Y-4.1125
X5.4627Y-4.0564
X5.4627Y-4.0859
X5.4803Y-2.7953
X5.4803Y-3.1417
X5.486Y-3.6443
X5.486Y-3.6738
X5.486Y-3.7033
X5.486Y-3.7329
X5.486Y-3.7624
X5.486Y-3.7919
X5.486Y-3.8214
X5.486Y-3.851
X5.486Y-3.8805
X5.486Y-3.91
X5.486Y-3.9396
X5.486Y-3.9691
X5.4898Y-4.7402
X5.4902Y-4.811
X5.4902Y-4.8701
X5.4902Y-4.9291
X5.4902Y-4.9882
X5.4902Y-5.0472
X5.4902Y-5.1063
X5.4902Y-5.1654
X5.4902Y-5.2244
X5.4902Y-5.2835
X5.4902Y-5.3425
X5.4902Y-5.4016
X5.4912Y-4.1125
X5.4922Y-4.0564
X5.4922Y-4.0859
X5.5039Y-2.9665
X5.5039Y-3.1417
X5.5055Y-2.9114
X5.5118Y-2.7638
X5.5118Y-3.063
X5.5134Y-2.6673
X5.5155Y-3.6443
X5.5155Y-3.6738
X5.5155Y-3.7033
X5.5155Y-3.7329
X5.5155Y-3.7624
X5.5155Y-3.7919
X5.5155Y-3.8214
X5.5155Y-3.851
X5.5155Y-3.8805
X5.5155Y-3.91
X5.5155Y-3.9396
X5.5155Y-3.9691
X5.5197Y-4.0551
X5.5197Y-4.0846
X5.5197Y-4.1142
X5.5276Y-3.1417
X5.5433Y-2.7008
X5.5451Y-3.6443
X5.5451Y-3.6738
X5.5451Y-3.7033
X5.5451Y-3.7329
X5.5451Y-3.7624
X5.5451Y-3.7919
X5.5451Y-3.8214
X5.5451Y-3.851
X5.5451Y-3.8805
X5.5451Y-3.91
X5.5451Y-3.9396
X5.5451Y-3.9691
X5.5463Y-4.0561
X5.5463Y-4.0856
X5.5463Y-4.1152
X5.5512Y-3.1417
X5.5512Y-4.1654
X5.5591Y-3.063
X5.5669Y-2.9114
X5.5746Y-3.6443
X5.5746Y-3.6738
X5.5746Y-3.7033
X5.5746Y-3.7329
X5.5746Y-3.7624
X5.5746Y-3.7919
X5.5746Y-3.8214
X5.5746Y-3.851
X5.5746Y-3.8805
X5.5746Y-3.91
X5.5746Y-3.9396
X5.5746Y-3.9691
X5.5748Y-2.6673
X5.5748Y-3.1417
X5.5748Y-4.5748
X5.5748Y-4.6339
X5.5748Y-4.6929
X5.5748Y-4.752
X5.5748Y-4.811
X5.5748Y-4.8701
X5.5748Y-4.9291
X5.5748Y-4.9882
X5.5748Y-5.0472
X5.5748Y-5.1063
X5.5748Y-5.1654
X5.5748Y-5.2244
X5.5748Y-5.2835
X5.5748Y-5.3425
X5.5758Y-4.0561
X5.5758Y-4.0856
X5.5758Y-4.1152
X5.5807Y-5.4197
X5.5807Y-5.4843
X5.5984Y-4.1339
X5.6063Y-3.063
X5.6063Y-3.4724
X5.6142Y-3.1417
X5.6299Y-3.4488
X5.6339Y-4.5748
X5.6339Y-4.6339
X5.6339Y-4.6929
X5.6339Y-4.752
X5.6339Y-4.811
X5.6339Y-4.9882
X5.6339Y-5.0472
X5.6339Y-5.1063
X5.6339Y-5.1654
X5.6339Y-5.2244
X5.6388Y-3.877
X5.6388Y-3.9065
X5.6388Y-3.936
X5.6388Y-3.9656
X5.6388Y-3.9951
X5.6388Y-4.0246
X5.6398Y-3.7264
X5.6398Y-3.7559
X5.6398Y-3.7854
X5.6398Y-3.815
X5.6398Y-3.8445
X5.6417Y-3.5807
X5.6417Y-3.6102
X5.6417Y-3.6398
X5.6417Y-3.6693
X5.6417Y-3.6988
X5.6468Y-3.1417
X5.6513Y-4.1561
X5.6683Y-3.877
X5.6683Y-3.9065
X5.6683Y-3.936
X5.6683Y-3.9656
X5.6683Y-3.9951
X5.6683Y-4.0246
X5.6685Y-2.748
X5.6685Y-2.8248
X5.6693Y-2.9902
X5.6693Y-3.0669
X5.6693Y-3.4567
X5.6693Y-3.7264
X5.6693Y-3.7559
X5.6693Y-3.7854
X5.6693Y-3.815
X5.6693Y-3.8445
X5.6713Y-3.5807
X5.6713Y-3.6102
X5.6713Y-3.6398
X5.6713Y-3.6693
X5.6713Y-3.6988
X5.6929Y-4.5748
X5.6929Y-4.6339
X5.6929Y-4.6929
X5.6929Y-4.752
X5.6929Y-4.811
X5.6929Y-4.9882
X5.6929Y-5.0472
X5.6929Y-5.1063
X5.6929Y-5.1654
X5.6929Y-5.2244
X5.6949Y-3.878
X5.6949Y-3.9075
X5.6949Y-3.937
X5.6949Y-3.9665
X5.6949Y-3.9961
X5.6949Y-4.0256
X5.6949Y-4.0551
X5.7165Y-3.1417
X5.7244Y-2.3157
X5.7244Y-2.3465
X5.7244Y-3.878
X5.7244Y-3.9075
X5.7244Y-3.937
X5.7244Y-3.9665
X5.7244Y-3.9961
X5.7244Y-4.0256
X5.7244Y-4.0551
X5.7402Y-3.1417
X5.752Y-4.5748
X5.752Y-4.6339
X5.752Y-4.6929
X5.752Y-4.752
X5.752Y-4.811
X5.752Y-4.9882
X5.752Y-5.0472
X5.752Y-5.1063
X5.752Y-5.1654
X5.752Y-5.2244
X5.752Y-5.4016
X5.7559Y-4.8622
X5.7559Y-4.9213
X5.7598Y-5.2835
X5.7598Y-5.3425
X5.7638Y-3.1417
X5.7795Y-2.7559
X5.7795Y-2.8268
X5.7874Y-3.1417
X5.7933Y-3.561
X5.7933Y-3.5906
X5.7933Y-3.8895
X5.7933Y-3.9191
X5.7933Y-3.9486
X5.7933Y-3.9781
X5.7933Y-4.0077
X5.7933Y-4.0372
X5.7933Y-4.065
X5.7933Y-4.0945
X5.7938Y-3.6539
X5.7938Y-3.6834
X5.7938Y-3.7129
X5.7938Y-3.7424
X5.7938Y-3.772
X5.7938Y-3.8015
X5.7938Y-3.831
X5.7938Y-3.8606
X5.7953Y-3.0157
X5.7953Y-3.063
X5.811Y-3.1417
X5.811Y-4.5748
X5.811Y-4.6339
X5.811Y-4.6929
X5.811Y-4.752
X5.811Y-4.811
X5.811Y-4.8622
X5.811Y-4.9213
X5.811Y-4.9882
X5.811Y-5.0472
X5.811Y-5.1063
X5.811Y-5.1654
X5.811Y-5.2244
X5.811Y-5.4016
X5.8189Y-2.3157
X5.8189Y-2.3622
X5.8189Y-5.2835
X5.8189Y-5.3425
X5.8228Y-3.561
X5.8228Y-3.5906
X5.8228Y-3.8895
X5.8228Y-3.9191
X5.8228Y-3.9486
X5.8228Y-3.9781
X5.8228Y-4.0077
X5.8228Y-4.0372
X5.8228Y-4.065
X5.8228Y-4.0945
X5.8234Y-3.6539
X5.8234Y-3.6834
X5.8234Y-3.7129
X5.8234Y-3.7424
X5.8234Y-3.772
X5.8234Y-3.8015
X5.8234Y-3.831
X5.8234Y-3.8606
X5.8346Y-3.1417
X5.8425Y-2.4882
X5.8524Y-3.561
X5.8524Y-3.5906
X5.8524Y-3.8895
X5.8524Y-3.9191
X5.8524Y-3.9486
X5.8524Y-3.9781
X5.8524Y-4.0077
X5.8524Y-4.0372
X5.8524Y-4.065
X5.8524Y-4.0945
X5.8529Y-3.6539
X5.8529Y-3.6834
X5.8529Y-3.7129
X5.8529Y-3.7424
X5.8529Y-3.772
X5.8529Y-3.8015
X5.8529Y-3.831
X5.8529Y-3.8606
X5.8583Y-3.1417
X5.8661Y-2.4409
X5.8661Y-5.2835
X5.8661Y-5.3425
X5.8701Y-4.5748
X5.8701Y-4.6339
X5.8701Y-4.6929
X5.8701Y-4.752
X5.8701Y-4.811
X5.8701Y-4.9882
X5.8701Y-5.0472
X5.8701Y-5.1063
X5.8701Y-5.1654
X5.8701Y-5.2244
X5.8701Y-5.4016
X5.874Y-2.3157
X5.874Y-4.8701
X5.874Y-4.9291
X5.8819Y-3.1417
X5.8819Y-3.561
X5.8819Y-3.5906
X5.8819Y-3.8895
X5.8819Y-3.9191
X5.8819Y-3.9486
X5.8819Y-3.9781
X5.8819Y-4.0077
X5.8819Y-4.0372
X5.8819Y-4.065
X5.8819Y-4.0945
X5.8824Y-3.6539
X5.8824Y-3.6834
X5.8824Y-3.7129
X5.8824Y-3.7424
X5.8824Y-3.772
X5.8824Y-3.8015
X5.8824Y-3.831
X5.8824Y-3.8606
X5.8898Y-2.8425
X5.8905Y-2.7224
X5.8905Y-2.7992
X5.8913Y-2.9646
X5.8913Y-3.0413
X5.9055Y-3.1417
X5.9252Y-4.8071
X5.9252Y-4.8661
X5.9252Y-4.9252
X5.9252Y-4.9843
X5.9252Y-5.0433
X5.9252Y-5.1024
X5.9252Y-5.1614
X5.9252Y-5.2205
X5.9252Y-5.2795
X5.9252Y-5.3386
X5.9252Y-5.3976
X5.9291Y-2.3157
X5.9291Y-3.1417
X5.9291Y-4.5748
X5.9291Y-4.6378
X5.9291Y-4.6929
X5.9291Y-4.748
X5.9449Y-3.063
X5.9528Y-3.1417
X5.9547Y-3.6516
X5.9547Y-3.6811
X5.9547Y-3.7106
X5.9547Y-3.7402
X5.9547Y-3.7697
X5.9547Y-3.7992
X5.9547Y-3.8287
X5.9547Y-3.8583
X5.9547Y-3.8878
X5.9547Y-3.9173
X5.9547Y-3.9469
X5.9547Y-3.9764
X5.9764Y-2.3157
X5.9764Y-3.1417
X5.9833Y-2.9754
X5.9843Y-2.8819
X5.9843Y-3.6516
X5.9843Y-3.6811
X5.9843Y-3.7106
X5.9843Y-3.7402
X5.9843Y-3.7697
X5.9843Y-3.7992
X5.9843Y-3.8287
X5.9843Y-3.8583
X5.9843Y-3.8878
X5.9843Y-3.9173
X5.9843Y-3.9469
X5.9843Y-3.9764
X5.985Y-2.6772
X5.9851Y-2.7953
X6.0Y-3.1417
X6.0236Y-3.1417
X6.0236Y-4.0787
X6.0236Y-4.1083
X6.0236Y-4.1378
X6.0236Y-4.1654
X6.0236Y-4.1949
X6.0236Y-4.2244
X6.0295Y-4.5728
X6.0295Y-4.6319
X6.0295Y-4.6909
X6.0295Y-4.75
X6.0295Y-4.8091
X6.0295Y-4.8681
X6.0295Y-4.9272
X6.0295Y-4.9862
X6.0295Y-5.0453
X6.0295Y-5.1043
X6.0295Y-5.1634
X6.0295Y-5.2224
X6.0295Y-5.2815
X6.0295Y-5.3406
X6.0315Y-2.3157
X6.0315Y-2.3701
X6.0335Y-5.4224
X6.0335Y-5.487
X6.0451Y-3.6443
X6.0451Y-3.6738
X6.0451Y-3.7033
X6.0451Y-3.7329
X6.0451Y-3.7624
X6.0451Y-3.7919
X6.0451Y-3.8214
X6.0451Y-3.851
X6.0451Y-3.8805
X6.0451Y-3.91
X6.0451Y-3.9396
X6.0451Y-3.9691
X6.0472Y-3.1417
X6.0488Y-3.0374
X6.0496Y-2.7323
X6.0502Y-4.0797
X6.0502Y-4.1093
X6.0502Y-4.1388
X6.0502Y-4.1663
X6.0502Y-4.1959
X6.0502Y-4.2254
X6.0669Y-4.5748
X6.0669Y-4.6339
X6.0669Y-4.6929
X6.0669Y-4.752
X6.0669Y-4.811
X6.0669Y-4.9882
X6.0669Y-5.0472
X6.0669Y-5.1063
X6.0669Y-5.1654
X6.0669Y-5.2244
X6.0709Y-2.9134
X6.0709Y-3.1417
X6.0746Y-3.6443
X6.0746Y-3.6738
X6.0746Y-3.7033
X6.0746Y-3.7329
X6.0746Y-3.7624
X6.0746Y-3.7919
X6.0746Y-3.8214
X6.0746Y-3.851
X6.0746Y-3.8805
X6.0746Y-3.91
X6.0746Y-3.9396
X6.0746Y-3.9691
X6.0787Y-2.7874
X6.0797Y-4.0797
X6.0797Y-4.1093
X6.0797Y-4.1388
X6.0797Y-4.1663
X6.0797Y-4.1959
X6.0797Y-4.2254
X6.0866Y-2.3157
X6.0945Y-2.9528
X6.0945Y-3.1417
X6.1024Y-2.9921
X6.1041Y-3.6443
X6.1041Y-3.6738
X6.1041Y-3.7033
X6.1041Y-3.7329
X6.1041Y-3.7624
X6.1041Y-3.7919
X6.1041Y-3.8214
X6.1041Y-3.851
X6.1041Y-3.8805
X6.1041Y-3.91
X6.1041Y-3.9396
X6.1041Y-3.9691
X6.1181Y-3.1417
X6.126Y-4.5748
X6.126Y-4.6339
X6.126Y-4.6929
X6.126Y-4.752
X6.126Y-4.811
X6.126Y-4.9882
X6.126Y-5.0472
X6.126Y-5.1063
X6.126Y-5.1654
X6.126Y-5.2244
X6.1336Y-3.6443
X6.1336Y-3.6738
X6.1336Y-3.7033
X6.1336Y-3.7329
X6.1336Y-3.7624
X6.1336Y-3.7919
X6.1336Y-3.8214
X6.1336Y-3.851
X6.1336Y-3.8805
X6.1336Y-3.91
X6.1336Y-3.9396
X6.1336Y-3.9691
X6.1417Y-3.1417
X6.1468Y-4.3036
X6.1468Y-4.3336
X6.1468Y-4.3636
X6.1768Y-4.3036
X6.1768Y-4.3336
X6.1768Y-4.3636
X6.1811Y-3.4646
X6.185Y-4.5748
X6.185Y-4.6339
X6.185Y-4.6929
X6.185Y-4.752
X6.185Y-4.811
X6.185Y-4.8701
X6.185Y-4.9291
X6.185Y-4.9882
X6.185Y-5.0472
X6.185Y-5.1063
X6.185Y-5.1654
X6.185Y-5.2244
X6.185Y-5.2835
X6.185Y-5.3425
X6.185Y-5.4016
X6.1857Y-3.1417
X6.2047Y-3.4488
X6.2057Y-3.8829
X6.2057Y-3.9124
X6.2057Y-3.9419
X6.2057Y-3.9715
X6.2057Y-4.001
X6.2057Y-4.0305
X6.2057Y-4.06
X6.2067Y-3.7323
X6.2067Y-3.7618
X6.2067Y-3.7913
X6.2067Y-3.8209
X6.2067Y-3.8504
X6.2068Y-4.3036
X6.2068Y-4.3336
X6.2068Y-4.3636
X6.2087Y-3.5866
X6.2087Y-3.6161
X6.2087Y-3.6457
X6.2087Y-3.6752
X6.2087Y-3.7047
X6.2137Y-3.1417
X6.2352Y-3.8829
X6.2352Y-3.9124
X6.2352Y-3.9419
X6.2352Y-3.9715
X6.2352Y-4.001
X6.2352Y-4.0305
X6.2352Y-4.06
X6.2362Y-3.7323
X6.2362Y-3.7618
X6.2362Y-3.7913
X6.2362Y-3.8209
X6.2362Y-3.8504
X6.2368Y-4.3036
X6.2368Y-4.3336
X6.2368Y-4.3636
X6.2382Y-3.5866
X6.2382Y-3.6161
X6.2382Y-3.6457
X6.2382Y-3.6752
X6.2382Y-3.7047
X6.2441Y-4.5748
X6.2441Y-4.6339
X6.2441Y-4.6929
X6.2441Y-4.752
X6.2441Y-4.811
X6.2441Y-4.8701
X6.2441Y-4.9291
X6.2441Y-4.9882
X6.2441Y-5.0472
X6.2441Y-5.1063
X6.2441Y-5.1654
X6.2441Y-5.2244
X6.2441Y-5.2835
X6.2441Y-5.3425
X6.2441Y-5.4016
X6.2449Y-3.4567
X6.2618Y-3.8839
X6.2618Y-3.9134
X6.2618Y-3.9429
X6.2618Y-3.9724
X6.2618Y-4.002
X6.2618Y-4.0315
X6.2618Y-4.061
X6.2668Y-4.3036
X6.2668Y-4.3336
X6.2668Y-4.3636
X6.2913Y-3.1417
X6.2913Y-3.8839
X6.2913Y-3.9134
X6.2913Y-3.9429
X6.2913Y-3.9724
X6.2913Y-4.002
X6.2913Y-4.0315
X6.2913Y-4.061
X6.2968Y-4.3036
X6.2968Y-4.3336
X6.2968Y-4.3636
X6.2992Y-5.2835
X6.2992Y-5.3425
X6.3031Y-4.5748
X6.3031Y-4.6339
X6.3031Y-4.6929
X6.3031Y-4.752
X6.3031Y-4.811
X6.3031Y-4.9882
X6.3031Y-5.0472
X6.3031Y-5.1063
X6.3031Y-5.1654
X6.3031Y-5.2244
X6.3031Y-5.4016
X6.3071Y-4.8701
X6.3071Y-4.9291
X6.315Y-3.1417
X6.3201Y-2.4988
X6.3268Y-4.3036
X6.3268Y-4.3336
X6.3268Y-4.3636
X6.3315Y-2.298
X6.3346Y-2.3937
X6.3386Y-3.1417
X6.3563Y-3.5709
X6.3563Y-3.6004
X6.3568Y-4.3036
X6.3568Y-4.3336
X6.3568Y-4.3636
X6.3583Y-4.8071
X6.3583Y-4.8661
X6.3583Y-4.9252
X6.3583Y-4.9843
X6.3583Y-5.0433
X6.3583Y-5.1024
X6.3583Y-5.1614
X6.3583Y-5.2205
X6.3583Y-5.2795
X6.3583Y-5.3386
X6.3583Y-5.3976
X6.3589Y-3.8892
X6.3589Y-3.9188
X6.3589Y-3.9483
X6.3589Y-3.9778
X6.3589Y-4.0073
X6.3589Y-4.0369
X6.3589Y-4.0646
X6.3589Y-4.0942
X6.3594Y-3.6535
X6.3594Y-3.6831
X6.3594Y-3.7126
X6.3594Y-3.7421
X6.3594Y-3.7717
X6.3594Y-3.8012
X6.3594Y-3.8307
X6.3594Y-3.8602
X6.3622Y-3.1417
X6.3622Y-4.5748
X6.3622Y-4.6378
X6.3622Y-4.6929
X6.3622Y-4.7559
X6.3701Y-2.6299
X6.3858Y-3.1417
X6.3858Y-3.5709
X6.3858Y-3.6004
X6.3868Y-4.3036
X6.3868Y-4.3336
X6.3868Y-4.3636
X6.3884Y-3.8892
X6.3884Y-3.9188
X6.3884Y-3.9483
X6.3884Y-3.9778
X6.3884Y-4.0073
X6.3884Y-4.0369
X6.3884Y-4.0646
X6.3884Y-4.0942
X6.389Y-3.6535
X6.389Y-3.6831
X6.389Y-3.7126
X6.389Y-3.7421
X6.389Y-3.7717
X6.389Y-3.8012
X6.389Y-3.8307
X6.389Y-3.8602
X6.3929Y-2.298
X6.4094Y-3.1417
X6.4154Y-3.5709
X6.4154Y-3.6004
X6.4168Y-4.3036
X6.4168Y-4.3336
X6.4168Y-4.3636
X6.418Y-3.8892
X6.418Y-3.9188
X6.418Y-3.9483
X6.418Y-3.9778
X6.418Y-4.0073
X6.418Y-4.0369
X6.418Y-4.0646
X6.418Y-4.0942
X6.4184Y-4.7416
X6.4184Y-4.8016
X6.4184Y-4.8616
X6.4184Y-4.9216
X6.4184Y-4.9816
X6.4184Y-5.0416
X6.4184Y-5.1016
X6.4184Y-5.1616
X6.4184Y-5.2216
X6.4184Y-5.2816
X6.4184Y-5.3416
X6.4184Y-5.4016
X6.4185Y-3.6535
X6.4185Y-3.6831
X6.4185Y-3.7126
X6.4185Y-3.7421
X6.4185Y-3.7717
X6.4185Y-3.8012
X6.4185Y-3.8307
X6.4185Y-3.8602
X6.4252Y-2.378
X6.4252Y-2.4094
X6.4252Y-2.6287
X6.4331Y-3.1417
X6.4449Y-3.5709
X6.4449Y-3.6004
X6.4475Y-3.8892
X6.4475Y-3.9188
X6.4475Y-3.9483
X6.4475Y-3.9778
X6.4475Y-4.0073
X6.4475Y-4.0369
X6.4475Y-4.0646
X6.4475Y-4.0942
X6.448Y-3.6535
X6.448Y-3.6831
X6.448Y-3.7126
X6.448Y-3.7421
X6.448Y-3.7717
X6.448Y-3.8012
X6.448Y-3.8307
X6.448Y-3.8602
X6.4504Y-2.298
X6.4567Y-2.9843
X6.4567Y-3.0866
X6.4567Y-3.1417
X6.4784Y-4.7416
X6.4784Y-4.8016
X6.4784Y-4.9816
X6.4784Y-5.0416
X6.4784Y-5.1016
X6.4784Y-5.1616
X6.4784Y-5.2216
X6.4784Y-5.4016
X6.4803Y-2.6299
X6.4803Y-3.1417
X6.5039Y-3.1417
X6.5118Y-2.298
X6.5118Y-2.9843
X6.5268Y-2.4961
X6.5276Y-3.1417
X6.5306Y-3.8624
X6.5306Y-3.9224
X6.5306Y-3.9824
X6.5306Y-4.0424
X6.5306Y-4.1024
X6.5306Y-4.1624
X6.5306Y-4.2224
X6.5306Y-4.2824
X6.5306Y-4.3424
X6.5306Y-4.4024
X6.5306Y-4.4624
X6.5306Y-4.5224
X6.5317Y-4.5759
X6.5317Y-4.6359
X6.5317Y-4.6959
X6.5384Y-4.7416
X6.5384Y-4.8016
X6.5384Y-4.9816
X6.5384Y-5.0416
X6.5384Y-5.1016
X6.5384Y-5.1616
X6.5384Y-5.2216
X6.5384Y-5.4016
X6.5512Y-3.1417
X6.5748Y-3.0472
X6.5748Y-3.1417
X6.5906Y-3.8624
X6.5906Y-3.9224
X6.5906Y-3.9824
X6.5906Y-4.0424
X6.5906Y-4.1024
X6.5906Y-4.1624
X6.5906Y-4.2224
X6.5906Y-4.2824
X6.5906Y-4.3424
X6.5906Y-4.4024
X6.5906Y-4.4624
X6.5906Y-4.5224
X6.5917Y-4.5759
X6.5917Y-4.6359
X6.5917Y-4.6959
X6.5984Y-4.7416
X6.5984Y-4.8016
X6.5984Y-4.8616
X6.5984Y-4.9216
X6.5984Y-4.9816
X6.5984Y-5.0416
X6.5984Y-5.1016
X6.5984Y-5.1616
X6.5984Y-5.2216
X6.5984Y-5.2816
X6.5984Y-5.3416
X6.5984Y-5.4016
X6.622Y-2.9764
X6.6299Y-3.0472
X6.6506Y-3.8624
X6.6506Y-3.9224
X6.6506Y-3.9824
X6.6506Y-4.0424
X6.6506Y-4.1024
X6.6506Y-4.1624
X6.6506Y-4.2224
X6.6506Y-4.2824
X6.6506Y-4.3424
X6.6506Y-4.4024
X6.6506Y-4.4624
X6.6506Y-4.5224
X6.6517Y-4.5759
X6.6517Y-4.6359
X6.6517Y-4.6959
X6.6584Y-4.7416
X6.6584Y-4.8016
X6.6584Y-4.8616
X6.6584Y-4.9216
X6.6584Y-4.9816
X6.6584Y-5.0416
X6.6584Y-5.1016
X6.6584Y-5.1616
X6.6584Y-5.2216
X6.6584Y-5.2816
X6.6584Y-5.3416
X6.6584Y-5.4016
X6.685Y-3.1417
X6.7008Y-2.9764
X6.7087Y-3.1417
X6.7106Y-3.8624
X6.7106Y-3.9224
X6.7106Y-3.9824
X6.7106Y-4.0424
X6.7106Y-4.1024
X6.7106Y-4.1624
X6.7106Y-4.2224
X6.7106Y-4.2824
X6.7106Y-4.3424
X6.7106Y-4.4024
X6.7106Y-4.4624
X6.7106Y-4.5224
X6.7117Y-4.5759
X6.7117Y-4.6359
X6.7117Y-4.6959
X6.7165Y-3.0551
X6.7165Y-4.7416
X6.7165Y-4.8016
X6.7165Y-4.8616
X6.7165Y-4.9216
X6.7165Y-4.9816
X6.7165Y-5.0416
X6.7165Y-5.1016
X6.7165Y-5.1616
X6.7165Y-5.2216
X6.7165Y-5.2816
X6.7165Y-5.3416
X6.7165Y-5.4016
X6.7323Y-2.5591
X6.7402Y-2.1969
X6.7706Y-3.8624
X6.7706Y-3.9224
X6.7706Y-3.9824
X6.7706Y-4.0424
X6.7706Y-4.1024
X6.7706Y-4.1624
X6.7706Y-4.2224
X6.7706Y-4.2824
X6.7706Y-4.3424
X6.7706Y-4.4024
X6.7706Y-4.4624
X6.7706Y-4.5224
X6.7715Y-2.6376
X6.7717Y-4.5759
X6.7717Y-4.6359
X6.7874Y-3.0827
X6.8031Y-2.3701
X6.8309Y-4.5683
X6.8309Y-4.6283
X6.8309Y-4.6883
X6.8309Y-4.7483
X6.8309Y-4.8083
X6.8309Y-4.9883
X6.8309Y-5.0483
X6.8309Y-5.1083
X6.8309Y-5.1683
X6.8309Y-5.2283
X6.8309Y-5.397
X6.8357Y-3.8597
X6.8357Y-3.9197
X6.8357Y-3.9797
X6.8357Y-4.0397
X6.8357Y-4.0997
X6.8357Y-4.1597
X6.8357Y-4.2197
X6.8357Y-4.2797
X6.8357Y-4.3397
X6.8357Y-4.3997
X6.8357Y-4.4597
X6.8357Y-4.5197
X6.8486Y-2.2577
X6.8575Y-2.5512
X6.8909Y-4.5683
X6.8909Y-4.6283
X6.8909Y-4.6883
X6.8909Y-4.7483
X6.8909Y-4.8083
X6.8909Y-4.9883
X6.8909Y-5.0483
X6.8909Y-5.1083
X6.8909Y-5.1683
X6.8909Y-5.2283
X6.8909Y-5.397
X6.8957Y-3.8597
X6.8957Y-3.9197
X6.8957Y-3.9797
X6.8957Y-4.0397
X6.8957Y-4.0997
X6.8957Y-4.1597
X6.8957Y-4.2197
X6.8957Y-4.2797
X6.8957Y-4.3397
X6.8957Y-4.3997
X6.8957Y-4.4597
X6.8957Y-4.5197
X6.9055Y-2.1811
X6.9213Y-3.1417
X6.9234Y-2.2577
X6.9449Y-3.0551
X6.9449Y-3.1417
X6.9509Y-4.5683
X6.9509Y-4.6283
X6.9509Y-4.6883
X6.9509Y-4.7483
X6.9509Y-4.8083
X6.9509Y-4.8683
X6.9509Y-4.9283
X6.9509Y-4.9883
X6.9509Y-5.0483
X6.9509Y-5.1083
X6.9509Y-5.1683
X6.9509Y-5.2283
X6.9509Y-5.277
X6.9509Y-5.337
X6.9509Y-5.397
X6.9528Y-2.9134
X6.9528Y-2.9606
X6.9557Y-3.8597
X6.9557Y-3.9197
X6.9557Y-3.9797
X6.9557Y-4.0397
X6.9557Y-4.0997
X6.9557Y-4.1597
X6.9557Y-4.2197
X6.9557Y-4.2797
X6.9557Y-4.3397
X6.9557Y-4.3997
X6.9557Y-4.4597
X6.9557Y-4.5197
X6.9567Y-2.3268
X6.9606Y-2.1732
X6.9685Y-3.1417
X6.9921Y-2.2913
X6.9921Y-3.1417
X7.0024Y-2.4114
X7.0109Y-4.5683
X7.0109Y-4.6283
X7.0109Y-4.6883
X7.0109Y-4.7483
X7.0109Y-4.8083
X7.0109Y-4.8683
X7.0109Y-4.9283
X7.0109Y-4.9883
X7.0109Y-5.0483
X7.0109Y-5.1083
X7.0109Y-5.1683
X7.0109Y-5.2283
X7.0109Y-5.277
X7.0109Y-5.337
X7.0109Y-5.397
X7.0157Y-3.0157
X7.0157Y-3.063
X7.0157Y-3.1417
X7.0157Y-3.8597
X7.0157Y-3.9197
X7.0157Y-3.9797
X7.0157Y-4.0397
X7.0157Y-4.0997
X7.0157Y-4.1597
X7.0157Y-4.2197
X7.0157Y-4.2797
X7.0157Y-4.3397
X7.0157Y-4.3997
X7.0157Y-4.4597
X7.0157Y-4.5197
X7.0394Y-3.0394
X7.0394Y-3.1417
X7.0554Y-2.1673
X7.0554Y-2.3484
X7.063Y-3.1417
T2
X3.2613Y-2.7638
X3.2613Y-2.9213
X3.3401Y-2.7638
X3.3401Y-2.9213
T3
X3.5984Y-4.7087
X3.5984Y-4.8189
X3.6022Y-3.8457
X3.614Y-3.9165
X3.7087Y-2.3543
X3.7953Y-2.2756
X3.8031Y-3.2913
X3.8103Y-2.2392
X3.8196Y-2.4488
X3.8661Y-2.4094
X3.8661Y-2.4724
X3.9843Y-2.5276
X3.997Y-4.4288
X4.0787Y-2.0709
X4.1024Y-2.0551
X4.1102Y-2.7303
X4.3386Y-5.4961
X4.6949Y-5.4972
X4.8268Y-2.685
X4.8957Y-3.1949
X4.8957Y-3.2343
X4.8957Y-3.2736
X4.935Y-3.1949
X4.935Y-3.2343
X4.935Y-3.2736
X4.9744Y-3.1949
X4.9744Y-3.2343
X4.9744Y-3.2736
X5.0382Y-2.6894
X5.0866Y-2.9291
X5.0945Y-3.063
X5.1346Y-2.9291
X5.1791Y-5.4972
X5.2106Y-3.1949
X5.2106Y-3.2343
X5.2106Y-3.2736
X5.25Y-3.1949
X5.25Y-3.2343
X5.25Y-3.2736
X5.2894Y-3.1949
X5.2894Y-3.2343
X5.2894Y-3.2736
X5.4508Y-2.4356
X5.5453Y-2.4941
X5.6417Y-2.4193
X5.6535Y-5.4972
X5.8583Y-2.5866
X5.9252Y-2.5295
X6.0276Y-3.1909
X6.0276Y-3.2303
X6.0276Y-3.2697
X6.0669Y-3.1909
X6.0669Y-3.2303
X6.0669Y-3.2697
X6.1063Y-3.1909
X6.1063Y-3.2303
X6.1063Y-3.2697
X6.1083Y-5.4972
X6.1811Y-2.4413
X6.252Y-2.4413
X6.3425Y-3.1909
X6.3425Y-3.2303
X6.3425Y-3.2697
X6.3819Y-3.1909
X6.3819Y-3.2303
X6.3819Y-3.2697
X6.4213Y-3.1909
X6.4213Y-3.2303
X6.4213Y-3.2697
X6.8898Y-2.6378
X6.9705Y-2.5906
T4
X3.9335Y-4.6736
X3.9567Y-4.6181
X3.9567Y-4.7291
X4.0122Y-4.5949
X4.0122Y-4.7524
X4.0677Y-4.6181
X4.0677Y-4.7291
X4.0909Y-4.6736
X4.2992Y-1.8976
X4.3224Y-1.8421
X4.3224Y-1.9531
X4.378Y-1.8189
X4.378Y-1.9764
X4.4335Y-1.8421
X4.4335Y-1.9531
X4.4567Y-1.8976
X6.8465Y-3.3248
X6.8697Y-3.2693
X6.8697Y-3.3803
X6.9252Y-3.2461
X6.9252Y-3.4035
X6.9807Y-3.2693
X6.9807Y-3.3803
X7.0039Y-3.3248
T5
X3.6063Y-3.7008
X3.6811Y-3.7008
T6
X3.4079Y-2.2343
X3.4575Y-2.1343
X3.5079Y-2.2343
X3.5376Y-4.1793
X3.5376Y-4.2793
X3.5376Y-4.3793
X3.5376Y-4.4793
X3.5376Y-4.949
X3.5376Y-5.049
X3.5376Y-5.149
X3.5376Y-5.249
X3.5575Y-2.1343
X3.6079Y-2.2343
X3.6376Y-4.2293
X3.6376Y-4.3293
X3.6376Y-4.4293
X3.6376Y-4.5293
X3.6376Y-4.999
X3.6376Y-5.099
X3.6376Y-5.199
X3.6376Y-5.299
X3.6575Y-2.1343
X3.7079Y-2.2343
X3.7575Y-2.1343
X4.9453Y-2.126
X4.9953Y-2.026
X5.0453Y-2.126
X5.0953Y-2.026
X5.1453Y-2.126
X5.1953Y-2.026
X5.2453Y-2.126
X5.2953Y-2.026
X5.7463Y-2.1258
X5.7963Y-2.0258
X5.8463Y-2.1258
X5.8963Y-2.0258
X5.9463Y-2.1258
X5.9963Y-2.0258
X6.0463Y-2.1258
X6.0963Y-2.0258
X6.5181Y-2.1236
X6.5681Y-2.0236
X6.6181Y-2.1236
X6.6681Y-2.0236
X6.7181Y-2.1236
X6.7681Y-2.0236
X6.8181Y-2.1236
X6.8681Y-2.0236
T7
X3.3219Y-1.6909
X3.4219Y-1.6909
X3.7435Y-1.6909
X3.8435Y-1.6909
T8
X5.5276Y-2.0866
X5.5276Y-2.1866
X5.5276Y-2.2866
X5.5276Y-2.3866
T9
X3.4077Y-4.0494
X3.4077Y-4.6593
X3.4077Y-4.8191
X3.4077Y-5.4289
X4.8154Y-1.8961
X4.8835Y-4.9031
X4.8835Y-5.3031
X5.2835Y-4.9031
X5.2835Y-5.3031
X5.4252Y-1.8961
X5.6163Y-1.8959
X5.6835Y-4.9031
X5.6835Y-5.3031
X6.0835Y-4.9031
X6.0835Y-5.3031
X6.2262Y-1.8959
X6.3882Y-1.8937
X6.4835Y-4.9031
X6.4835Y-5.3031
X6.8835Y-4.9031
X6.8835Y-5.3031
X6.998Y-1.8937
T10
X3.2778Y-2.0039
X3.8876Y-2.0039
T11
X4.0122Y-4.6736
X4.378Y-1.8976
X6.9252Y-3.3248
T4
G00X3.3015Y-2.672
M15
G01X3.27Y-2.672
M16
G05
G00X3.3015Y-3.013
M15
G01X3.27Y-3.013
M16
G05
G00X3.4727Y-2.672
M15
G01X3.4294Y-2.672
M16
G05
G00X3.4727Y-3.013
M15
G01X3.4294Y-3.013
M16
G05
M30
