%TF.GenerationSoftware,KiCad,Pcbnew,9.0.8+dfsg-1*%
%TF.CreationDate,2026-06-01T20:41:08-04:00*%
%TF.ProjectId,ch32v307drv,63683332-7633-4303-9764-72762e6b6963,rev?*%
%TF.SameCoordinates,Original*%
%TF.FileFunction,Paste,Bot*%
%TF.FilePolarity,Positive*%
%FSLAX46Y46*%
G04 Gerber Fmt 4.6, Leading zero omitted, Abs format (unit mm)*
G04 Created by KiCad (PCBNEW 9.0.8+dfsg-1) date 2026-06-01 20:41:08*
%MOMM*%
%LPD*%
G01*
G04 APERTURE LIST*
G04 Aperture macros list*
%AMRoundRect*
0 Rectangle with rounded corners*
0 $1 Rounding radius*
0 $2 $3 $4 $5 $6 $7 $8 $9 X,Y pos of 4 corners*
0 Add a 4 corners polygon primitive as box body*
4,1,4,$2,$3,$4,$5,$6,$7,$8,$9,$2,$3,0*
0 Add four circle primitives for the rounded corners*
1,1,$1+$1,$2,$3*
1,1,$1+$1,$4,$5*
1,1,$1+$1,$6,$7*
1,1,$1+$1,$8,$9*
0 Add four rect primitives between the rounded corners*
20,1,$1+$1,$2,$3,$4,$5,0*
20,1,$1+$1,$4,$5,$6,$7,0*
20,1,$1+$1,$6,$7,$8,$9,0*
20,1,$1+$1,$8,$9,$2,$3,0*%
%AMFreePoly0*
4,1,13,0.175001,0.125001,0.175001,-0.525000,0.124999,-0.575000,-0.025001,-0.575000,-0.075001,-0.525000,-0.075001,-0.125001,-0.124998,-0.075001,-0.475000,-0.075001,-0.525000,-0.024999,-0.525000,0.125001,-0.475000,0.174998,0.125001,0.175001,0.175001,0.125001,0.175001,0.125001,$1*%
%AMFreePoly1*
4,1,65,0.168748,1.531249,0.218750,1.481252,0.218747,-2.418748,0.168750,-2.468750,-0.106251,-2.468748,-0.156251,-2.418748,-0.156251,-2.156749,-0.206250,-2.106747,-0.431251,-2.106749,-0.481251,-2.056747,-0.481251,-1.906750,-0.431251,-1.856747,-0.206250,-1.856747,-0.156251,-1.806753,-0.156251,-1.656750,-0.206250,-1.606748,-0.431251,-1.606748,-0.481251,-1.556751,-0.481251,-1.406751,-0.431251,-1.356751,
-0.206250,-1.356751,-0.156251,-1.306751,-0.156251,-1.156751,-0.206250,-1.106749,-0.431251,-1.106749,-0.481251,-1.056749,-0.481251,-0.906749,-0.431251,-0.856749,-0.206250,-0.856749,-0.156251,-0.806750,-0.156251,-0.656750,-0.206250,-0.606750,-0.431251,-0.606747,-0.481251,-0.556750,-0.481251,-0.406750,-0.431251,-0.356748,-0.206250,-0.356748,-0.156251,-0.306748,-0.156251,-0.156748,-0.206250,-0.106748,
-0.431251,-0.106748,-0.481251,-0.056748,-0.481251,0.093251,-0.431251,0.143251,-0.206250,0.143251,-0.156251,0.193251,-0.156251,0.343251,-0.206250,0.393248,-0.431251,0.393251,-0.481251,0.443251,-0.481251,0.593250,-0.431251,0.643250,-0.206250,0.643250,-0.156251,0.693250,-0.156251,0.843250,-0.206250,0.893250,-0.431251,0.893250,-0.481251,0.943250,-0.481251,1.093249,-0.431251,1.143249,
-0.206250,1.143249,-0.156251,1.193249,-0.156251,1.481252,-0.106251,1.531252,0.168748,1.531249,0.168748,1.531249,$1*%
%AMFreePoly2*
4,1,65,0.156251,1.481254,0.156251,1.193254,0.206250,1.143254,0.431251,1.143254,0.481251,1.093254,0.481251,0.943255,0.431251,0.893255,0.206250,0.893255,0.156251,0.843255,0.156251,0.693255,0.206250,0.643255,0.431251,0.643255,0.481251,0.593255,0.481251,0.443256,0.431251,0.393256,0.206250,0.393256,0.156251,0.343256,0.156251,0.193254,0.206250,0.143256,0.431251,0.143256,
0.481251,0.093256,0.481251,-0.056743,0.431251,-0.106743,0.206250,-0.106743,0.156251,-0.156743,0.156251,-0.306746,0.206250,-0.356743,0.431251,-0.356743,0.481251,-0.406745,0.481251,-0.556745,0.431251,-0.606745,0.206250,-0.606745,0.156251,-0.656745,0.156251,-0.806745,0.206250,-0.856744,0.431251,-0.856744,0.481251,-0.906744,0.481251,-1.056744,0.431251,-1.106744,0.206250,-1.106744,
0.156251,-1.156744,0.156251,-1.306746,0.206250,-1.356746,0.431251,-1.356746,0.481251,-1.406746,0.481251,-1.556748,0.431251,-1.606745,0.206250,-1.606748,0.156251,-1.656745,0.156251,-1.806748,0.206250,-1.856745,0.431251,-1.856740,0.481251,-1.906745,0.481251,-2.056739,0.431251,-2.106744,0.206250,-2.106742,0.156251,-2.156744,0.156251,-2.418743,0.106251,-2.468743,-0.168750,-2.468745,
-0.218747,-2.418743,-0.218750,1.481257,-0.168750,1.531257,0.106251,1.531257,0.156251,1.481254,0.156251,1.481254,$1*%
%AMFreePoly3*
4,1,13,0.475000,0.174998,0.525000,0.125001,0.525000,-0.025001,0.475000,-0.075001,0.124998,-0.075001,0.074999,-0.125001,0.075001,-0.525000,0.025001,-0.575000,-0.124999,-0.575000,-0.175001,-0.525000,-0.175001,0.125001,-0.125001,0.175001,0.475000,0.174998,0.475000,0.174998,$1*%
G04 Aperture macros list end*
%ADD10C,0.000000*%
%ADD11RoundRect,0.250000X-0.650000X1.000000X-0.650000X-1.000000X0.650000X-1.000000X0.650000X1.000000X0*%
%ADD12RoundRect,0.225000X0.250000X-0.225000X0.250000X0.225000X-0.250000X0.225000X-0.250000X-0.225000X0*%
%ADD13RoundRect,0.200000X0.200000X0.275000X-0.200000X0.275000X-0.200000X-0.275000X0.200000X-0.275000X0*%
%ADD14RoundRect,0.225000X0.225000X0.250000X-0.225000X0.250000X-0.225000X-0.250000X0.225000X-0.250000X0*%
%ADD15RoundRect,0.225000X-0.225000X-0.250000X0.225000X-0.250000X0.225000X0.250000X-0.225000X0.250000X0*%
%ADD16RoundRect,0.250000X0.325000X0.650000X-0.325000X0.650000X-0.325000X-0.650000X0.325000X-0.650000X0*%
%ADD17RoundRect,0.200000X-0.275000X0.200000X-0.275000X-0.200000X0.275000X-0.200000X0.275000X0.200000X0*%
%ADD18RoundRect,0.225000X-0.250000X0.225000X-0.250000X-0.225000X0.250000X-0.225000X0.250000X0.225000X0*%
%ADD19RoundRect,0.200000X-0.200000X-0.275000X0.200000X-0.275000X0.200000X0.275000X-0.200000X0.275000X0*%
%ADD20FreePoly0,180.000000*%
%ADD21R,0.700001X0.249999*%
%ADD22FreePoly1,180.000000*%
%ADD23FreePoly2,180.000000*%
%ADD24FreePoly3,180.000000*%
%ADD25R,0.249999X0.700001*%
%ADD26RoundRect,0.220000X-0.220000X-0.255000X0.220000X-0.255000X0.220000X0.255000X-0.220000X0.255000X0*%
%ADD27RoundRect,0.137500X-0.137500X-0.462500X0.137500X-0.462500X0.137500X0.462500X-0.137500X0.462500X0*%
%ADD28RoundRect,0.245000X1.455000X-0.245000X1.455000X0.245000X-1.455000X0.245000X-1.455000X-0.245000X0*%
%ADD29R,1.676400X0.355600*%
%ADD30RoundRect,0.250000X0.262500X0.450000X-0.262500X0.450000X-0.262500X-0.450000X0.262500X-0.450000X0*%
%ADD31RoundRect,0.150000X0.150000X-0.512500X0.150000X0.512500X-0.150000X0.512500X-0.150000X-0.512500X0*%
%ADD32RoundRect,0.150000X-0.825000X-0.150000X0.825000X-0.150000X0.825000X0.150000X-0.825000X0.150000X0*%
%ADD33RoundRect,0.250000X-0.325000X-0.650000X0.325000X-0.650000X0.325000X0.650000X-0.325000X0.650000X0*%
%ADD34RoundRect,0.112500X0.187500X0.112500X-0.187500X0.112500X-0.187500X-0.112500X0.187500X-0.112500X0*%
%ADD35RoundRect,0.200000X0.275000X-0.200000X0.275000X0.200000X-0.275000X0.200000X-0.275000X-0.200000X0*%
%ADD36RoundRect,0.140000X-0.140000X-0.170000X0.140000X-0.170000X0.140000X0.170000X-0.140000X0.170000X0*%
%ADD37RoundRect,0.250000X0.300000X-1.000000X0.300000X1.000000X-0.300000X1.000000X-0.300000X-1.000000X0*%
%ADD38RoundRect,0.250000X1.550000X-0.920000X1.550000X0.920000X-1.550000X0.920000X-1.550000X-0.920000X0*%
%ADD39RoundRect,0.475000X-0.725000X0.475000X-0.725000X-0.475000X0.725000X-0.475000X0.725000X0.475000X0*%
G04 APERTURE END LIST*
D10*
%TO.C,U19*%
G36*
X158325001Y-90641256D02*
G01*
X158325001Y-91751256D01*
X158275001Y-91801256D01*
X157335000Y-91801256D01*
X157285001Y-91751256D01*
X157285001Y-90641256D01*
X157335000Y-90591256D01*
X158275001Y-90591256D01*
X158325001Y-90641256D01*
G37*
G36*
X159055000Y-92374255D02*
G01*
X159055000Y-94024257D01*
X159005000Y-94074256D01*
X157395000Y-94074256D01*
X157345000Y-94024257D01*
X157345000Y-92374255D01*
X157395000Y-92324255D01*
X159005000Y-92324255D01*
X159055000Y-92374255D01*
G37*
G36*
X158000000Y-96606756D02*
G01*
X158000000Y-96831757D01*
X157950000Y-96881757D01*
X157800001Y-96881757D01*
X157750001Y-96831757D01*
X157750001Y-96606756D01*
X157800001Y-96556756D01*
X157950000Y-96556756D01*
X158000000Y-96606756D01*
G37*
G36*
X158499999Y-96606756D02*
G01*
X158499999Y-96831757D01*
X158450000Y-96881757D01*
X158300000Y-96881757D01*
X158250000Y-96831757D01*
X158250000Y-96606756D01*
X158300000Y-96556756D01*
X158450000Y-96556756D01*
X158499999Y-96606756D01*
G37*
G36*
X159565001Y-90641256D02*
G01*
X159565001Y-91751256D01*
X159515001Y-91801256D01*
X158575001Y-91801256D01*
X158525001Y-91751256D01*
X158525001Y-90641256D01*
X158575001Y-90591256D01*
X159515001Y-90591256D01*
X159565001Y-90641256D01*
G37*
G36*
X159000001Y-96606756D02*
G01*
X159000001Y-96831757D01*
X158950001Y-96881757D01*
X158799999Y-96881757D01*
X158749999Y-96831757D01*
X158749999Y-96606756D01*
X158799999Y-96556756D01*
X158950001Y-96556756D01*
X159000001Y-96606756D01*
G37*
G36*
X159055000Y-94696257D02*
G01*
X159055000Y-96306256D01*
X159005000Y-96356256D01*
X157395000Y-96356256D01*
X157345000Y-96306256D01*
X157345000Y-94696257D01*
X157395000Y-94646257D01*
X159005000Y-94646257D01*
X159055000Y-94696257D01*
G37*
G36*
X156450001Y-89531256D02*
G01*
X156450001Y-90181257D01*
X156400001Y-90231257D01*
X155800000Y-90231254D01*
X155750000Y-90181257D01*
X155750000Y-90031255D01*
X155800000Y-89981255D01*
X156150002Y-89981255D01*
X156200001Y-89931255D01*
X156199999Y-89531256D01*
X156249999Y-89481256D01*
X156399999Y-89481256D01*
X156450001Y-89531256D01*
G37*
G36*
X160275000Y-92531257D02*
G01*
X160325000Y-92581257D01*
X160325000Y-92843256D01*
X160374999Y-92893258D01*
X160600000Y-92893256D01*
X160650000Y-92943258D01*
X160650000Y-93093255D01*
X160600000Y-93143258D01*
X160374999Y-93143258D01*
X160325000Y-93193252D01*
X160325000Y-93343255D01*
X160374999Y-93393257D01*
X160600000Y-93393257D01*
X160650000Y-93443254D01*
X160650000Y-93593254D01*
X160600000Y-93643254D01*
X160374999Y-93643254D01*
X160325000Y-93693254D01*
X160325000Y-93843254D01*
X160374999Y-93893256D01*
X160600000Y-93893256D01*
X160650000Y-93943256D01*
X160650000Y-94093256D01*
X160600000Y-94143256D01*
X160374999Y-94143256D01*
X160325000Y-94193255D01*
X160325000Y-94343255D01*
X160374999Y-94393255D01*
X160600000Y-94393258D01*
X160650000Y-94443255D01*
X160650000Y-94593255D01*
X160600000Y-94643257D01*
X160374999Y-94643257D01*
X160325000Y-94693257D01*
X160325000Y-94843257D01*
X160374999Y-94893257D01*
X160600000Y-94893257D01*
X160650000Y-94943257D01*
X160650000Y-95093256D01*
X160600000Y-95143256D01*
X160374999Y-95143256D01*
X160325000Y-95193256D01*
X160325000Y-95343256D01*
X160374999Y-95393253D01*
X160600000Y-95393256D01*
X160650000Y-95443256D01*
X160650000Y-95593255D01*
X160600000Y-95643255D01*
X160374999Y-95643255D01*
X160325000Y-95693255D01*
X160325000Y-95843255D01*
X160374999Y-95893255D01*
X160600000Y-95893255D01*
X160650000Y-95943255D01*
X160650000Y-96093254D01*
X160600000Y-96143254D01*
X160374999Y-96143254D01*
X160325000Y-96193254D01*
X160325000Y-96481257D01*
X160275000Y-96531257D01*
X160000001Y-96531254D01*
X159949999Y-96481257D01*
X159950002Y-92581257D01*
X159999999Y-92531255D01*
X160275000Y-92531257D01*
G37*
%TO.C,U12*%
G36*
X115394539Y-90424681D02*
G01*
X115394539Y-91534681D01*
X115344539Y-91584681D01*
X114404538Y-91584681D01*
X114354539Y-91534681D01*
X114354539Y-90424681D01*
X114404538Y-90374681D01*
X115344539Y-90374681D01*
X115394539Y-90424681D01*
G37*
G36*
X116124538Y-92157680D02*
G01*
X116124538Y-93807682D01*
X116074538Y-93857681D01*
X114464538Y-93857681D01*
X114414538Y-93807682D01*
X114414538Y-92157680D01*
X114464538Y-92107680D01*
X116074538Y-92107680D01*
X116124538Y-92157680D01*
G37*
G36*
X115069538Y-96390181D02*
G01*
X115069538Y-96615182D01*
X115019538Y-96665182D01*
X114869539Y-96665182D01*
X114819539Y-96615182D01*
X114819539Y-96390181D01*
X114869539Y-96340181D01*
X115019538Y-96340181D01*
X115069538Y-96390181D01*
G37*
G36*
X115569537Y-96390181D02*
G01*
X115569537Y-96615182D01*
X115519538Y-96665182D01*
X115369538Y-96665182D01*
X115319538Y-96615182D01*
X115319538Y-96390181D01*
X115369538Y-96340181D01*
X115519538Y-96340181D01*
X115569537Y-96390181D01*
G37*
G36*
X116634539Y-90424681D02*
G01*
X116634539Y-91534681D01*
X116584539Y-91584681D01*
X115644539Y-91584681D01*
X115594539Y-91534681D01*
X115594539Y-90424681D01*
X115644539Y-90374681D01*
X116584539Y-90374681D01*
X116634539Y-90424681D01*
G37*
G36*
X116069539Y-96390181D02*
G01*
X116069539Y-96615182D01*
X116019539Y-96665182D01*
X115869537Y-96665182D01*
X115819537Y-96615182D01*
X115819537Y-96390181D01*
X115869537Y-96340181D01*
X116019539Y-96340181D01*
X116069539Y-96390181D01*
G37*
G36*
X116124538Y-94479682D02*
G01*
X116124538Y-96089681D01*
X116074538Y-96139681D01*
X114464538Y-96139681D01*
X114414538Y-96089681D01*
X114414538Y-94479682D01*
X114464538Y-94429682D01*
X116074538Y-94429682D01*
X116124538Y-94479682D01*
G37*
G36*
X113519539Y-89314681D02*
G01*
X113519539Y-89964682D01*
X113469539Y-90014682D01*
X112869538Y-90014679D01*
X112819538Y-89964682D01*
X112819538Y-89814680D01*
X112869538Y-89764680D01*
X113219540Y-89764680D01*
X113269539Y-89714680D01*
X113269537Y-89314681D01*
X113319537Y-89264681D01*
X113469537Y-89264681D01*
X113519539Y-89314681D01*
G37*
G36*
X117344538Y-92314682D02*
G01*
X117394538Y-92364682D01*
X117394538Y-92626681D01*
X117444537Y-92676683D01*
X117669538Y-92676681D01*
X117719538Y-92726683D01*
X117719538Y-92876680D01*
X117669538Y-92926683D01*
X117444537Y-92926683D01*
X117394538Y-92976677D01*
X117394538Y-93126680D01*
X117444537Y-93176682D01*
X117669538Y-93176682D01*
X117719538Y-93226679D01*
X117719538Y-93376679D01*
X117669538Y-93426679D01*
X117444537Y-93426679D01*
X117394538Y-93476679D01*
X117394538Y-93626679D01*
X117444537Y-93676681D01*
X117669538Y-93676681D01*
X117719538Y-93726681D01*
X117719538Y-93876681D01*
X117669538Y-93926681D01*
X117444537Y-93926681D01*
X117394538Y-93976680D01*
X117394538Y-94126680D01*
X117444537Y-94176680D01*
X117669538Y-94176683D01*
X117719538Y-94226680D01*
X117719538Y-94376680D01*
X117669538Y-94426682D01*
X117444537Y-94426682D01*
X117394538Y-94476682D01*
X117394538Y-94626682D01*
X117444537Y-94676682D01*
X117669538Y-94676682D01*
X117719538Y-94726682D01*
X117719538Y-94876681D01*
X117669538Y-94926681D01*
X117444537Y-94926681D01*
X117394538Y-94976681D01*
X117394538Y-95126681D01*
X117444537Y-95176678D01*
X117669538Y-95176681D01*
X117719538Y-95226681D01*
X117719538Y-95376680D01*
X117669538Y-95426680D01*
X117444537Y-95426680D01*
X117394538Y-95476680D01*
X117394538Y-95626680D01*
X117444537Y-95676680D01*
X117669538Y-95676680D01*
X117719538Y-95726680D01*
X117719538Y-95876679D01*
X117669538Y-95926679D01*
X117444537Y-95926679D01*
X117394538Y-95976679D01*
X117394538Y-96264682D01*
X117344538Y-96314682D01*
X117069539Y-96314679D01*
X117019537Y-96264682D01*
X117019540Y-92364682D01*
X117069537Y-92314680D01*
X117344538Y-92314682D01*
G37*
%TO.C,U16*%
G36*
X143914539Y-90624681D02*
G01*
X143914539Y-91734681D01*
X143864539Y-91784681D01*
X142924538Y-91784681D01*
X142874539Y-91734681D01*
X142874539Y-90624681D01*
X142924538Y-90574681D01*
X143864539Y-90574681D01*
X143914539Y-90624681D01*
G37*
G36*
X144644538Y-92357680D02*
G01*
X144644538Y-94007682D01*
X144594538Y-94057681D01*
X142984538Y-94057681D01*
X142934538Y-94007682D01*
X142934538Y-92357680D01*
X142984538Y-92307680D01*
X144594538Y-92307680D01*
X144644538Y-92357680D01*
G37*
G36*
X143589538Y-96590181D02*
G01*
X143589538Y-96815182D01*
X143539538Y-96865182D01*
X143389539Y-96865182D01*
X143339539Y-96815182D01*
X143339539Y-96590181D01*
X143389539Y-96540181D01*
X143539538Y-96540181D01*
X143589538Y-96590181D01*
G37*
G36*
X144089537Y-96590181D02*
G01*
X144089537Y-96815182D01*
X144039538Y-96865182D01*
X143889538Y-96865182D01*
X143839538Y-96815182D01*
X143839538Y-96590181D01*
X143889538Y-96540181D01*
X144039538Y-96540181D01*
X144089537Y-96590181D01*
G37*
G36*
X145154539Y-90624681D02*
G01*
X145154539Y-91734681D01*
X145104539Y-91784681D01*
X144164539Y-91784681D01*
X144114539Y-91734681D01*
X144114539Y-90624681D01*
X144164539Y-90574681D01*
X145104539Y-90574681D01*
X145154539Y-90624681D01*
G37*
G36*
X144589539Y-96590181D02*
G01*
X144589539Y-96815182D01*
X144539539Y-96865182D01*
X144389537Y-96865182D01*
X144339537Y-96815182D01*
X144339537Y-96590181D01*
X144389537Y-96540181D01*
X144539539Y-96540181D01*
X144589539Y-96590181D01*
G37*
G36*
X144644538Y-94679682D02*
G01*
X144644538Y-96289681D01*
X144594538Y-96339681D01*
X142984538Y-96339681D01*
X142934538Y-96289681D01*
X142934538Y-94679682D01*
X142984538Y-94629682D01*
X144594538Y-94629682D01*
X144644538Y-94679682D01*
G37*
G36*
X142039539Y-89514681D02*
G01*
X142039539Y-90164682D01*
X141989539Y-90214682D01*
X141389538Y-90214679D01*
X141339538Y-90164682D01*
X141339538Y-90014680D01*
X141389538Y-89964680D01*
X141739540Y-89964680D01*
X141789539Y-89914680D01*
X141789537Y-89514681D01*
X141839537Y-89464681D01*
X141989537Y-89464681D01*
X142039539Y-89514681D01*
G37*
G36*
X145864538Y-92514682D02*
G01*
X145914538Y-92564682D01*
X145914538Y-92826681D01*
X145964537Y-92876683D01*
X146189538Y-92876681D01*
X146239538Y-92926683D01*
X146239538Y-93076680D01*
X146189538Y-93126683D01*
X145964537Y-93126683D01*
X145914538Y-93176677D01*
X145914538Y-93326680D01*
X145964537Y-93376682D01*
X146189538Y-93376682D01*
X146239538Y-93426679D01*
X146239538Y-93576679D01*
X146189538Y-93626679D01*
X145964537Y-93626679D01*
X145914538Y-93676679D01*
X145914538Y-93826679D01*
X145964537Y-93876681D01*
X146189538Y-93876681D01*
X146239538Y-93926681D01*
X146239538Y-94076681D01*
X146189538Y-94126681D01*
X145964537Y-94126681D01*
X145914538Y-94176680D01*
X145914538Y-94326680D01*
X145964537Y-94376680D01*
X146189538Y-94376683D01*
X146239538Y-94426680D01*
X146239538Y-94576680D01*
X146189538Y-94626682D01*
X145964537Y-94626682D01*
X145914538Y-94676682D01*
X145914538Y-94826682D01*
X145964537Y-94876682D01*
X146189538Y-94876682D01*
X146239538Y-94926682D01*
X146239538Y-95076681D01*
X146189538Y-95126681D01*
X145964537Y-95126681D01*
X145914538Y-95176681D01*
X145914538Y-95326681D01*
X145964537Y-95376678D01*
X146189538Y-95376681D01*
X146239538Y-95426681D01*
X146239538Y-95576680D01*
X146189538Y-95626680D01*
X145964537Y-95626680D01*
X145914538Y-95676680D01*
X145914538Y-95826680D01*
X145964537Y-95876680D01*
X146189538Y-95876680D01*
X146239538Y-95926680D01*
X146239538Y-96076679D01*
X146189538Y-96126679D01*
X145964537Y-96126679D01*
X145914538Y-96176679D01*
X145914538Y-96464682D01*
X145864538Y-96514682D01*
X145589539Y-96514679D01*
X145539537Y-96464682D01*
X145539540Y-92564682D01*
X145589537Y-92514680D01*
X145864538Y-92514682D01*
G37*
%TO.C,U18*%
G36*
X129714539Y-90445000D02*
G01*
X129714539Y-91555000D01*
X129664539Y-91605000D01*
X128724538Y-91605000D01*
X128674539Y-91555000D01*
X128674539Y-90445000D01*
X128724538Y-90395000D01*
X129664539Y-90395000D01*
X129714539Y-90445000D01*
G37*
G36*
X130444538Y-92177999D02*
G01*
X130444538Y-93828001D01*
X130394538Y-93878000D01*
X128784538Y-93878000D01*
X128734538Y-93828001D01*
X128734538Y-92177999D01*
X128784538Y-92127999D01*
X130394538Y-92127999D01*
X130444538Y-92177999D01*
G37*
G36*
X129389538Y-96410500D02*
G01*
X129389538Y-96635501D01*
X129339538Y-96685501D01*
X129189539Y-96685501D01*
X129139539Y-96635501D01*
X129139539Y-96410500D01*
X129189539Y-96360500D01*
X129339538Y-96360500D01*
X129389538Y-96410500D01*
G37*
G36*
X129889537Y-96410500D02*
G01*
X129889537Y-96635501D01*
X129839538Y-96685501D01*
X129689538Y-96685501D01*
X129639538Y-96635501D01*
X129639538Y-96410500D01*
X129689538Y-96360500D01*
X129839538Y-96360500D01*
X129889537Y-96410500D01*
G37*
G36*
X130954539Y-90445000D02*
G01*
X130954539Y-91555000D01*
X130904539Y-91605000D01*
X129964539Y-91605000D01*
X129914539Y-91555000D01*
X129914539Y-90445000D01*
X129964539Y-90395000D01*
X130904539Y-90395000D01*
X130954539Y-90445000D01*
G37*
G36*
X130389539Y-96410500D02*
G01*
X130389539Y-96635501D01*
X130339539Y-96685501D01*
X130189537Y-96685501D01*
X130139537Y-96635501D01*
X130139537Y-96410500D01*
X130189537Y-96360500D01*
X130339539Y-96360500D01*
X130389539Y-96410500D01*
G37*
G36*
X130444538Y-94500001D02*
G01*
X130444538Y-96110000D01*
X130394538Y-96160000D01*
X128784538Y-96160000D01*
X128734538Y-96110000D01*
X128734538Y-94500001D01*
X128784538Y-94450001D01*
X130394538Y-94450001D01*
X130444538Y-94500001D01*
G37*
G36*
X127839539Y-89335000D02*
G01*
X127839539Y-89985001D01*
X127789539Y-90035001D01*
X127189538Y-90034998D01*
X127139538Y-89985001D01*
X127139538Y-89834999D01*
X127189538Y-89784999D01*
X127539540Y-89784999D01*
X127589539Y-89734999D01*
X127589537Y-89335000D01*
X127639537Y-89285000D01*
X127789537Y-89285000D01*
X127839539Y-89335000D01*
G37*
G36*
X131664538Y-92335001D02*
G01*
X131714538Y-92385001D01*
X131714538Y-92647000D01*
X131764537Y-92697002D01*
X131989538Y-92697000D01*
X132039538Y-92747002D01*
X132039538Y-92896999D01*
X131989538Y-92947002D01*
X131764537Y-92947002D01*
X131714538Y-92996996D01*
X131714538Y-93146999D01*
X131764537Y-93197001D01*
X131989538Y-93197001D01*
X132039538Y-93246998D01*
X132039538Y-93396998D01*
X131989538Y-93446998D01*
X131764537Y-93446998D01*
X131714538Y-93496998D01*
X131714538Y-93646998D01*
X131764537Y-93697000D01*
X131989538Y-93697000D01*
X132039538Y-93747000D01*
X132039538Y-93897000D01*
X131989538Y-93947000D01*
X131764537Y-93947000D01*
X131714538Y-93996999D01*
X131714538Y-94146999D01*
X131764537Y-94196999D01*
X131989538Y-94197002D01*
X132039538Y-94246999D01*
X132039538Y-94396999D01*
X131989538Y-94447001D01*
X131764537Y-94447001D01*
X131714538Y-94497001D01*
X131714538Y-94647001D01*
X131764537Y-94697001D01*
X131989538Y-94697001D01*
X132039538Y-94747001D01*
X132039538Y-94897000D01*
X131989538Y-94947000D01*
X131764537Y-94947000D01*
X131714538Y-94997000D01*
X131714538Y-95147000D01*
X131764537Y-95196997D01*
X131989538Y-95197000D01*
X132039538Y-95247000D01*
X132039538Y-95396999D01*
X131989538Y-95446999D01*
X131764537Y-95446999D01*
X131714538Y-95496999D01*
X131714538Y-95646999D01*
X131764537Y-95696999D01*
X131989538Y-95696999D01*
X132039538Y-95746999D01*
X132039538Y-95896998D01*
X131989538Y-95946998D01*
X131764537Y-95946998D01*
X131714538Y-95996998D01*
X131714538Y-96285001D01*
X131664538Y-96335001D01*
X131389539Y-96334998D01*
X131339537Y-96285001D01*
X131339540Y-92385001D01*
X131389537Y-92334999D01*
X131664538Y-92335001D01*
G37*
%TO.C,U6*%
G36*
X171620001Y-68849999D02*
G01*
X171620001Y-70900000D01*
X171570001Y-70950000D01*
X171219999Y-70950000D01*
X171169999Y-70900000D01*
X171169999Y-68849999D01*
X171219999Y-68799999D01*
X171570001Y-68799999D01*
X171620001Y-68849999D01*
G37*
G36*
X171620001Y-74599998D02*
G01*
X171620001Y-76649999D01*
X171570001Y-76699999D01*
X171219999Y-76699999D01*
X171169999Y-76649999D01*
X171169999Y-74599998D01*
X171219999Y-74549998D01*
X171570001Y-74549998D01*
X171620001Y-74599998D01*
G37*
G36*
X174849999Y-71599999D02*
G01*
X174849999Y-73899999D01*
X174800000Y-73949999D01*
X171800000Y-73949999D01*
X171750001Y-73899999D01*
X171750001Y-71599999D01*
X171800000Y-71549999D01*
X174800000Y-71549999D01*
X174849999Y-71599999D01*
G37*
G36*
X172890001Y-68849999D02*
G01*
X172890001Y-70900000D01*
X172840001Y-70950000D01*
X172489999Y-70950000D01*
X172439999Y-70900000D01*
X172439999Y-68849999D01*
X172489999Y-68799999D01*
X172840001Y-68799999D01*
X172890001Y-68849999D01*
G37*
G36*
X172890001Y-74599998D02*
G01*
X172890001Y-76649999D01*
X172840001Y-76699999D01*
X172489999Y-76699999D01*
X172439999Y-76649999D01*
X172439999Y-74599998D01*
X172489999Y-74549998D01*
X172840001Y-74549998D01*
X172890001Y-74599998D01*
G37*
G36*
X174160001Y-74599998D02*
G01*
X174160001Y-76649999D01*
X174110001Y-76699999D01*
X173759999Y-76699999D01*
X173709999Y-76649999D01*
X173709999Y-74599998D01*
X173759999Y-74549998D01*
X174110001Y-74549998D01*
X174160001Y-74599998D01*
G37*
G36*
X174160001Y-68849999D02*
G01*
X174160001Y-70900000D01*
X174110001Y-70950000D01*
X173759999Y-70950000D01*
X173709999Y-70900000D01*
X173709999Y-68849999D01*
X173759999Y-68799999D01*
X174110001Y-68799999D01*
X174160001Y-68849999D01*
G37*
G36*
X175430001Y-68849999D02*
G01*
X175430001Y-70900000D01*
X175380001Y-70950000D01*
X175029999Y-70950000D01*
X174979999Y-70900000D01*
X174979999Y-68849999D01*
X175029999Y-68799999D01*
X175380001Y-68799999D01*
X175430001Y-68849999D01*
G37*
G36*
X175430001Y-74599998D02*
G01*
X175430001Y-76649999D01*
X175380001Y-76699999D01*
X175029999Y-76699999D01*
X174979999Y-76649999D01*
X174979999Y-74599998D01*
X175029999Y-74549998D01*
X175380001Y-74549998D01*
X175430001Y-74599998D01*
G37*
%TD*%
D11*
%TO.C,D15*%
X178100000Y-70599998D03*
X178100000Y-74599998D03*
%TD*%
D12*
%TO.C,C34*%
X119900000Y-139200000D03*
X119900000Y-137640000D03*
%TD*%
D13*
%TO.C,R26*%
X176020000Y-61299998D03*
X174380000Y-61299998D03*
%TD*%
D14*
%TO.C,C59*%
X145560000Y-87800000D03*
X144000000Y-87800000D03*
%TD*%
%TO.C,C76*%
X160180000Y-87800000D03*
X158620000Y-87800000D03*
%TD*%
D15*
%TO.C,C92*%
X130420000Y-74400000D03*
X131980000Y-74400000D03*
%TD*%
D16*
%TO.C,C69*%
X128680000Y-104400000D03*
X125720000Y-104400000D03*
%TD*%
D13*
%TO.C,TH1*%
X132025000Y-76000000D03*
X130375000Y-76000000D03*
%TD*%
D17*
%TO.C,R84*%
X130900000Y-137580000D03*
X130900000Y-139220000D03*
%TD*%
D18*
%TO.C,C58*%
X140400000Y-89700000D03*
X140400000Y-91260000D03*
%TD*%
D19*
%TO.C,R102*%
X151999400Y-75549999D03*
X153639400Y-75549999D03*
%TD*%
D20*
%TO.C,U19*%
X160125000Y-90056256D03*
D21*
X160300001Y-90606255D03*
X160300001Y-91106256D03*
X160300001Y-91606255D03*
D22*
X160168749Y-95000005D03*
D23*
X156231251Y-95000000D03*
D21*
X156099999Y-91606255D03*
X156099999Y-91106256D03*
X156099999Y-90606255D03*
D24*
X156275000Y-90056256D03*
D25*
X157375000Y-89831255D03*
X157874999Y-89831255D03*
X158375001Y-89831255D03*
X158875000Y-89831255D03*
X159374999Y-89831255D03*
%TD*%
D17*
%TO.C,R80*%
X157500000Y-137780000D03*
X157500000Y-139420000D03*
%TD*%
D19*
%TO.C,R28*%
X174380000Y-59899998D03*
X176020000Y-59899998D03*
%TD*%
D13*
%TO.C,R96*%
X153659400Y-69400000D03*
X152019400Y-69400000D03*
%TD*%
D26*
%TO.C,FB1*%
X83820000Y-65350000D03*
X85400000Y-65350000D03*
%TD*%
D18*
%TO.C,C25*%
X169800000Y-66119998D03*
X169800000Y-67679998D03*
%TD*%
D27*
%TO.C,D6*%
X152250000Y-57800000D03*
X153200000Y-57800000D03*
X154150000Y-57800000D03*
X154150000Y-60200000D03*
X153200000Y-60200000D03*
X152250000Y-60200000D03*
%TD*%
D16*
%TO.C,C29*%
X154451778Y-100646175D03*
X151491778Y-100646175D03*
%TD*%
D19*
%TO.C,R101*%
X139799400Y-75349999D03*
X141439400Y-75349999D03*
%TD*%
D13*
%TO.C,R103*%
X153639400Y-77149999D03*
X151999400Y-77149999D03*
%TD*%
D20*
%TO.C,U12*%
X117194538Y-89839681D03*
D21*
X117369539Y-90389680D03*
X117369539Y-90889681D03*
X117369539Y-91389680D03*
D22*
X117238287Y-94783430D03*
D23*
X113300789Y-94783425D03*
D21*
X113169537Y-91389680D03*
X113169537Y-90889681D03*
X113169537Y-90389680D03*
D24*
X113344538Y-89839681D03*
D25*
X114444538Y-89614680D03*
X114944537Y-89614680D03*
X115444539Y-89614680D03*
X115944538Y-89614680D03*
X116444537Y-89614680D03*
%TD*%
D14*
%TO.C,C5*%
X165400000Y-58370000D03*
X163840000Y-58370000D03*
%TD*%
D18*
%TO.C,C2*%
X103305000Y-112105000D03*
X103305000Y-113665000D03*
%TD*%
D16*
%TO.C,C51*%
X111340000Y-95900000D03*
X108380000Y-95900000D03*
%TD*%
%TO.C,C63*%
X140160000Y-95800000D03*
X137200000Y-95800000D03*
%TD*%
D18*
%TO.C,C67*%
X125950000Y-89670000D03*
X125950000Y-91230000D03*
%TD*%
D19*
%TO.C,R98*%
X139999400Y-70949999D03*
X141639400Y-70949999D03*
%TD*%
D16*
%TO.C,C12*%
X140160000Y-98200000D03*
X137200000Y-98200000D03*
%TD*%
D17*
%TO.C,R78*%
X133800000Y-137430000D03*
X133800000Y-139070000D03*
%TD*%
D28*
%TO.C,L4*%
X177600000Y-67084998D03*
X177600000Y-64714998D03*
%TD*%
D15*
%TO.C,C93*%
X91795000Y-99480000D03*
X93355000Y-99480000D03*
%TD*%
D19*
%TO.C,R95*%
X152019400Y-68000000D03*
X153659400Y-68000000D03*
%TD*%
D16*
%TO.C,C50*%
X111360000Y-93400000D03*
X108400000Y-93400000D03*
%TD*%
D19*
%TO.C,R1*%
X100540000Y-62400000D03*
X102180000Y-62400000D03*
%TD*%
D29*
%TO.C,U14*%
X149638800Y-73999998D03*
X149638800Y-74649999D03*
X149638800Y-75300000D03*
X149638800Y-75949999D03*
X149638800Y-76599998D03*
X149638800Y-77249999D03*
X149638800Y-77899998D03*
X144000000Y-77900000D03*
X144000000Y-77249999D03*
X144000000Y-76600000D03*
X144000000Y-75949999D03*
X144000000Y-75300000D03*
X144000000Y-74649999D03*
X144000000Y-74000000D03*
%TD*%
D12*
%TO.C,C35*%
X132200000Y-139230000D03*
X132200000Y-137670000D03*
%TD*%
D19*
%TO.C,R104*%
X151999400Y-73949999D03*
X153639400Y-73949999D03*
%TD*%
D30*
%TO.C,R106*%
X132312500Y-104400000D03*
X130487500Y-104400000D03*
%TD*%
D17*
%TO.C,R82*%
X118600000Y-137580000D03*
X118600000Y-139220000D03*
%TD*%
D30*
%TO.C,R94*%
X118600000Y-104000000D03*
X116775000Y-104000000D03*
%TD*%
D17*
%TO.C,R88*%
X117300000Y-137580000D03*
X117300000Y-139220000D03*
%TD*%
D19*
%TO.C,R4*%
X100540000Y-58200000D03*
X102180000Y-58200000D03*
%TD*%
%TO.C,R54*%
X91775000Y-95800000D03*
X93415000Y-95800000D03*
%TD*%
D18*
%TO.C,C14*%
X103400000Y-133440000D03*
X103400000Y-135000000D03*
%TD*%
D30*
%TO.C,R105*%
X147200000Y-104200000D03*
X145375000Y-104200000D03*
%TD*%
D15*
%TO.C,C55*%
X140039400Y-67749999D03*
X141599400Y-67749999D03*
%TD*%
D16*
%TO.C,C26*%
X111280000Y-100800000D03*
X108320000Y-100800000D03*
%TD*%
D17*
%TO.C,R108*%
X121650000Y-137630000D03*
X121650000Y-139270000D03*
%TD*%
D19*
%TO.C,R99*%
X139999400Y-69299999D03*
X141639400Y-69299999D03*
%TD*%
%TO.C,R97*%
X152039400Y-71000000D03*
X153679400Y-71000000D03*
%TD*%
D17*
%TO.C,R89*%
X129600000Y-137580000D03*
X129600000Y-139220000D03*
%TD*%
D13*
%TO.C,R22*%
X176020000Y-57200000D03*
X174380000Y-57200000D03*
%TD*%
D31*
%TO.C,U7*%
X129670000Y-65185000D03*
X128720000Y-65185000D03*
X127770000Y-65185000D03*
X127770000Y-62910000D03*
X128720000Y-62910000D03*
X129670000Y-62910000D03*
%TD*%
D16*
%TO.C,C27*%
X125960000Y-100600000D03*
X123000000Y-100600000D03*
%TD*%
D18*
%TO.C,C73*%
X154750000Y-89670000D03*
X154750000Y-91230000D03*
%TD*%
D32*
%TO.C,U3*%
X96050000Y-134880000D03*
X96050000Y-133610000D03*
X96050000Y-132340000D03*
X96050000Y-131070000D03*
X96050000Y-129800000D03*
X96050000Y-128530000D03*
X96050000Y-127260000D03*
X96050000Y-125990000D03*
X101000000Y-125990000D03*
X101000000Y-127260000D03*
X101000000Y-128530000D03*
X101000000Y-129800000D03*
X101000000Y-131070000D03*
X101000000Y-132340000D03*
X101000000Y-133610000D03*
X101000000Y-134880000D03*
%TD*%
D31*
%TO.C,U9*%
X125920000Y-65247500D03*
X124970000Y-65247500D03*
X124020000Y-65247500D03*
X124020000Y-62972500D03*
X124970000Y-62972500D03*
X125920000Y-62972500D03*
%TD*%
D12*
%TO.C,C23*%
X174000000Y-67679998D03*
X174000000Y-66119998D03*
%TD*%
D17*
%TO.C,R25*%
X169400000Y-74679998D03*
X169400000Y-76319998D03*
%TD*%
%TO.C,R36*%
X165400000Y-76780000D03*
X165400000Y-78420000D03*
%TD*%
D16*
%TO.C,C72*%
X125880000Y-93400000D03*
X122920000Y-93400000D03*
%TD*%
D15*
%TO.C,C18*%
X177590000Y-59699998D03*
X179150000Y-59699998D03*
%TD*%
D20*
%TO.C,U16*%
X145714538Y-90039681D03*
D21*
X145889539Y-90589680D03*
X145889539Y-91089681D03*
X145889539Y-91589680D03*
D22*
X145758287Y-94983430D03*
D23*
X141820789Y-94983425D03*
D21*
X141689537Y-91589680D03*
X141689537Y-91089681D03*
X141689537Y-90589680D03*
D24*
X141864538Y-90039681D03*
D25*
X142964538Y-89814680D03*
X143464537Y-89814680D03*
X143964539Y-89814680D03*
X144464538Y-89814680D03*
X144964537Y-89814680D03*
%TD*%
D17*
%TO.C,R29*%
X172600000Y-66079998D03*
X172600000Y-67719998D03*
%TD*%
D16*
%TO.C,C79*%
X154480000Y-95800000D03*
X151520000Y-95800000D03*
%TD*%
D32*
%TO.C,U4*%
X96230000Y-113930000D03*
X96230000Y-112660000D03*
X96230000Y-111390000D03*
X96230000Y-110120000D03*
X96230000Y-108850000D03*
X96230000Y-107580000D03*
X96230000Y-106310000D03*
X96230000Y-105040000D03*
X101180000Y-105040000D03*
X101180000Y-106310000D03*
X101180000Y-107580000D03*
X101180000Y-108850000D03*
X101180000Y-110120000D03*
X101180000Y-111390000D03*
X101180000Y-112660000D03*
X101180000Y-113930000D03*
%TD*%
D30*
%TO.C,R107*%
X161112500Y-104400000D03*
X159287500Y-104400000D03*
%TD*%
D16*
%TO.C,C77*%
X157680000Y-104600000D03*
X154720000Y-104600000D03*
%TD*%
D19*
%TO.C,R3*%
X100540000Y-59600000D03*
X102180000Y-59600000D03*
%TD*%
%TO.C,R2*%
X100560000Y-61000000D03*
X102200000Y-61000000D03*
%TD*%
D33*
%TO.C,C22*%
X169440000Y-78299998D03*
X172400000Y-78299998D03*
%TD*%
D16*
%TO.C,C9*%
X111340000Y-98400000D03*
X108380000Y-98400000D03*
%TD*%
%TO.C,C28*%
X140160000Y-100600000D03*
X137200000Y-100600000D03*
%TD*%
D19*
%TO.C,R52*%
X130380000Y-77600000D03*
X132020000Y-77600000D03*
%TD*%
D16*
%TO.C,C21*%
X177200000Y-78299998D03*
X174240000Y-78299998D03*
%TD*%
%TO.C,C54*%
X115000000Y-104200000D03*
X112040000Y-104200000D03*
%TD*%
D19*
%TO.C,R100*%
X139799400Y-76749999D03*
X141439400Y-76749999D03*
%TD*%
D15*
%TO.C,C19*%
X177610000Y-61199998D03*
X179170000Y-61199998D03*
%TD*%
D14*
%TO.C,C68*%
X131360000Y-87800000D03*
X129800000Y-87800000D03*
%TD*%
D17*
%TO.C,R87*%
X154550000Y-137730000D03*
X154550000Y-139370000D03*
%TD*%
D34*
%TO.C,D18*%
X93595000Y-97680000D03*
X91495000Y-97680000D03*
%TD*%
D35*
%TO.C,R30*%
X171200000Y-67719998D03*
X171200000Y-66079998D03*
%TD*%
D36*
%TO.C,C39*%
X111000000Y-63600000D03*
X112000000Y-63600000D03*
%TD*%
D13*
%TO.C,R5*%
X105000000Y-62400000D03*
X103360000Y-62400000D03*
%TD*%
D16*
%TO.C,C62*%
X140160000Y-93400000D03*
X137200000Y-93400000D03*
%TD*%
D37*
%TO.C,U2*%
X160900000Y-60800000D03*
X163200000Y-60800000D03*
X165500000Y-60800000D03*
D38*
X163200000Y-66770000D03*
%TD*%
D19*
%TO.C,R48*%
X127950000Y-67310000D03*
X129590000Y-67310000D03*
%TD*%
D15*
%TO.C,C56*%
X139839400Y-73949999D03*
X141399400Y-73949999D03*
%TD*%
D16*
%TO.C,C80*%
X154480000Y-98200000D03*
X151520000Y-98200000D03*
%TD*%
D36*
%TO.C,C38*%
X111100000Y-67800000D03*
X112100000Y-67800000D03*
%TD*%
D15*
%TO.C,C17*%
X127790000Y-61110000D03*
X129350000Y-61110000D03*
%TD*%
D19*
%TO.C,R27*%
X174380000Y-58499998D03*
X176020000Y-58499998D03*
%TD*%
D16*
%TO.C,C60*%
X143480000Y-104200000D03*
X140520000Y-104200000D03*
%TD*%
D29*
%TO.C,U13*%
X149619400Y-67849999D03*
X149619400Y-68500000D03*
X149619400Y-69150001D03*
X149619400Y-69800000D03*
X149619400Y-70449999D03*
X149619400Y-71100000D03*
X149619400Y-71749999D03*
X143980600Y-71750001D03*
X143980600Y-71100000D03*
X143980600Y-70450001D03*
X143980600Y-69800000D03*
X143980600Y-69150001D03*
X143980600Y-68500000D03*
X143980600Y-67850001D03*
%TD*%
D12*
%TO.C,C43*%
X144300000Y-139260000D03*
X144300000Y-137700000D03*
%TD*%
D16*
%TO.C,C10*%
X125880000Y-95800000D03*
X122920000Y-95800000D03*
%TD*%
D13*
%TO.C,R6*%
X105000000Y-61000000D03*
X103360000Y-61000000D03*
%TD*%
D20*
%TO.C,U18*%
X131514538Y-89860000D03*
D21*
X131689539Y-90409999D03*
X131689539Y-90910000D03*
X131689539Y-91409999D03*
D22*
X131558287Y-94803749D03*
D23*
X127620789Y-94803744D03*
D21*
X127489537Y-91409999D03*
X127489537Y-90910000D03*
X127489537Y-90409999D03*
D24*
X127664538Y-89860000D03*
D25*
X128764538Y-89634999D03*
X129264537Y-89634999D03*
X129764539Y-89634999D03*
X130264538Y-89634999D03*
X130764537Y-89634999D03*
%TD*%
D13*
%TO.C,R47*%
X125790000Y-67310000D03*
X124150000Y-67310000D03*
%TD*%
D15*
%TO.C,C24*%
X174400000Y-62699998D03*
X175960000Y-62699998D03*
%TD*%
D17*
%TO.C,R91*%
X153250000Y-137730000D03*
X153250000Y-139370000D03*
%TD*%
D15*
%TO.C,C20*%
X177640000Y-62699998D03*
X179200000Y-62699998D03*
%TD*%
D13*
%TO.C,R7*%
X104980000Y-59600000D03*
X103340000Y-59600000D03*
%TD*%
D39*
%TO.C,X1*%
X114400000Y-63700000D03*
X114400000Y-67800000D03*
%TD*%
D19*
%TO.C,R53*%
X91775000Y-92000000D03*
X93415000Y-92000000D03*
%TD*%
D16*
%TO.C,C71*%
X125880000Y-98200000D03*
X122920000Y-98200000D03*
%TD*%
D18*
%TO.C,C48*%
X111600000Y-89620000D03*
X111600000Y-91180000D03*
%TD*%
D14*
%TO.C,C47*%
X116980000Y-87800000D03*
X115420000Y-87800000D03*
%TD*%
D13*
%TO.C,R8*%
X104980000Y-58200000D03*
X103340000Y-58200000D03*
%TD*%
D18*
%TO.C,C13*%
X164000000Y-76840000D03*
X164000000Y-78400000D03*
%TD*%
D16*
%TO.C,C11*%
X154480000Y-93400000D03*
X151520000Y-93400000D03*
%TD*%
D12*
%TO.C,C44*%
X155850000Y-139380000D03*
X155850000Y-137820000D03*
%TD*%
D17*
%TO.C,R90*%
X141750000Y-137660000D03*
X141750000Y-139300000D03*
%TD*%
D27*
%TO.C,D5*%
X146850000Y-57600000D03*
X147800000Y-57600000D03*
X148750000Y-57600000D03*
X148750000Y-60000000D03*
X147800000Y-60000000D03*
X146850000Y-60000000D03*
%TD*%
D17*
%TO.C,R79*%
X145950000Y-137640000D03*
X145950000Y-139280000D03*
%TD*%
%TO.C,R86*%
X143000000Y-137660000D03*
X143000000Y-139300000D03*
%TD*%
D15*
%TO.C,C15*%
X124190000Y-61110000D03*
X125750000Y-61110000D03*
%TD*%
D14*
%TO.C,C6*%
X162380000Y-58370000D03*
X160820000Y-58370000D03*
%TD*%
M02*
