M48
; DRILL file {KiCad 8.0.2} date 2026-04-23T08:15:25-0400
; FORMAT={-:-/ absolute / inch / decimal}
; #@! TF.CreationDate,2026-04-23T08:15:25-04:00
; #@! TF.GenerationSoftware,Kicad,Pcbnew,8.0.2
; #@! TF.FileFunction,Plated,1,4,PTH
FMAT,2
INCH
; #@! TA.AperFunction,Plated,PTH,ViaDrill
T1C0.0118
; #@! TA.AperFunction,Plated,PTH,ComponentDrill
T2C0.0118
; #@! TA.AperFunction,Plated,PTH,ComponentDrill
T3C0.0197
; #@! TA.AperFunction,Plated,PTH,ComponentDrill
T4C0.0472
; #@! TA.AperFunction,Plated,PTH,ComponentDrill
T5C0.0630
%
G90
G05
T1
X5.25Y-3.6
X5.25Y-4.05
X5.252Y-4.7705
X5.2661Y-5.2205
X5.2992Y-4.8205
X5.3Y-3.7
X5.3Y-3.95
X5.3161Y-5.1205
X5.3465Y-4.7705
X5.35Y-3.6
X5.35Y-4.05
X5.3661Y-5.2205
X5.3961Y-3.4669
X5.3961Y-3.5669
X5.3961Y-4.0732
X5.3961Y-4.1732
X5.4039Y-5.2543
X5.4039Y-5.3543
X5.4161Y-4.5705
X5.4161Y-4.6705
X5.4961Y-3.4669
X5.4961Y-3.5669
X5.4961Y-4.0732
X5.4961Y-4.1732
X5.5039Y-5.2543
X5.5039Y-5.3543
X5.5161Y-4.5705
X5.5161Y-4.6705
X5.6Y-3.75
X5.6Y-3.85
X5.6Y-3.9
X5.6Y-3.95
X5.6161Y-4.8705
X5.6161Y-4.9205
X5.6161Y-5.0205
X5.6161Y-5.0705
X5.8425Y-4.0472
X5.8425Y-4.0972
X5.8425Y-4.1472
X5.8425Y-4.1972
X5.8425Y-4.2472
X5.8508Y-5.2142
X5.8508Y-5.2642
X5.8508Y-5.3142
X5.8508Y-5.3642
X5.8508Y-5.4142
X5.8583Y-3.4331
X5.8583Y-3.4831
X5.8583Y-3.5331
X5.8583Y-3.5831
X5.8583Y-3.6331
X5.8665Y-4.5291
X5.8665Y-4.5791
X5.8665Y-4.6291
X5.8665Y-4.6791
X5.8665Y-4.7291
X5.8925Y-4.0472
X5.8925Y-4.0972
X5.8925Y-4.1472
X5.8925Y-4.1972
X5.8925Y-4.2472
X5.9008Y-5.2142
X5.9008Y-5.2642
X5.9008Y-5.3142
X5.9008Y-5.3642
X5.9008Y-5.4142
X5.9083Y-3.4331
X5.9083Y-3.4831
X5.9083Y-3.5331
X5.9083Y-3.5831
X5.9083Y-3.6331
X5.9165Y-4.5291
X5.9165Y-4.5791
X5.9165Y-4.6291
X5.9165Y-4.6791
X5.9165Y-4.7291
X5.9425Y-4.0472
X5.9425Y-4.0972
X5.9425Y-4.1472
X5.9425Y-4.1972
X5.9425Y-4.2472
X5.9449Y-3.8268
X5.9508Y-5.2142
X5.9508Y-5.2642
X5.9508Y-5.3142
X5.9508Y-5.3642
X5.9508Y-5.4142
X5.9583Y-3.4331
X5.9583Y-3.4831
X5.9583Y-3.5331
X5.9583Y-3.5831
X5.9583Y-3.6331
X5.9665Y-4.5291
X5.9665Y-4.5791
X5.9665Y-4.6291
X5.9665Y-4.6791
X5.9665Y-4.7291
X5.9925Y-4.0472
X5.9925Y-4.0972
X5.9925Y-4.1472
X5.9925Y-4.1972
X5.9925Y-4.2472
X6.0008Y-5.2142
X6.0008Y-5.2642
X6.0008Y-5.3142
X6.0008Y-5.3642
X6.0008Y-5.4142
X6.0083Y-3.4331
X6.0083Y-3.4831
X6.0083Y-3.5331
X6.0083Y-3.5831
X6.0083Y-3.6331
X6.0165Y-4.5291
X6.0165Y-4.5791
X6.0165Y-4.6291
X6.0165Y-4.6791
X6.0165Y-4.7291
X6.0425Y-4.0472
X6.0425Y-4.0972
X6.0425Y-4.1472
X6.0425Y-4.1972
X6.0425Y-4.2472
X6.0508Y-5.2142
X6.0508Y-5.2642
X6.0508Y-5.3142
X6.0508Y-5.3642
X6.0508Y-5.4142
X6.0583Y-3.4331
X6.0583Y-3.4831
X6.0583Y-3.5331
X6.0583Y-3.5831
X6.0583Y-3.6331
X6.0665Y-4.5291
X6.0665Y-4.5791
X6.0665Y-4.6291
X6.0665Y-4.6791
X6.0665Y-4.7291
X6.0925Y-4.0472
X6.0925Y-4.0972
X6.0925Y-4.1472
X6.0925Y-4.1972
X6.0925Y-4.2472
X6.1008Y-5.2142
X6.1008Y-5.2642
X6.1008Y-5.3142
X6.1008Y-5.3642
X6.1008Y-5.4142
X6.1083Y-3.4331
X6.1083Y-3.4831
X6.1083Y-3.5331
X6.1083Y-3.5831
X6.1083Y-3.6331
X6.1165Y-4.5291
X6.1165Y-4.5791
X6.1165Y-4.6291
X6.1165Y-4.6791
X6.1165Y-4.7291
X6.1425Y-4.0472
X6.1425Y-4.0972
X6.1425Y-4.1472
X6.1425Y-4.1972
X6.1425Y-4.2472
X6.1508Y-5.2142
X6.1508Y-5.2642
X6.1508Y-5.3142
X6.1508Y-5.3642
X6.1508Y-5.4142
X6.1583Y-3.4331
X6.1583Y-3.4831
X6.1583Y-3.5331
X6.1583Y-3.5831
X6.1583Y-3.6331
X6.1665Y-4.5291
X6.1665Y-4.5791
X6.1665Y-4.6291
X6.1665Y-4.6791
X6.1665Y-4.7291
X6.3Y-3.45
X6.3Y-3.5
X6.3Y-3.55
X6.3Y-3.6
X6.3Y-4.05
X6.3Y-4.1
X6.3Y-4.15
X6.3Y-4.2
X6.3Y-4.25
X6.3Y-4.3
X6.3Y-4.35
X6.3161Y-4.5205
X6.3161Y-4.5705
X6.3161Y-4.6205
X6.3161Y-4.6705
X6.3161Y-4.7205
X6.3161Y-4.8205
X6.3161Y-4.9205
X6.3161Y-5.0205
X6.3161Y-5.2205
X6.3161Y-5.2705
X6.3161Y-5.3205
X6.3161Y-5.3705
X6.3161Y-5.4205
X6.35Y-3.45
X6.35Y-3.5
X6.35Y-3.55
X6.35Y-3.6
X6.35Y-3.7
X6.35Y-3.8
X6.35Y-3.9
X6.35Y-4.0
X6.35Y-4.05
X6.35Y-4.1
X6.35Y-4.15
X6.35Y-4.2
X6.35Y-4.25
X6.35Y-4.3
X6.35Y-4.35
X6.3661Y-4.5205
X6.3661Y-4.5705
X6.3661Y-4.6205
X6.3661Y-4.6705
X6.3661Y-4.7205
X6.3661Y-5.2205
X6.3661Y-5.2705
X6.3661Y-5.2705
X6.3661Y-5.3205
X6.3661Y-5.3705
X6.3661Y-5.4205
X6.4Y-3.45
X6.4Y-3.5
X6.4Y-3.55
X6.4Y-3.6
X6.4Y-4.05
X6.4Y-4.1
X6.4Y-4.15
X6.4Y-4.2
X6.4Y-4.25
X6.4Y-4.3
X6.4161Y-4.5205
X6.4161Y-4.5705
X6.4161Y-4.6205
X6.4161Y-4.6705
X6.4161Y-4.7205
X6.4161Y-4.8205
X6.4161Y-4.9205
X6.4161Y-5.0205
X6.4161Y-5.1205
X6.4161Y-5.2205
X6.4161Y-5.2705
X6.4161Y-5.3205
X6.4161Y-5.3705
X6.4161Y-5.4205
X6.45Y-3.45
X6.45Y-3.5
X6.45Y-3.55
X6.45Y-3.6
X6.45Y-3.7
X6.45Y-3.8
X6.45Y-3.9
X6.45Y-4.0
X6.45Y-4.05
X6.45Y-4.1
X6.45Y-4.15
X6.45Y-4.2
X6.45Y-4.25
X6.4661Y-4.5205
X6.4661Y-4.5705
X6.4661Y-4.6205
X6.4661Y-4.6705
X6.4661Y-4.7205
X6.4661Y-5.2205
X6.4661Y-5.2705
X6.4661Y-5.3205
X6.4661Y-5.3705
X6.5161Y-4.8205
X6.5161Y-4.9205
X6.5161Y-5.0205
X6.5161Y-5.1205
X6.5161Y-5.2205
X6.5161Y-5.2705
T2
X4.9717Y-3.0394
X5.011Y-3.0394
X5.3307Y-1.8583
X5.3307Y-1.937
X5.4882Y-1.8583
X5.4882Y-1.937
T4
X4.5433Y-2.0945
X4.5433Y-2.3701
X4.5433Y-2.6457
X4.5433Y-2.9213
X4.5433Y-3.1969
X4.7402Y-1.9567
X4.7402Y-2.2323
X4.7402Y-2.5079
X4.7402Y-2.7835
X4.7402Y-3.0591
T5
X4.6157Y-3.5024
X4.6157Y-3.9024
X4.6157Y-4.3024
X4.6157Y-4.7024
X4.6157Y-5.1024
X4.6157Y-5.5024
X5.0157Y-3.5024
X5.0157Y-3.9024
X5.0157Y-4.3024
X5.0157Y-4.7024
X5.0157Y-5.1024
X5.0157Y-5.5024
T3
G00X5.239Y-1.8984
M15
G01X5.239Y-1.8669
M16
G05
G00X5.239Y-2.0697
M15
G01X5.239Y-2.0264
M16
G05
G00X5.5799Y-1.8984
M15
G01X5.5799Y-1.8669
M16
G05
G00X5.5799Y-2.0697
M15
G01X5.5799Y-2.0264
M16
G05
M30
