%TF.GenerationSoftware,KiCad,Pcbnew,9.0.8+dfsg-1*%
%TF.CreationDate,2026-06-01T20:41:08-04:00*%
%TF.ProjectId,ch32v307drv,63683332-7633-4303-9764-72762e6b6963,rev?*%
%TF.SameCoordinates,Original*%
%TF.FileFunction,Soldermask,Top*%
%TF.FilePolarity,Negative*%
%FSLAX46Y46*%
G04 Gerber Fmt 4.6, Leading zero omitted, Abs format (unit mm)*
G04 Created by KiCad (PCBNEW 9.0.8+dfsg-1) date 2026-06-01 20:41:08*
%MOMM*%
%LPD*%
G01*
G04 APERTURE LIST*
G04 Aperture macros list*
%AMRoundRect*
0 Rectangle with rounded corners*
0 $1 Rounding radius*
0 $2 $3 $4 $5 $6 $7 $8 $9 X,Y pos of 4 corners*
0 Add a 4 corners polygon primitive as box body*
4,1,4,$2,$3,$4,$5,$6,$7,$8,$9,$2,$3,0*
0 Add four circle primitives for the rounded corners*
1,1,$1+$1,$2,$3*
1,1,$1+$1,$4,$5*
1,1,$1+$1,$6,$7*
1,1,$1+$1,$8,$9*
0 Add four rect primitives between the rounded corners*
20,1,$1+$1,$2,$3,$4,$5,0*
20,1,$1+$1,$4,$5,$6,$7,0*
20,1,$1+$1,$6,$7,$8,$9,0*
20,1,$1+$1,$8,$9,$2,$3,0*%
G04 Aperture macros list end*
%ADD10RoundRect,0.125000X0.125000X-0.537500X0.125000X0.537500X-0.125000X0.537500X-0.125000X-0.537500X0*%
%ADD11RoundRect,0.244000X0.269000X-0.244000X0.269000X0.244000X-0.269000X0.244000X-0.269000X-0.244000X0*%
%ADD12RoundRect,0.150000X-0.150000X0.662500X-0.150000X-0.662500X0.150000X-0.662500X0.150000X0.662500X0*%
%ADD13RoundRect,0.266521X-0.346479X-0.671479X0.346479X-0.671479X0.346479X0.671479X-0.346479X0.671479X0*%
%ADD14RoundRect,0.219000X-0.219000X-0.294000X0.219000X-0.294000X0.219000X0.294000X-0.219000X0.294000X0*%
%ADD15RoundRect,0.219000X0.294000X-0.219000X0.294000X0.219000X-0.294000X0.219000X-0.294000X-0.219000X0*%
%ADD16R,1.800000X1.800000*%
%ADD17C,1.800000*%
%ADD18C,3.000000*%
%ADD19R,0.350000X0.200000*%
%ADD20RoundRect,0.137500X0.462500X-0.137500X0.462500X0.137500X-0.462500X0.137500X-0.462500X-0.137500X0*%
%ADD21RoundRect,0.219000X-0.294000X0.219000X-0.294000X-0.219000X0.294000X-0.219000X0.294000X0.219000X0*%
%ADD22RoundRect,0.244000X-0.244000X-0.269000X0.244000X-0.269000X0.244000X0.269000X-0.244000X0.269000X0*%
%ADD23RoundRect,0.250000X-4.250000X0.940000X-4.250000X-0.940000X4.250000X-0.940000X4.250000X0.940000X0*%
%ADD24RoundRect,0.239000X-0.239000X-0.274000X0.239000X-0.274000X0.239000X0.274000X-0.239000X0.274000X0*%
%ADD25RoundRect,0.131500X0.131500X-0.206500X0.131500X0.206500X-0.131500X0.206500X-0.131500X-0.206500X0*%
%ADD26RoundRect,0.219000X0.219000X0.294000X-0.219000X0.294000X-0.219000X-0.294000X0.219000X-0.294000X0*%
%ADD27RoundRect,0.239000X0.274000X-0.239000X0.274000X0.239000X-0.274000X0.239000X-0.274000X-0.239000X0*%
%ADD28RoundRect,0.266521X0.346479X0.671479X-0.346479X0.671479X-0.346479X-0.671479X0.346479X-0.671479X0*%
%ADD29C,0.600000*%
%ADD30C,5.200000*%
%ADD31RoundRect,0.250000X1.750000X1.000000X-1.750000X1.000000X-1.750000X-1.000000X1.750000X-1.000000X0*%
%ADD32RoundRect,0.137500X-0.137500X-0.462500X0.137500X-0.462500X0.137500X0.462500X-0.137500X0.462500X0*%
%ADD33RoundRect,0.250000X-1.750000X-1.000000X1.750000X-1.000000X1.750000X1.000000X-1.750000X1.000000X0*%
%ADD34RoundRect,0.287778X-0.489222X-0.714222X0.489222X-0.714222X0.489222X0.714222X-0.489222X0.714222X0*%
%ADD35RoundRect,0.175000X0.175000X-0.450000X0.175000X0.450000X-0.175000X0.450000X-0.175000X-0.450000X0*%
%ADD36RoundRect,0.244000X-0.269000X0.244000X-0.269000X-0.244000X0.269000X-0.244000X0.269000X0.244000X0*%
%ADD37R,1.651000X1.778000*%
%ADD38R,1.651000X0.508000*%
%ADD39RoundRect,0.244000X0.244000X0.269000X-0.244000X0.269000X-0.244000X-0.269000X0.244000X-0.269000X0*%
%ADD40R,1.549400X0.660400*%
%ADD41R,1.905000X1.295400*%
%ADD42RoundRect,0.250500X0.499500X0.499500X-0.499500X0.499500X-0.499500X-0.499500X0.499500X-0.499500X0*%
%ADD43C,1.500000*%
%ADD44C,2.500000*%
%ADD45RoundRect,0.131500X0.206500X0.131500X-0.206500X0.131500X-0.206500X-0.131500X0.206500X-0.131500X0*%
%ADD46RoundRect,0.075000X0.725000X0.075000X-0.725000X0.075000X-0.725000X-0.075000X0.725000X-0.075000X0*%
%ADD47RoundRect,0.075000X0.075000X0.725000X-0.075000X0.725000X-0.075000X-0.725000X0.075000X-0.725000X0*%
%ADD48R,1.400000X0.300000*%
%ADD49R,1.400000X0.500000*%
%ADD50O,2.300000X1.300000*%
%ADD51O,2.100000X1.300000*%
%ADD52C,0.500000*%
%ADD53RoundRect,0.500000X-1.000000X2.000000X-1.000000X-2.000000X1.000000X-2.000000X1.000000X2.000000X0*%
%ADD54C,2.604000*%
%ADD55RoundRect,0.175000X0.450000X0.175000X-0.450000X0.175000X-0.450000X-0.175000X0.450000X-0.175000X0*%
%ADD56RoundRect,0.267273X-0.320727X-0.570727X0.320727X-0.570727X0.320727X0.570727X-0.320727X0.570727X0*%
%ADD57C,1.400000*%
%ADD58RoundRect,0.250000X-0.845000X0.620000X-0.845000X-0.620000X0.845000X-0.620000X0.845000X0.620000X0*%
%ADD59O,2.190000X1.740000*%
G04 APERTURE END LIST*
D10*
%TO.C,U8*%
X174180000Y-63882500D03*
X174830000Y-63882500D03*
X175480000Y-63882500D03*
X176130000Y-63882500D03*
X176130000Y-61607500D03*
X175480000Y-61607500D03*
X174830000Y-61607500D03*
X174180000Y-61607500D03*
%TD*%
D11*
%TO.C,C64*%
X141000000Y-105800000D03*
X141000000Y-104240000D03*
%TD*%
D12*
%TO.C,U11*%
X133840000Y-61935000D03*
X132570000Y-61935000D03*
X132570000Y-68310000D03*
X133840000Y-68310000D03*
%TD*%
D13*
%TO.C,C86*%
X140600000Y-100400000D03*
X143560000Y-100400000D03*
%TD*%
D14*
%TO.C,R12*%
X177600000Y-61000000D03*
X179240000Y-61000000D03*
%TD*%
D15*
%TO.C,R23*%
X126570000Y-58730000D03*
X126570000Y-57090000D03*
%TD*%
D16*
%TO.C,J3*%
X89855000Y-125705000D03*
D17*
X92395000Y-126975000D03*
X89855000Y-128245000D03*
X92395000Y-129515000D03*
X89855000Y-130785000D03*
X92395000Y-132055000D03*
X89855000Y-133325000D03*
X92395000Y-134595000D03*
D18*
X86555000Y-122405000D03*
X86555000Y-137895000D03*
%TD*%
D19*
%TO.C,D7*%
X169555000Y-62745000D03*
X169555000Y-63145000D03*
%TD*%
D20*
%TO.C,D16*%
X102905000Y-112835000D03*
X102905000Y-111885000D03*
X102905000Y-110935000D03*
X100505000Y-110935000D03*
X100505000Y-111885000D03*
X100505000Y-112835000D03*
%TD*%
D21*
%TO.C,R63*%
X157000000Y-60370000D03*
X157000000Y-62010000D03*
%TD*%
D13*
%TO.C,C87*%
X155200000Y-93000000D03*
X158160000Y-93000000D03*
%TD*%
D15*
%TO.C,R31*%
X132970000Y-58730000D03*
X132970000Y-57090000D03*
%TD*%
D14*
%TO.C,R19*%
X97000000Y-134000000D03*
X98640000Y-134000000D03*
%TD*%
D22*
%TO.C,C16*%
X172420000Y-65600000D03*
X173980000Y-65600000D03*
%TD*%
D23*
%TO.C,L3*%
X133800000Y-110075000D03*
X133800000Y-116725000D03*
%TD*%
D15*
%TO.C,R74*%
X95400000Y-65600000D03*
X95400000Y-63960000D03*
%TD*%
D13*
%TO.C,C85*%
X140600000Y-97950000D03*
X143560000Y-97950000D03*
%TD*%
%TO.C,C41*%
X112200000Y-92800000D03*
X115160000Y-92800000D03*
%TD*%
D16*
%TO.C,J7*%
X174450000Y-51400000D03*
D17*
X173180000Y-53940000D03*
X171910000Y-51400000D03*
X170640000Y-53940000D03*
X169370000Y-51400000D03*
X168100000Y-53940000D03*
X166830000Y-51400000D03*
X165560000Y-53940000D03*
D18*
X177750000Y-48100000D03*
X162260000Y-48100000D03*
%TD*%
D13*
%TO.C,C61*%
X126600000Y-95350000D03*
X129560000Y-95350000D03*
%TD*%
D15*
%TO.C,R32*%
X131570000Y-58730000D03*
X131570000Y-57090000D03*
%TD*%
D14*
%TO.C,R49*%
X92760000Y-77000000D03*
X94400000Y-77000000D03*
%TD*%
D22*
%TO.C,C36*%
X100640000Y-56400000D03*
X102200000Y-56400000D03*
%TD*%
D24*
%TO.C,D1*%
X164200000Y-63400000D03*
X165780000Y-63400000D03*
%TD*%
D16*
%TO.C,J1*%
X134500000Y-51460000D03*
D17*
X133230000Y-54000000D03*
X131960000Y-51460000D03*
X130690000Y-54000000D03*
X129420000Y-51460000D03*
X128150000Y-54000000D03*
X126880000Y-51460000D03*
X125610000Y-54000000D03*
D18*
X137800000Y-48160000D03*
X122310000Y-48160000D03*
%TD*%
D25*
%TO.C,D8*%
X165200000Y-78720000D03*
X165200000Y-76620000D03*
%TD*%
D15*
%TO.C,R42*%
X154600000Y-58820000D03*
X154600000Y-57180000D03*
%TD*%
D26*
%TO.C,R44*%
X90420000Y-97200000D03*
X88780000Y-97200000D03*
%TD*%
D12*
%TO.C,U5*%
X129240000Y-61935000D03*
X127970000Y-61935000D03*
X127970000Y-68310000D03*
X129240000Y-68310000D03*
%TD*%
D13*
%TO.C,C52*%
X122720000Y-106200000D03*
X125680000Y-106200000D03*
%TD*%
D27*
%TO.C,D3*%
X158800000Y-58800000D03*
X158800000Y-57220000D03*
%TD*%
D28*
%TO.C,C74*%
X130880000Y-106200000D03*
X127920000Y-106200000D03*
%TD*%
D14*
%TO.C,R18*%
X97000000Y-129800000D03*
X98640000Y-129800000D03*
%TD*%
D23*
%TO.C,L5*%
X121000000Y-110075000D03*
X121000000Y-116725000D03*
%TD*%
D14*
%TO.C,R46*%
X92800000Y-75150000D03*
X94440000Y-75150000D03*
%TD*%
%TO.C,R13*%
X96905000Y-111885000D03*
X98545000Y-111885000D03*
%TD*%
D26*
%TO.C,R60*%
X162170000Y-63470000D03*
X160530000Y-63470000D03*
%TD*%
D29*
%TO.C,H2*%
X99910000Y-118710000D03*
X100500000Y-117300000D03*
X100500000Y-120120000D03*
X101910000Y-116710000D03*
D30*
X101910000Y-118710000D03*
D29*
X101910000Y-120710000D03*
X103320000Y-117300000D03*
X103320000Y-120120000D03*
X103910000Y-118710000D03*
%TD*%
D22*
%TO.C,C4*%
X177640000Y-63800000D03*
X179200000Y-63800000D03*
%TD*%
D31*
%TO.C,C8*%
X176720000Y-114700000D03*
X168720000Y-114700000D03*
%TD*%
D28*
%TO.C,C75*%
X130280000Y-120200000D03*
X127320000Y-120200000D03*
%TD*%
D13*
%TO.C,C84*%
X140600000Y-95600000D03*
X143560000Y-95600000D03*
%TD*%
D29*
%TO.C,H1*%
X109200000Y-48200000D03*
X109790000Y-46790000D03*
X109790000Y-49610000D03*
X111200000Y-46200000D03*
D30*
X111200000Y-48200000D03*
D29*
X111200000Y-50200000D03*
X112610000Y-46790000D03*
X112610000Y-49610000D03*
X113200000Y-48200000D03*
%TD*%
D32*
%TO.C,D14*%
X98850000Y-88000000D03*
X99800000Y-88000000D03*
X100750000Y-88000000D03*
X100750000Y-85600000D03*
X99800000Y-85600000D03*
X98850000Y-85600000D03*
%TD*%
D14*
%TO.C,R33*%
X96905000Y-113385000D03*
X98545000Y-113385000D03*
%TD*%
%TO.C,R15*%
X96905000Y-108885000D03*
X98545000Y-108885000D03*
%TD*%
D13*
%TO.C,C46*%
X112040000Y-100000000D03*
X115000000Y-100000000D03*
%TD*%
D33*
%TO.C,C40*%
X154100000Y-82050000D03*
X162100000Y-82050000D03*
%TD*%
D29*
%TO.C,H3*%
X173900000Y-84450000D03*
X174490000Y-83040000D03*
X174490000Y-85860000D03*
X175900000Y-82450000D03*
D30*
X175900000Y-84450000D03*
D29*
X175900000Y-86450000D03*
X177310000Y-83040000D03*
X177310000Y-85860000D03*
X177900000Y-84450000D03*
%TD*%
D34*
%TO.C,S1*%
X82800000Y-97200000D03*
X86950000Y-97200000D03*
%TD*%
D35*
%TO.C,D12*%
X175855000Y-57345000D03*
X173955000Y-57345000D03*
X174905000Y-59345000D03*
%TD*%
D15*
%TO.C,R38*%
X150600000Y-58820000D03*
X150600000Y-57180000D03*
%TD*%
D13*
%TO.C,C89*%
X155200000Y-97900000D03*
X158160000Y-97900000D03*
%TD*%
D16*
%TO.C,J9*%
X154845000Y-51455000D03*
D17*
X153575000Y-53995000D03*
X152305000Y-51455000D03*
X151035000Y-53995000D03*
X149765000Y-51455000D03*
X148495000Y-53995000D03*
X147225000Y-51455000D03*
X145955000Y-53995000D03*
D18*
X158145000Y-48155000D03*
X142655000Y-48155000D03*
%TD*%
D20*
%TO.C,D17*%
X102905000Y-108335000D03*
X102905000Y-107385000D03*
X102905000Y-106435000D03*
X100505000Y-106435000D03*
X100505000Y-107385000D03*
X100505000Y-108335000D03*
%TD*%
D14*
%TO.C,R21*%
X97000000Y-128400000D03*
X98640000Y-128400000D03*
%TD*%
%TO.C,R14*%
X96905000Y-110385000D03*
X98545000Y-110385000D03*
%TD*%
D21*
%TO.C,R72*%
X86980000Y-59745000D03*
X86980000Y-61385000D03*
%TD*%
D12*
%TO.C,U10*%
X126040000Y-61922500D03*
X124770000Y-61922500D03*
X124770000Y-68297500D03*
X126040000Y-68297500D03*
%TD*%
D13*
%TO.C,C81*%
X163120000Y-106200000D03*
X166080000Y-106200000D03*
%TD*%
D36*
%TO.C,C1*%
X171555000Y-61965000D03*
X171555000Y-63525000D03*
%TD*%
D37*
%TO.C,U15*%
X120228900Y-106070000D03*
X120228900Y-103530000D03*
D38*
X114971100Y-102895000D03*
X114971100Y-104165000D03*
X114971100Y-105435000D03*
X114971100Y-106705000D03*
%TD*%
D14*
%TO.C,R20*%
X97000000Y-127000000D03*
X98640000Y-127000000D03*
%TD*%
D20*
%TO.C,D10*%
X103000000Y-133550000D03*
X103000000Y-132600000D03*
X103000000Y-131650000D03*
X100600000Y-131650000D03*
X100600000Y-132600000D03*
X100600000Y-133550000D03*
%TD*%
D33*
%TO.C,C32*%
X125150000Y-82150000D03*
X133150000Y-82150000D03*
%TD*%
D15*
%TO.C,R40*%
X151800000Y-58820000D03*
X151800000Y-57180000D03*
%TD*%
D39*
%TO.C,C30*%
X120180000Y-73400000D03*
X118620000Y-73400000D03*
%TD*%
D15*
%TO.C,R41*%
X153200000Y-58820000D03*
X153200000Y-57180000D03*
%TD*%
D13*
%TO.C,C70*%
X126590000Y-97800000D03*
X129550000Y-97800000D03*
%TD*%
D21*
%TO.C,R62*%
X158800000Y-60370000D03*
X158800000Y-62010000D03*
%TD*%
D13*
%TO.C,C42*%
X112120000Y-95200000D03*
X115080000Y-95200000D03*
%TD*%
D37*
%TO.C,U17*%
X148800000Y-106200000D03*
X148800000Y-103660000D03*
D38*
X143542200Y-103025000D03*
X143542200Y-104295000D03*
X143542200Y-105565000D03*
X143542200Y-106835000D03*
%TD*%
D28*
%TO.C,C53*%
X117480000Y-120800000D03*
X114520000Y-120800000D03*
%TD*%
D13*
%TO.C,C49*%
X126600000Y-93000000D03*
X129560000Y-93000000D03*
%TD*%
%TO.C,C82*%
X161320000Y-120200000D03*
X164280000Y-120200000D03*
%TD*%
D40*
%TO.C,J4*%
X86400000Y-86400000D03*
X86400000Y-87400000D03*
X86400000Y-88400001D03*
X86400000Y-89399999D03*
X86400000Y-90400000D03*
X86400000Y-91400000D03*
D41*
X82524999Y-85100000D03*
X82524999Y-92700000D03*
%TD*%
D15*
%TO.C,R77*%
X89780000Y-61385000D03*
X89780000Y-59745000D03*
%TD*%
D42*
%TO.C,J5*%
X95440000Y-54210000D03*
D43*
X94180000Y-56750000D03*
X92900000Y-54210000D03*
X91640000Y-56750000D03*
X90360000Y-54210000D03*
X89100000Y-56750000D03*
X87820000Y-54210000D03*
X86560000Y-56750000D03*
X97625000Y-42950000D03*
X95085000Y-42950000D03*
X86915000Y-42950000D03*
X84375000Y-42950000D03*
D44*
X98745000Y-50900000D03*
X83255000Y-50900000D03*
%TD*%
D15*
%TO.C,R39*%
X147800000Y-58820000D03*
X147800000Y-57180000D03*
%TD*%
D14*
%TO.C,R34*%
X96905000Y-105885000D03*
X98545000Y-105885000D03*
%TD*%
D16*
%TO.C,J8*%
X89855000Y-106155000D03*
D17*
X92395000Y-107425000D03*
X89855000Y-108695000D03*
X92395000Y-109965000D03*
X89855000Y-111235000D03*
X92395000Y-112505000D03*
X89855000Y-113775000D03*
X92395000Y-115045000D03*
D18*
X86555000Y-102855000D03*
X86555000Y-118345000D03*
%TD*%
D26*
%TO.C,R11*%
X179240000Y-62400000D03*
X177600000Y-62400000D03*
%TD*%
D11*
%TO.C,C57*%
X112800000Y-106380000D03*
X112800000Y-104820000D03*
%TD*%
D20*
%TO.C,D11*%
X103000000Y-129150000D03*
X103000000Y-128200000D03*
X103000000Y-127250000D03*
X100600000Y-127250000D03*
X100600000Y-128200000D03*
X100600000Y-129150000D03*
%TD*%
D36*
%TO.C,C33*%
X92580000Y-59785000D03*
X92580000Y-61345000D03*
%TD*%
D14*
%TO.C,R50*%
X135960000Y-63000000D03*
X137600000Y-63000000D03*
%TD*%
D31*
%TO.C,C7*%
X176720000Y-102850000D03*
X168720000Y-102850000D03*
%TD*%
D11*
%TO.C,C31*%
X100400000Y-73580000D03*
X100400000Y-72020000D03*
%TD*%
D13*
%TO.C,C88*%
X155200000Y-95400000D03*
X158160000Y-95400000D03*
%TD*%
D11*
%TO.C,C91*%
X135800000Y-58800000D03*
X135800000Y-57240000D03*
%TD*%
D45*
%TO.C,D9*%
X179270000Y-66600000D03*
X177170000Y-66600000D03*
%TD*%
D13*
%TO.C,C90*%
X155200000Y-100400000D03*
X158160000Y-100400000D03*
%TD*%
D46*
%TO.C,U1*%
X118075000Y-71600000D03*
X118075000Y-71100000D03*
X118075000Y-70600000D03*
X118075000Y-70100000D03*
X118075000Y-69600000D03*
X118075000Y-69100000D03*
X118075000Y-68600000D03*
X118075000Y-68100000D03*
X118075000Y-67600000D03*
X118075000Y-67100000D03*
X118075000Y-66600000D03*
X118075000Y-66100000D03*
X118075000Y-65600000D03*
X118075000Y-65100000D03*
X118075000Y-64600000D03*
X118075000Y-64100000D03*
X118075000Y-63600000D03*
X118075000Y-63100000D03*
X118075000Y-62600000D03*
X118075000Y-62100000D03*
X118075000Y-61600000D03*
X118075000Y-61100000D03*
X118075000Y-60600000D03*
X118075000Y-60100000D03*
X118075000Y-59600000D03*
D47*
X116400000Y-57925000D03*
X115900000Y-57925000D03*
X115400000Y-57925000D03*
X114900000Y-57925000D03*
X114400000Y-57925000D03*
X113900000Y-57925000D03*
X113400000Y-57925000D03*
X112900000Y-57925000D03*
X112400000Y-57925000D03*
X111900000Y-57925000D03*
X111400000Y-57925000D03*
X110900000Y-57925000D03*
X110400000Y-57925000D03*
X109900000Y-57925000D03*
X109400000Y-57925000D03*
X108900000Y-57925000D03*
X108400000Y-57925000D03*
X107900000Y-57925000D03*
X107400000Y-57925000D03*
X106900000Y-57925000D03*
X106400000Y-57925000D03*
X105900000Y-57925000D03*
X105400000Y-57925000D03*
X104900000Y-57925000D03*
X104400000Y-57925000D03*
D46*
X102725000Y-59600000D03*
X102725000Y-60100000D03*
X102725000Y-60600000D03*
X102725000Y-61100000D03*
X102725000Y-61600000D03*
X102725000Y-62100000D03*
X102725000Y-62600000D03*
X102725000Y-63100000D03*
X102725000Y-63600000D03*
X102725000Y-64100000D03*
X102725000Y-64600000D03*
X102725000Y-65100000D03*
X102725000Y-65600000D03*
X102725000Y-66100000D03*
X102725000Y-66600000D03*
X102725000Y-67100000D03*
X102725000Y-67600000D03*
X102725000Y-68100000D03*
X102725000Y-68600000D03*
X102725000Y-69100000D03*
X102725000Y-69600000D03*
X102725000Y-70100000D03*
X102725000Y-70600000D03*
X102725000Y-71100000D03*
X102725000Y-71600000D03*
D47*
X104400000Y-73275000D03*
X104900000Y-73275000D03*
X105400000Y-73275000D03*
X105900000Y-73275000D03*
X106400000Y-73275000D03*
X106900000Y-73275000D03*
X107400000Y-73275000D03*
X107900000Y-73275000D03*
X108400000Y-73275000D03*
X108900000Y-73275000D03*
X109400000Y-73275000D03*
X109900000Y-73275000D03*
X110400000Y-73275000D03*
X110900000Y-73275000D03*
X111400000Y-73275000D03*
X111900000Y-73275000D03*
X112400000Y-73275000D03*
X112900000Y-73275000D03*
X113400000Y-73275000D03*
X113900000Y-73275000D03*
X114400000Y-73275000D03*
X114900000Y-73275000D03*
X115400000Y-73275000D03*
X115900000Y-73275000D03*
X116400000Y-73275000D03*
%TD*%
D14*
%TO.C,R17*%
X97000000Y-131200000D03*
X98640000Y-131200000D03*
%TD*%
D28*
%TO.C,C66*%
X142400000Y-120400000D03*
X139440000Y-120400000D03*
%TD*%
D48*
%TO.C,J2*%
X88337500Y-70950000D03*
X88337500Y-71950000D03*
X88337500Y-72450000D03*
X88337500Y-73450000D03*
D49*
X88337500Y-74600000D03*
X88337500Y-75400000D03*
D48*
X88337500Y-73950000D03*
X88337500Y-72950000D03*
X88337500Y-71450000D03*
X88337500Y-70450000D03*
D49*
X88337500Y-69800000D03*
X88337500Y-69000000D03*
D50*
X87657500Y-67870000D03*
D51*
X83457500Y-67870000D03*
D52*
X84837500Y-70200000D03*
X82837500Y-70200000D03*
D53*
X83837500Y-72200000D03*
D52*
X84837500Y-74200000D03*
X82837500Y-74200000D03*
D50*
X87657500Y-76530000D03*
D51*
X83457500Y-76530000D03*
%TD*%
D23*
%TO.C,L2*%
X159400000Y-110075000D03*
X159400000Y-116725000D03*
%TD*%
D54*
%TO.C,J6*%
X124040000Y-124540000D03*
X134200000Y-124540000D03*
X144360000Y-124540000D03*
X154520000Y-124540000D03*
X164680000Y-124540000D03*
X174840000Y-124540000D03*
X124040000Y-134700000D03*
X134200000Y-134700000D03*
X144360000Y-134700000D03*
X154520000Y-134700000D03*
X164680000Y-134700000D03*
X174840000Y-134700000D03*
%TD*%
D13*
%TO.C,C65*%
X150920000Y-106200000D03*
X153880000Y-106200000D03*
%TD*%
D15*
%TO.C,R10*%
X168400000Y-78420000D03*
X168400000Y-76780000D03*
%TD*%
%TO.C,R24*%
X128170000Y-58730000D03*
X128170000Y-57090000D03*
%TD*%
D21*
%TO.C,R73*%
X88380000Y-59745000D03*
X88380000Y-61385000D03*
%TD*%
D15*
%TO.C,R43*%
X146400000Y-58820000D03*
X146400000Y-57180000D03*
%TD*%
D14*
%TO.C,R45*%
X92800000Y-69550000D03*
X94440000Y-69550000D03*
%TD*%
D23*
%TO.C,L1*%
X146920000Y-110225000D03*
X146920000Y-116875000D03*
%TD*%
D14*
%TO.C,R55*%
X89200000Y-91600000D03*
X90840000Y-91600000D03*
%TD*%
D55*
%TO.C,D13*%
X92800000Y-71600000D03*
X92800000Y-73500000D03*
X94800000Y-72550000D03*
%TD*%
D39*
%TO.C,C3*%
X122580000Y-61200000D03*
X121020000Y-61200000D03*
%TD*%
D13*
%TO.C,C78*%
X126590000Y-100200000D03*
X129550000Y-100200000D03*
%TD*%
D27*
%TO.C,D4*%
X157000000Y-58800000D03*
X157000000Y-57220000D03*
%TD*%
D36*
%TO.C,C37*%
X167000000Y-76840000D03*
X167000000Y-78400000D03*
%TD*%
D14*
%TO.C,R16*%
X97020000Y-132600000D03*
X98660000Y-132600000D03*
%TD*%
D13*
%TO.C,C83*%
X140600000Y-93200000D03*
X143560000Y-93200000D03*
%TD*%
D15*
%TO.C,R76*%
X91180000Y-61385000D03*
X91180000Y-59745000D03*
%TD*%
D13*
%TO.C,C45*%
X112120000Y-97600000D03*
X115080000Y-97600000D03*
%TD*%
D15*
%TO.C,R75*%
X94000000Y-65600000D03*
X94000000Y-63960000D03*
%TD*%
D56*
%TO.C,D2*%
X83400000Y-65350000D03*
X86200000Y-65350000D03*
%TD*%
D14*
%TO.C,R35*%
X96905000Y-107385000D03*
X98545000Y-107385000D03*
%TD*%
%TO.C,R51*%
X138760000Y-63000000D03*
X140400000Y-63000000D03*
%TD*%
D15*
%TO.C,R37*%
X149200000Y-58820000D03*
X149200000Y-57180000D03*
%TD*%
D21*
%TO.C,R9*%
X168400000Y-79620000D03*
X168400000Y-81260000D03*
%TD*%
D57*
%TO.C,TH2*%
X93500000Y-94000000D03*
X91600000Y-94000000D03*
%TD*%
D58*
%TO.C,J10*%
X140400000Y-53000000D03*
D59*
X140400000Y-55540000D03*
X140400000Y-58080000D03*
X140400000Y-60620000D03*
%TD*%
M02*
